<?xml version="1.0" encoding="utf-8"?>
<!-- Generator: Adobe Illustrator 28.1.0, SVG Export Plug-In . SVG Version: 6.00 Build 0)  -->
<svg version="1.1" id="Capa_2_00000096032798817180702490000010819259911975284662_"
	 xmlns="http://www.w3.org/2000/svg" xmlns:xlink="http://www.w3.org/1999/xlink" x="0px" y="0px" viewBox="0 0 225.1 225.1"
	 style="enable-background:new 0 0 225.1 225.1;" xml:space="preserve">
<style type="text/css">
	.st0{fill:#FFFFFF;}
</style>
<path class="st0" d="M112.5,10.7c-27.2,0-52.8,10.6-72,29.8s-29.8,44.8-29.8,72s10.6,52.8,29.8,72c19.2,19.2,44.8,29.8,72,29.8
	s52.8-10.6,72-29.8c19.2-19.2,29.8-44.8,29.8-72s-10.6-52.8-29.8-72C165.3,21.3,139.7,10.7,112.5,10.7z"/>
<path d="M112.5,225.1c-30.1,0-58.3-11.7-79.6-33c-21.3-21.2-33-49.5-33-79.6S11.7,54.2,33,33C54.2,11.7,82.5,0,112.5,0
	s58.3,11.7,79.6,33c21.2,21.2,33,49.5,33,79.6s-11.7,58.3-33,79.6C170.9,213.4,142.6,225.1,112.5,225.1L112.5,225.1z M112.5,10.7
	c-27.2,0-52.8,10.6-72,29.8s-29.8,44.8-29.8,72s10.6,52.8,29.8,72c19.2,19.2,44.8,29.8,72,29.8s52.8-10.6,72-29.8
	c19.2-19.2,29.8-44.8,29.8-72s-10.6-52.8-29.8-72C165.3,21.3,139.7,10.7,112.5,10.7z"/>
<path d="M181.3,125.1c-0.2,16.4-0.9,21.8-3.4,27.3c-4.1,9.2-12.2,13.7-24.8,13.7c-13.2,0-19.9-4.3-24.3-15.8
	c-11.7,12-21.3,16-38.7,16c-20.5,0-34.4-11.1-34.4-27.3c0-10.9,6.4-20.1,17.9-25c8.1-3.6,17.3-6.4,34.2-9.8
	c15.6-3.4,20.9-7.7,20.9-17.3c0-10.9-8.8-16.7-25-16.7c-9.8,0-15.4,1.5-22.2,6.2c11.1,0.4,15.8,4.1,15.8,11.7s-6.8,13.4-16.9,13.4
	c-11.1,0-19-6.8-19-16.7c0-15.8,17.9-26.3,44.8-26.3c15.2,0,29,3,35.9,7.5c9.4,6.4,11.5,12,11.5,30.5v44.4c0,5.1,1.7,7.5,5.8,7.5
	c5.8,0,7.3-4.7,7.3-23.5L181.3,125.1L181.3,125.1z M128.2,110.2c-6.2,2.6-10.5,4.3-12.6,4.9l-13.4,4.3c-11.3,3.6-17.7,9.8-17.7,17.1
	c0,7.7,5.8,12.2,16,12.2c7.7,0,14.5-2.4,19.6-6.4c5.8-4.9,8.1-10.5,8.1-19.9L128.2,110.2L128.2,110.2z"/>
</svg>
