<svg id="aerovan" xmlns="http://www.w3.org/2000/svg" xmlns:xlink="http://www.w3.org/1999/xlink" width="140" height="24.447" viewBox="0 0 140 24.447">
  <defs>
    <clipPath id="clip-path">
      <rect id="Rectángulo_131" data-name="Rectángulo 131" width="140" height="24.447" fill="none"/>
    </clipPath>
  </defs>
  <g id="Grupo_1730" data-name="Grupo 1730" clip-path="url(#clip-path)">
    <path id="Trazado_12684" data-name="Trazado 12684" d="M19.713,19.7l-.5-14.444H12.3L1,19.7H6.855l1.247-1.7h5.772v1.7Zm-9.349-4.772,3.509-4.773v4.773ZM30.2,8.526l-.522,1.633h7.743l-1.193,3.893H28.433l-.682,2.135h9.608L36.166,19.7H21.095l4.9-14.444H41.064L39.957,8.526ZM54.879,13.3l2-1.442a5.476,5.476,0,0,0,1.671-2.44l.165-.487a2.777,2.777,0,0,0-2.63-3.67H43.2L38.3,19.7h5.569l1.591-4.772h3.49a1.237,1.237,0,0,1,1.174,1.628L49.075,19.7h5.991l1.3-3.84a3.506,3.506,0,0,0,.1-.817,1.648,1.648,0,0,0-1.24-1.661Zm-2.192-2.578a1.411,1.411,0,0,1-1.239.684h-4.7l.9-2.691h3.882a1.338,1.338,0,0,1,1.159,2.006M115.45,19.7l-.5-14.444h-6.908L96.736,19.7h5.855l1.247-1.7h5.772v1.7Zm-9.35-4.772,3.509-4.773v4.773ZM91.176,5.261v9.169l6.656-9.169h6.091L91.992,19.7H86.34L85.022,5.261ZM116.609,19.7l4.961-14.444h6.154l2.7,7.975,3.2-7.975h5.212L133.752,19.7h-6.029l-3.014-8.164L122.072,19.7ZM66.791,7.124c3.326-3.11,8.157-3.349,10.791-.534s2.073,7.62-1.252,10.731-8.157,3.35-10.791.534-2.073-7.621,1.252-10.731M140,0H72.7V.005A13.923,13.923,0,0,0,59.335,12.064a11,11,0,0,0,2.793,8.913H0v3.47H70.294A13.669,13.669,0,0,0,79.489,20.7a13.625,13.625,0,0,0,4.3-8.318,11,11,0,0,0-2.793-8.913H140ZM78.426,5.8a7.585,7.585,0,0,1,1.913,6.179,10.155,10.155,0,0,1-3.22,6.186,10.164,10.164,0,0,1-6.824,2.811,7.389,7.389,0,0,1-7.513-8.511A10.158,10.158,0,0,1,66,6.279a10.168,10.168,0,0,1,6.825-2.81,7.553,7.553,0,0,1,5.6,2.332" transform="translate(0 0.001)" fill="#db000c"/>
  </g>
</svg>
