<svg id="anfp" xmlns="http://www.w3.org/2000/svg" xmlns:xlink="http://www.w3.org/1999/xlink" width="140" height="59.56" viewBox="0 0 140 59.56">
  <defs>
    <clipPath id="clip-path">
      <rect id="Rectángulo_125" data-name="Rectángulo 125" width="140" height="59.56" fill="none"/>
    </clipPath>
  </defs>
  <g id="Grupo_1723" data-name="Grupo 1723" clip-path="url(#clip-path)">
    <path id="Trazado_12604" data-name="Trazado 12604" d="M.146,630.292H.079Q0,628.076.012,625.808c.029-6.847-.039-13.7,0-20.545q.039-4.321.067-8.767H.146l.134.064v33.648Z" transform="translate(0 -583.18)" fill="#ef4251"/>
    <path id="Trazado_12605" data-name="Trazado 12605" d="M6261.955,1516.343h-.067l-.134-.047v-13.389l.134-.082c.019-.058.042-.058.067,0Z" transform="translate(-6121.955 -1469.231)" fill="#f15562"/>
    <path id="Trazado_12606" data-name="Trazado 12606" d="M6263.494,954.812h-.067q-.2-6.256,0-12.514c.019-.058.042-.058.067,0Z" transform="translate(-6123.494 -921.218)" fill="#f04857"/>
    <path id="Trazado_12607" data-name="Trazado 12607" d="M.552,605.264V596.5H.619c-.018,2.846.022,5.694,0,8.54a.515.515,0,0,1-.072.226" transform="translate(-0.54 -583.18)" fill="#f04856"/>
    <path id="Trazado_12608" data-name="Trazado 12608" d="M.618,1913.873H.551v-4.484Z" transform="translate(-0.539 -1866.76)" fill="#f1515e"/>
    <path id="Trazado_12609" data-name="Trazado 12609" d="M6260.585,786.98h-.067c-.053-.006-.132-.024-.134-.061-.042-1.082-.042-2.324,0-3.407l.134-.079c.019-.058.042-.058.067,0Z" transform="translate(-6120.585 -765.9)" fill="#f15764"/>
    <path id="Trazado_12610" data-name="Trazado 12610" d="M6260.691,680.864h-.067c-.053-.014-.131-.038-.134-.078a20.285,20.285,0,0,1,0-2.166l.134-.1c.019-.058.042-.058.067,0Z" transform="translate(-6120.691 -663.33)" fill="#f36b77"/>
    <path id="Trazado_12611" data-name="Trazado 12611" d="M6261.491,598.371h-.067c-.052-.006-.131-.023-.134-.061a12.006,12.006,0,0,1,.044-1.768.186.186,0,0,1,.089-.045h.067Z" transform="translate(-6121.491 -583.18)" fill="#f47c87"/>
    <path id="Trazado_12612" data-name="Trazado 12612" d="M4675.164,0c.058.019.058.041,0,.067a2.348,2.348,0,0,1-1.607,0c-.059-.019-.058-.041,0-.067Z" transform="translate(-4569.173)" fill="#f18d93"/>
    <path id="Trazado_12613" data-name="Trazado 12613" d="M4677.962,2658.7c.059.019.058.042,0,.067h-1.406c-.058-.019-.058-.041,0-.067a1.856,1.856,0,0,1,1.406,0" transform="translate(-4572.105 -2599.203)" fill="#e52833"/>
    <path id="Trazado_12614" data-name="Trazado 12614" d="M4652.01,0V.067a.324.324,0,0,1-.536,0V0Z" transform="translate(-4547.626)" fill="#f8c4c7"/>
    <path id="Trazado_12615" data-name="Trazado 12615" d="M4760.92,0V.067a.214.214,0,0,1-.4,0c-.058-.019-.058-.041,0-.067Z" transform="translate(-4654.193)" fill="#fce5e6"/>
    <path id="Trazado_12616" data-name="Trazado 12616" d="M4604.433,2656.889c.059.019.058.042,0,.067h-.4l-.536-.134a.839.839,0,0,1,.938.067" transform="translate(-4500.718 -2597.396)" fill="#fad5d7"/>
    <path id="Trazado_12617" data-name="Trazado 12617" d="M4658.966,2658.587v.067h-.4c-.059-.019-.058-.041,0-.067a.213.213,0,0,1,.4,0" transform="translate(-4554.516 -2599.094)" fill="#eb555e"/>
    <path id="Trazado_12618" data-name="Trazado 12618" d="M4741.835,2658.789c.059.019.058.042,0,.067h-.4v-.067c.127-.183.274-.181.4,0" transform="translate(-4635.577 -2599.296)" fill="#ea5059"/>
    <path id="Trazado_12619" data-name="Trazado 12619" d="M4759.827,2658.589c.058.019.058.042,0,.067h-.4v-.067a.214.214,0,0,1,.4,0" transform="translate(-4653.167 -2599.096)" fill="#f29197"/>
    <path id="Trazado_12620" data-name="Trazado 12620" d="M4747.766,0V.067c-.105.181-.23.182-.334,0V0Z" transform="translate(-4641.44)" fill="#f8c2c6"/>
    <path id="Trazado_12621" data-name="Trazado 12621" d="M4645.811,2658.614v.067h-.335v-.067c.086-.186.25-.188.335,0" transform="translate(-4541.762 -2599.121)" fill="#f2959b"/>
    <path id="Trazado_12622" data-name="Trazado 12622" d="M4777.751,2658.62v.067h-.334v-.067c.085-.188.248-.185.334,0" transform="translate(-4670.757 -2599.127)" fill="#f8c8cb"/>
    <path id="Trazado_12623" data-name="Trazado 12623" d="M86.819,596.5a2.005,2.005,0,0,1-.19.539,36.044,36.044,0,0,0-2.882,5.864,29.61,29.61,0,0,0,.47,21.357,36.169,36.169,0,0,0,2.994,5.5,2.008,2.008,0,0,1,.211.532H6.549V596.5Z" transform="translate(-6.403 -583.18)" fill="#ec192b"/>
    <path id="Trazado_12624" data-name="Trazado 12624" d="M3407.663,2.631c.178-.006.358,0,.536,0,.532-.012,1.075-.011,1.607,0,.112,0,.223,0,.335,0,.134,0,.268,0,.4,0a29.867,29.867,0,0,1,23.3,13.25,1.806,1.806,0,0,1,.413.389,21.414,21.414,0,0,1,2.074,3.849,30.074,30.074,0,0,1-.457,25.411,21.445,21.445,0,0,1-2.206,3.772,1.8,1.8,0,0,1-.426.374,30.021,30.021,0,0,1-22.427,12.38c-.111.006-.224,0-.335,0-.134.005-.268,0-.4,0s-.268,0-.4,0c-.466.008-.94.01-1.406,0-.134,0-.268,0-.4,0-.111,0-.223,0-.335,0-.31-.012-.627-.043-.937-.067a29.744,29.744,0,0,1,1.071-59.359" transform="translate(-3303.815 -2.564)" fill="#e30c19"/>
    <path id="Trazado_12625" data-name="Trazado 12625" d="M5807.472,596.5v33.8h-10.511a29.858,29.858,0,0,0,.6-33.8Z" transform="translate(-5667.539 -583.18)" fill="#ec192b"/>
    <path id="Trazado_12626" data-name="Trazado 12626" d="M296.512,1035.663v-10.975h2.979l11.08,10.573v-10.573h22.8a6.729,6.729,0,0,1,2.154.792,4.933,4.933,0,0,1,.485,8.4,6.371,6.371,0,0,1-2.639,1.11H327.71v4.383a.671.671,0,0,1-.1.1H324.6a.671.671,0,0,1-.1-.1v-9.235a.671.671,0,0,1,.1-.1h3.013a.671.671,0,0,1,.1.1v1.707h5.121a4.581,4.581,0,0,0,.862-.276,1.8,1.8,0,0,0,.22-3.349,4.059,4.059,0,0,0-.949-.39H313.718v3.915a.673.673,0,0,0,.1.1h7.13l-.067,3.145h-7.163v4.484H310.4L300.2,1029.74l-.47-.367v10a.673.673,0,0,1-.1.1h-4.419c-.437-.407-2.018-3.3-2.357-3.4a2.625,2.625,0,0,0-.854.056c-1.595.038-3.2,0-4.789-.07v-3.078h3.682l-3.279-4.952c-2.432,3.848-4.948,7.649-7.466,11.443h-3.716c2.979-4.552,5.878-9.165,8.9-13.687.151-.226.64-1.063.839-1.1a31.1,31.1,0,0,1,3.15.061c2.413,3.627,4.724,7.325,7.192,10.913" transform="translate(-270.257 -1001.801)" fill="#fefefe"/>
    <path id="Trazado_12627" data-name="Trazado 12627" d="M3452.414,48c22.791-.816,37.394,24.453,25.281,43.875-11.438,18.34-38.454,17.909-49.246-.819-10.874-18.87,2.366-42.282,23.965-43.056" transform="translate(-3348.111 -46.908)" fill="#005091"/>
    <path id="Trazado_12628" data-name="Trazado 12628" d="M3803.825,406.755a20.741,20.741,0,0,1,20.646,28.8c-6.5,15.366-27.791,16.976-36.66,2.827-8.189-13.065.626-30.7,16.014-31.628" transform="translate(-3700.191 -397.634)" fill="#fefefe"/>
    <path id="Trazado_12629" data-name="Trazado 12629" d="M4811.542,2298.531l-1.4.2c-.1-.071-.29-1.87-.4-2.178-.03-.084.04-.106-.1-.089a2.175,2.175,0,0,0-.3.069c-.1.115.428,2.1.3,2.275l-1.377.263-.871-5.488,1.406-.2c.064.067.166,1.56.282,1.827.092.212.457.037.456.011,0-.261-.39-1.822-.334-1.9l1.4-.271Z" transform="translate(-4700.062 -2241.85)" fill="#fefefe"/>
    <path id="Trazado_12630" data-name="Trazado 12630" d="M4891.591,131.229l1.334-5.348c1.081.417,3.082.3,2.937,1.9a21.618,21.618,0,0,1-.946,3.537c-.542,1.113-2.419.005-3.325-.088" transform="translate(-4782.382 -123.071)" fill="#fefefe"/>
    <path id="Trazado_12631" data-name="Trazado 12631" d="M4087.583,2179.011a11.8,11.8,0,0,1,2.069,1.11c.688.56.575.915.264,1.658a22.037,22.037,0,0,1-1.408,2.741c-.406.625-.771.643-1.439.392a13.026,13.026,0,0,1-1.954-1.048Z" transform="translate(-3993.91 -2130.359)" fill="#fefefe"/>
    <path id="Trazado_12632" data-name="Trazado 12632" d="M3541.087,857.07l-5.148-1.881a7.524,7.524,0,0,1,.518-1.578c.408-.915.65-1.4,1.752-1.125a20.386,20.386,0,0,1,3.079,1.138,1.6,1.6,0,0,1,.471.332c.52.661-.556,2.358-.671,3.113" transform="translate(-3456.989 -833.38)" fill="#fefefe"/>
    <path id="Trazado_12633" data-name="Trazado 12633" d="M5601.2,806.394c.192.853,1.178,2.143.605,2.977a1.977,1.977,0,0,1-1.611.672c-.191-.062-.258-.3-.464-.3.354.933-1.615,1.6-2.229,1.457s-1.173-2.225-1.454-2.8Z" transform="translate(-5471.114 -788.391)" fill="#fefefe"/>
    <path id="Trazado_12634" data-name="Trazado 12634" d="M4509.316,109.266c-.009.583.158,1.152.13,1.736l-1.128.132-.6-5.479,1.191-.127,1.013,2.2-.19-2.265,1.119-.134.612,5.478-1.206.1a20.937,20.937,0,0,1-.87-1.979c-.148-.037-.111.216-.067.335" transform="translate(-4407.074 -102.975)" fill="#fefefe"/>
    <path id="Trazado_12635" data-name="Trazado 12635" d="M5433.161,476.3a1.174,1.174,0,0,0,.1.193,9.778,9.778,0,0,1,.678.736c.026.052.044.082,0,.133l-3.351,2.946c-.1.183,0,.42.214.281,1.184-.9,2.258-1.944,3.412-2.885l.157.024.8,1c-.77.7-1.538,1.419-2.337,2.085-.9.752-1.735,1.659-2.848.5-1.455-1.513.028-2.429,1.1-3.382.615-.545,1.28-1.038,1.876-1.605a.2.2,0,0,1,.192-.024" transform="translate(-5308.166 -465.649)" fill="#fefefe"/>
    <path id="Trazado_12636" data-name="Trazado 12636" d="M3708.285,538.488h.067a1.167,1.167,0,0,1,.785-.015l1.756,1.387c-.185.14-.673.974-.833.974l-1.711-1.307c-.115-.116-.465.026-.465.132,0,.133,1.686,1.3,1.863,1.549a3.93,3.93,0,0,1-.836,1.087l-4.292-3.371a14.591,14.591,0,0,1,1.32-1.677c.664-.634,1.334-.335,1.945.2.362.319.587.528.4,1.038" transform="translate(-3621.91 -524.903)" fill="#fefefe"/>
    <path id="Trazado_12637" data-name="Trazado 12637" d="M4310.676,145.73a1.553,1.553,0,0,1,1.624.486,16.308,16.308,0,0,1,1.138,3.681,1.766,1.766,0,0,1-3.012.936,16.633,16.633,0,0,1-1.071-3.413,1.532,1.532,0,0,1,1.321-1.69" transform="translate(-4213.139 -142.435)" fill="#fefefe"/>
    <path id="Trazado_12638" data-name="Trazado 12638" d="M5671.561,1022.378c1.314-.136,1.944.777,1.825,2.025a1.394,1.394,0,0,1-1.141,1.2,12.5,12.5,0,0,1-3.5.554c-1.1-.226-1.486-2.344-.473-2.985a15.6,15.6,0,0,1,3.288-.8" transform="translate(-5541.149 -999.539)" fill="#fefefe"/>
    <path id="Trazado_12639" data-name="Trazado 12639" d="M3856.963,398.984l-3.073-4.526-.007-.089c.556-.325.969-.909,1.522-1.264l4.3,3.5-1.036.958c-.156,0-.574-.568-.7-.626-.1-.045-.411.211-.394.325.028.182.572.607.521.8a5.463,5.463,0,0,1-1.131.915" transform="translate(-3767.842 -384.329)" fill="#fefefe"/>
    <path id="Trazado_12640" data-name="Trazado 12640" d="M4641.488,2317h-1.406c-.016-.277.021-.562,0-.839-.026-.391-.062-1.109-.525-.586a30.48,30.48,0,0,0,.062,3.691.4.4,0,0,0,.362-.055c.155-.215.018-1.341.2-1.341h1.272c.211,0,.063,1.147,0,1.34-.429,1.353-3.012,1.469-3.311-.175a13.668,13.668,0,0,1,.026-3.577c.358-1.219,2.514-1.315,3.1-.289a3.33,3.33,0,0,1,.211.659Z" transform="translate(-4534.494 -2262.79)" fill="#fefefe"/>
    <path id="Trazado_12641" data-name="Trazado 12641" d="M4019.37,273.631a.252.252,0,0,0-.42.249l1.894,3.015c.926.141-.109-.934-.173-1.3a7.94,7.94,0,0,1,1.1-.773c.124-.045.081.036.108.081.455.755.926,1.427.309,2.278a1.83,1.83,0,0,1-2.333.616,15.328,15.328,0,0,1-2.088-3.133c-.49-1.405,1.488-2.715,2.525-1.989a4.883,4.883,0,0,1,1.011,1.336c.016.066.018.054-.04.1-.3.246-.811.412-1.105.7-.131,0-.63-1.042-.789-1.179" transform="translate(-3927.993 -266.384)" fill="#fefefe"/>
    <path id="Trazado_12642" data-name="Trazado 12642" d="M4283.578,2257.878l-.266,1.068-.936-.268-.335.972.86.332-.326.972-.865-.265-.336,1.131.932.274-.268,1.066-2.408-.735,1.677-5.216Z" transform="translate(-4184.083 -2206.814)" fill="#fefefe"/>
    <path id="Trazado_12643" data-name="Trazado 12643" d="M5063.3,192.625c.141.047.77.25.788.366l-.384.878c-.118.074-.673-.309-.871-.307.013.223-.5.992-.4,1.131l.871.382-.405,1-2.248-.973,2.178-4.991h.2l2,.941-.494.965c-.168-.085-.694-.39-.838-.3a4.336,4.336,0,0,0-.4.906" transform="translate(-4947.669 -185.867)" fill="#fefefe"/>
    <path id="Trazado_12644" data-name="Trazado 12644" d="M3498.309,1041.808l1.008.173.2-.84a4.182,4.182,0,0,1,.974.194c.116.158-.12.663-.106.875l1.168.2.236-.98,1.074.174-.5,2.412-5.388-1.007.464-2.314a2.7,2.7,0,0,1,1.049.17Z" transform="translate(-3418.897 -1017.449)" fill="#fefefe"/>
    <path id="Trazado_12645" data-name="Trazado 12645" d="M3619.42,685.185c.1.139-.482.769-.391.926l.83.473c.113-.009.339-.643.432-.7.147-.1.777.35.93.471-.041.176-.448.645-.365.773a5.31,5.31,0,0,0,1,.53l.543-.859c.188.168.954.4.879.664l-1.113,2.006-4.791-2.677c-.052-.087.015-.151.045-.225a16.807,16.807,0,0,1,1.063-1.82Z" transform="translate(-3536.596 -669.456)" fill="#fefefe"/>
    <path id="Trazado_12646" data-name="Trazado 12646" d="M5175.786,2156a5.374,5.374,0,0,0-.716.389c-.059.034-.112-.03-.077.1.069.268.388.56.465.844.113.079.694-.484.856-.39.041.024.38.725.467.83l-.731.471c.1.165.52,1.042.677,1.006.241-.055.548-.426.821-.435.172.043.431.738.581.9l-2.1,1.232-2.855-4.711c.342-.121,1.761-1.174,1.979-1.175.176,0,.525.763.634.938" transform="translate(-5057.678 -2106.943)" fill="#fefefe"/>
    <path id="Trazado_12647" data-name="Trazado 12647" d="M5314.9,365.819l1.84,1.57-.7.835c-.187-.092-.659-.661-.836-.572a5.166,5.166,0,0,0-.591.742c.007.085.546.374.579.544.023.12-.517.8-.679.753-.139-.037-.451-.532-.648-.432-.3.153-1.3,1.675-1.5,1.639a11.575,11.575,0,0,1-1.044-.9Z" transform="translate(-5192.746 -357.652)" fill="#fefefe"/>
    <path id="Trazado_12648" data-name="Trazado 12648" d="M3485.227,1196.244c.238.074-.018.749.033.937l2.343.134c-.161.455.05.971-.175,1.409l-5.449-.338.134-2.41,1.139.067-.068,1,1.007.038c.136-.1.034-.657.065-.842.254.048.758-.066.971,0" transform="translate(-3404.242 -1169.275)" fill="#fefefe"/>
    <path id="Trazado_12649" data-name="Trazado 12649" d="M5536.281,636.071l3.645-2.218c.1-.157-.441-.7-.373-.8l.9-.536,1.624,2.644a2.888,2.888,0,0,1-.878.559c-.183-.035-.343-.681-.534-.654l-3.637,2.262c-.086.027-.107-.049-.146-.1a4.545,4.545,0,0,1-.6-1.151" transform="translate(-5412.675 -618.395)" fill="#fefefe"/>
    <path id="Trazado_12650" data-name="Trazado 12650" d="M5697.484,1219.957l.067,1.473-4.419.2.067.87c-.23-.059-.975.2-1.109,0-.091-.13-.063-1.97-.1-2.28Z" transform="translate(-5564.915 -1192.72)" fill="#fefefe"/>
    <path id="Trazado_12651" data-name="Trazado 12651" d="M5066.977,2233.056l1.689,3.934c.2.122.717-.354.856-.254l.409.963-2.048.907-2.229-4.932c-.014-.14.3-.244.415-.3a3.227,3.227,0,0,1,.908-.318" transform="translate(-4952.558 -2183.195)" fill="#fefefe"/>
    <path id="Trazado_12652" data-name="Trazado 12652" d="M4976.837,2272.192l-1.613-5.247,1.31-.429,1.641,5.177c0,.093-.045.116-.115.156a7.74,7.74,0,0,1-1.223.343" transform="translate(-4864.148 -2215.914)" fill="#fefefe"/>
    <path id="Trazado_12653" data-name="Trazado 12653" d="M4181.747,201.192c.268-.024,1.95,4.388,2.288,4.859.029.086,0,.125-.057.185-.04.042-1,.484-1.055.492-.214.03-.258-.2-.342-.368-.726-1.464-1.293-3.019-2.008-4.49a.141.141,0,0,1,.057-.184c.05-.039,1.056-.489,1.117-.494" transform="translate(-4087.225 -196.7)" fill="#fefefe"/>
    <path id="Trazado_12654" data-name="Trazado 12654" d="M3987.061,2178.391a.8.8,0,1,1,.557,1.493.8.8,0,0,1-.557-1.493" transform="translate(-3897.559 -2129.724)" fill="#fdfdfe"/>
    <path id="Trazado_12655" data-name="Trazado 12655" d="M5389.831,2118.93a.8.8,0,1,1,.237,1.577.8.8,0,0,1-.237-1.577" transform="translate(-5268.929 -2071.601)" fill="#fdfefe"/>
    <path id="Trazado_12656" data-name="Trazado 12656" d="M4576.214,255c-.1.1-.065.216-.067.335-.139-.137-.042-.413-.066-.6.111-.02.093.173.133.267" transform="translate(-4473.905 -249.046)" fill="#5283b1"/>
    <path id="Trazado_12657" data-name="Trazado 12657" d="M3865.611,608.487c-.017.008-.054.146-.133.134-.038-.122.061-.12.066-.134Z" transform="translate(-3779.169 -594.902)" fill="#4a85b1"/>
    <path id="Trazado_12658" data-name="Trazado 12658" d="M4064.949,1363.121l6.114-4,6.136,4-1.88-6.863a27.259,27.259,0,0,1,2.386-1.833l7.194.028c2.273,4.718-.516,9.139-4.686,11.446-2.922,1.616-6.437,2.074-9.139,4.1-3-2.21-6.849-2.6-9.977-4.6-3.73-2.383-6-6.655-3.849-10.944,2.438-.05,4.884-.079,7.318.049l2.194,1.756.05.321Z" transform="translate(-3965.854 -1324.172)" fill="#e30c19"/>
    <path id="Trazado_12659" data-name="Trazado 12659" d="M4112.592,771.537h-6.159l2.009-1.74h-6.829l-2.577-6.759-2.544,6.759h-6.8l2.075,1.74h-6.159a10.014,10.014,0,0,0,.879-2.032,7.988,7.988,0,0,0-.733-4.973,9.2,9.2,0,0,1-.672-1.312l3.672-4.366c2,.777,4.156,1.783,6.363,1.343,1.182-.236,2.247-1.065,3.447-1.172,1.826-.164,2.489.6,4.035,1.051,2.294.664,4.676-.331,6.755-1.242l3.76,4.382c-1.51,2.563-2.363,5.673-.525,8.322" transform="translate(-3993.882 -741.891)" fill="#005091"/>
    <path id="Trazado_12660" data-name="Trazado 12660" d="M4963.348,186.446l.969-3.545c.142.09.325.157.3.358-.2.466-.62,2.928-.9,3.126a.544.544,0,0,1-.373.061" transform="translate(-4852.537 -178.818)" fill="#025192"/>
    <path id="Trazado_12661" data-name="Trazado 12661" d="M4164.412,2246.548a.207.207,0,0,1,.058.145,22.4,22.4,0,0,1-1.165,2.422c-.079.135-.3.543-.416.594a.483.483,0,0,1-.33-.04c-.105-.143,1.42-2.762,1.547-3.166.032-.161.23-.044.306.044" transform="translate(-4069.621 -2196.27)" fill="#025192"/>
    <path id="Trazado_12662" data-name="Trazado 12662" d="M3599.42,916.361c-.38-.2-3.4-1.123-3.412-1.3-.007-.1.193-.3.348-.289a16.686,16.686,0,0,1,2.078.741c.4.161,1.22.317.987.854" transform="translate(-3515.724 -894.344)" fill="#025192"/>
    <path id="Trazado_12663" data-name="Trazado 12663" d="M5660.512,917.219c.232.484-.4.664-.784.788-.292.094-.58.163-.687-.22a6.409,6.409,0,0,1,1.472-.568" transform="translate(-5532.697 -896.741)" fill="#055393"/>
    <path id="Trazado_12664" data-name="Trazado 12664" d="M5761.907,881.272c.274.5-.9.953-1.076.691-.036-.055-.089-.237-.057-.283a7.427,7.427,0,0,1,1.133-.408" transform="translate(-5632.15 -861.597)" fill="#065393"/>
    <path id="Trazado_12665" data-name="Trazado 12665" d="M3776.92,595.891c-.052.036-.862-.7-1-.77.179-.565,1.079.209,1.13.415a1.069,1.069,0,0,1-.128.354" transform="translate(-3691.617 -581.636)" fill="#085494"/>
    <path id="Trazado_12666" data-name="Trazado 12666" d="M4369.438,188.476c.225-.068.33.27.385.415a24.11,24.11,0,0,1,.857,3.1c-.022.246-.176.333-.344.136a2.608,2.608,0,0,1-.215-.588,22.088,22.088,0,0,1-.791-2.829c0-.082.02-.206.108-.233" transform="translate(-4271.781 -184.259)" fill="#025192"/>
    <path id="Trazado_12667" data-name="Trazado 12667" d="M5712.261,1082.708c.368.057.393.29.028.437a21.819,21.819,0,0,1-3.205.681c-.239.019-.51-.063-.329-.332.12-.179,3.073-.644,3.506-.786" transform="translate(-5581.244 -1058.536)" fill="#025192"/>
    <path id="Trazado_12668" data-name="Trazado 12668" d="M3937.792,473.6h.067c.469.433.953.852,1.4,1.3l-.368.3a17.926,17.926,0,0,1-1.1-1.6" transform="translate(-3849.877 -463.027)" fill="#095694"/>
    <path id="Trazado_12669" data-name="Trazado 12669" d="M3931.569,464.734h-.067c-.014-.023-.1-.008-.066-.134.081-.005.1.1.133.134" transform="translate(-3843.654 -454.227)" fill="#96a8c8"/>
    <path id="Trazado_12670" data-name="Trazado 12670" d="M3934.928,470.67h-.067c-.015-.024-.052-.042-.067-.067h.067c.023.021.044.046.067.067" transform="translate(-3846.946 -460.096)" fill="#6589b4"/>
  </g>
</svg>
