<svg id="arauco" xmlns="http://www.w3.org/2000/svg" xmlns:xlink="http://www.w3.org/1999/xlink" width="140" height="22.089" viewBox="0 0 140 22.089">
  <defs>
    <clipPath id="clip-path">
      <rect id="Rectángulo_126" data-name="Rectángulo 126" width="140" height="22.089" fill="none"/>
    </clipPath>
  </defs>
  <g id="Grupo_1724" data-name="Grupo 1724" clip-path="url(#clip-path)">
    <path id="Trazado_12671" data-name="Trazado 12671" d="M69.483,16.826V.345h6.428v14.93h7.035V.345h6.428V21.719H74.382Zm68.36-5.781A11.143,11.143,0,1,1,126.7,0a11.087,11.087,0,0,1,11.143,11.045m-6.468,0c0-3.031-1.981-5.142-4.674-5.142s-4.674,2.112-4.674,5.142,1.981,5.142,4.674,5.142,4.674-2.111,4.674-5.142m-26.663,5.142c-2.693,0-4.674-2.112-4.674-5.142S102.018,5.9,104.712,5.9A4.476,4.476,0,0,1,108.929,8.7l4.514-4.515a11.164,11.164,0,0,0-19.874,6.863,11.166,11.166,0,0,0,19.876,6.863l-4.515-4.516a4.478,4.478,0,0,1-4.218,2.794M32.462,4.365V.345H25.993v21.4h6.469V6.763h9.327V.345H36.473ZM16.347.345h5.182v21.4H16.35l-2.044-2.042v0a7.786,7.786,0,0,1-5.472,2.378C3.952,22.088,0,17.141,0,11.048S3.952,0,8.834,0a7.794,7.794,0,0,1,5.472,2.387h0ZM15.064,7.707a4.279,4.279,0,0,0-3.64-1.795A4.818,4.818,0,0,0,6.5,11.047a4.82,4.82,0,0,0,4.921,5.142,4.283,4.283,0,0,0,3.64-1.8ZM59.754.345h5.182v21.4H59.758l-2.044-2.042v0a7.786,7.786,0,0,1-5.472,2.378c-4.882,0-8.834-4.947-8.834-11.04S47.36,0,52.241,0a7.794,7.794,0,0,1,5.472,2.387h0ZM58.471,7.707a4.279,4.279,0,0,0-3.64-1.795,4.818,4.818,0,0,0-4.92,5.135,4.819,4.819,0,0,0,4.92,5.142,4.283,4.283,0,0,0,3.64-1.8ZM140,21.01a1.079,1.079,0,1,0-1.078,1.079A1.079,1.079,0,0,0,140,21.01m-.208,0a.871.871,0,1,1-.87-.871.872.872,0,0,1,.87.871m-1.08.587v-.463h.255a.2.2,0,0,1,.165.051.357.357,0,0,1,.028.173.85.85,0,0,0,.027.239h.273v-.032a.07.07,0,0,1-.046-.061,1.225,1.225,0,0,1-.008-.174.443.443,0,0,0-.038-.217.23.23,0,0,0-.111-.082.251.251,0,0,0,.133-.1.324.324,0,0,0,.05-.176.334.334,0,0,0-.068-.206.358.358,0,0,0-.3-.128h-.6V21.6Zm0-.977h.307c.116,0,.173.052.173.155s-.064.162-.19.162h-.29Z" fill="#534b44"/>
  </g>
</svg>
