<svg id="banco-chile" xmlns="http://www.w3.org/2000/svg" xmlns:xlink="http://www.w3.org/1999/xlink" width="140" height="21.983" viewBox="0 0 140 21.983">
  <defs>
    <clipPath id="clip-path">
      <rect id="Rectángulo_127" data-name="Rectángulo 127" width="140" height="21.983" fill="none"/>
    </clipPath>
  </defs>
  <g id="Grupo_1725" data-name="Grupo 1725" clip-path="url(#clip-path)">
    <path id="Trazado_12672" data-name="Trazado 12672" d="M5.817.027a4.891,4.891,0,0,1,1.028,0A15.245,15.245,0,0,1,8.708.361c.47.1,1.4.355,1.4.355a1.147,1.147,0,0,0,.439,0A1.438,1.438,0,0,0,11.086.5.652.652,0,0,1,11.3.609L7.01,3.581C6.485,3.945,5.7,4.606,5.7,4.982v7.3L1.467,15.146c.062-.4.6-.761.6-1.328V6.446c0-.572,4.076-2.645,4.076-3.237,0-.294-.776-.565-1.214-.752a4.419,4.419,0,0,0-1.178-.3,7.49,7.49,0,0,0-1.849,0c-.648.08-1.607.49-1.9.475A22.276,22.276,0,0,1,3.169.689,10.034,10.034,0,0,1,5.817.027m8.689.158c.656,0,1.049.684,2.175,2.124.279.352,1.576,1.9,1.576,2.65v.587c0,1.511-4.076,3.028-4.076,3.656,0,.434,2.144.23,3.1.853a3.3,3.3,0,0,1,1.3,2.543v1.808c0,1.077-1.514,1.486-3.368,2.864a37.572,37.572,0,0,1-3.8,2.441s-1.439-.746-2.2-1.022a12.1,12.1,0,0,0-2.528-.679,8.409,8.409,0,0,0-2.066,0c-1.072.125-2.986.746-3.151.746a14.425,14.425,0,0,1,2.586-1.886,11.508,11.508,0,0,1,3.882-1.193,7.289,7.289,0,0,1,2.17,0,16.166,16.166,0,0,1,2.392.745V2.943a.445.445,0,0,0-.434-.368c-.6,0-1.033,1.072-1.033,1.113V11.7L6.3,15.146a.679.679,0,0,1,.108-.276c.324-.417.491-.521.491-.889v-8.7a35.158,35.158,0,0,1,3.585-2.762C11.773,1.655,13.571.186,14.506.186M13.261,3.847S15,5.7,15,6.818c0,.848-.666,1.179-1.736,1.8Zm0,6.26c.165.041,1.137.613,1.137,1.011v6.1h-.217c-.341,0-.92-.26-.92-.582ZM54.771,7.824,58.63,9.683v8.17L54.988,19.6,51.077,17.96V9.417Zm-17.823-.24,2.335,2.277v7.005l1.085,1.062-1.793,1.7-1.9-1.751V11.347a13.978,13.978,0,0,0-1.41-1.22L33.956,11.3v5.622l.982.955-1.849,1.751L31.4,18.036V10.98a11.361,11.361,0,0,1-1.142-1.062l2.283-2.282L34.773,9.7Zm8.963.3,4.241,1.751A7.238,7.238,0,0,1,48.194,10.9s-3.461-1.322-3.534-1.327v6.9l2.914,1.414a14.323,14.323,0,0,1,2.087-.567,1,1,0,0,0,.217,0v.158L46.567,19.6h-.439l-4.184-1.859V9.734ZM24.5,7.686c2.64,1.292,3.8,1.45,3.8,2.017v6.791l1.684,1.644-1.576,1.486c-1.152-.919-1.576-1.322-1.576-1.322l-2.893,1.414L19.993,17.95V13.471l3.859-1.859,2.118.853V10.607L22.586,9.458l-1.7.2-.078-.271ZM53.6,9.417l2.526,1.169v7.266l-2.557-1.113ZM22.385,13.155l3.585,1.751v3.288l-3.585-1.629ZM71.891,2.9a9.7,9.7,0,0,1,2.066.848c.641.311,1.792.551,1.792,1.113V18.016L72.165,19.66,68.2,17.806V9.474L72,7.829c.134.015,1.359.48,1.359.48V5.654L70.186,4.332c-.517.031-1.126.516-1.746.623l.134-.521A23.172,23.172,0,0,1,71.891,2.9M81.944,7.778,85.478,11.6,80.312,15.31v1.011a21.018,21.018,0,0,0,3.043,1.568s1.508-1.006,2.175-.613c-.036.046-3.642,2.333-3.642,2.333l-3.854-1.644V9.581ZM70.7,9.422l2.6,1.164v7.271h-.052L70.7,16.744Zm9.671.158,2.588,2.65-2.588,1.859Zm49.015,7.388.976.9-1.958,1.8-1.843-1.8V5.664l2.826-2.7ZM114.33,2.621v7.69L117.156,7.6l2.118,2.073v9.758l-2.66,2.548h-.057V11l-1.033-.955-1.194,1.011v5.78l1.033.955v.056l-1.9,1.854-1.85-1.8V5.271l2.718-2.6Zm8.1,0h.057l1.845,1.8v.051l-1.9,1.859-1.9-1.859ZM135.8,7.9c.1,0,3.533,3.666,3.585,3.819l-5.161,3.554V16.7L137.143,18a5.532,5.532,0,0,0,2.076-.659l.78.189c-.067.1-3.591,2.2-4.2,2.2a21.155,21.155,0,0,1-3.859-1.7V9.913c0-.363,3.849-2.017,3.859-2.017M122.482,7.6h.052l1.684,1.644v7.537l1.033.955L123.3,19.594l-1.849-1.8V10.26l-.868-.8ZM134.27,9.7l2.475,2.487-2.459,1.547Zm-30.506-8.41a.385.385,0,0,1,.27-.03,9.684,9.684,0,0,1-2,1.372,12.367,12.367,0,0,0-2.244,1.707,10.951,10.951,0,0,0-2.261,2.991,6.3,6.3,0,0,0-.451,3.09,7.664,7.664,0,0,0,3.2,5.326,8.933,8.933,0,0,0,3.642,1.22,7.866,7.866,0,0,0,1.643-.037V3.959c0-.158-.4-1-.775-1-.109,0-.269.194-.269.317v8.859c0,.332-.316.807-1.85,1.8-1.57,1.021-2.055,1.363-2.226,1.327.036-.1.377-.366.377-.531V5.5c0-.909,1.364-1.445,2.558-2.333a13.524,13.524,0,0,1,2.85-1.732,2.32,2.32,0,0,1,.678-.071c1.306.005,2.123,1.537,2.284,1.7a1.33,1.33,0,0,0,1.25.265,3.161,3.161,0,0,1,1.085-.265c-.878.751-3.745,2.5-3.745,2.5a.59.59,0,0,1-.434,0c-.311-.117-.512-.3-.873-.48V16.749a6.754,6.754,0,0,0,1.409-.64,10.566,10.566,0,0,0,1.146-.787c.116-.091.166-.127.271-.217a.136.136,0,0,1,.165,0c.088.088.031.252,0,.373a4.271,4.271,0,0,1-.816,1.486,7.045,7.045,0,0,1-1.2,1.148,7.838,7.838,0,0,1-5.107,1.7c-4.748.031-8.111-3.324-8.472-8.527-.362-5.177,3.374-9.436,7.77-9.712.64-.036,1.425.01,1.524,0A2.851,2.851,0,0,0,103.765,1.288Z" transform="translate(0 0)" fill="#002464" fill-rule="evenodd"/>
  </g>
</svg>
