<svg id="bci" xmlns="http://www.w3.org/2000/svg" xmlns:xlink="http://www.w3.org/1999/xlink" width="113.916" height="50" viewBox="0 0 113.916 50">
  <defs>
    <clipPath id="clip-path">
      <rect id="Rect치ngulo_129" data-name="Rect치ngulo 129" width="113.916" height="50" fill="none"/>
    </clipPath>
  </defs>
  <g id="Grupo_1727" data-name="Grupo 1727" clip-path="url(#clip-path)">
    <path id="Trazado_12673" data-name="Trazado 12673" d="M555.479,120.187a14.6,14.6,0,0,1,12.006,4.445l-4.593,4.808c-2.078-1.961-4.357-3.138-7.3-2.621-7.5,1.318-8.573,12.073-1.94,15.369a7.7,7.7,0,0,0,8.871-1.548l4.6,4.495c.073.28-.84.985-1.1,1.2-8.909,7.333-22.112,1.553-23.441-9.714-.939-7.959,4.781-15.71,12.891-16.428" transform="translate(-463.727 -102.684)"/>
    <path id="Trazado_12674" data-name="Trazado 12674" d="M73.839,23.17a1.444,1.444,0,0,1,1.082.515l1.842.764c.823.329,1.819,1.25.8,1.98-.344.2-.709.384-1.047.582a4.3,4.3,0,0,1-3.775-.179c-.706-.292-1.861-.8-2.159-1.45C65.074,22.008,55.019,13.43,55.836,6.272c.738-6.47,9.375-8.591,13.047-3.221,2.283,3.337.734,5.763.529,9.235-.258,4.381.816,8.239,4.427,10.884" transform="translate(-47.689 0)" fill="#0072bc"/>
    <path id="Trazado_12675" data-name="Trazado 12675" d="M28.827,176.447c-5.694,3.332-16.925,8.827-18.236,15.8-.361,1.919.155,3.351-1.2,5.085-3.9,5-12.08.4-8.511-6.417,3.252-6.211,10.913-9.758,16.778-12.893a51.03,51.03,0,0,0,5.234-3.2c1.886,1.155,3.587,2.161,5.934,1.629" transform="translate(-0.001 -149.437)" fill="#ee2c43"/>
    <rect id="Rect치ngulo_128" data-name="Rect치ngulo 128" width="6.749" height="28.857" transform="translate(106.902 17.468)"/>
    <path id="Trazado_12676" data-name="Trazado 12676" d="M183.839,68.72c.994-1.53-1.746-1.977-2.754-2.54a9.386,9.386,0,0,1-.969-.718c2.522-2.026,5.641-5.019,6.459-8.26.474-1.877-.012-3.375,1.011-5.156,3.157-5.5,12.481-1.515,8.958,5.7-2.4,4.916-8.175,8.326-12.7,10.975" transform="translate(-153.966 -42.292)" fill="#ee2c43"/>
    <path id="Trazado_12677" data-name="Trazado 12677" d="M110.662,216.439c5.844-.666,6.465,5.932,2.936,9.336-2.049,1.976-5.224,2.93-7.989,3.3-1.958.261-6.217.645-7.488-1.205-.6-.867-.248-2.581.256-3.467,1.593-2.8,9.084-7.6,12.285-7.962" transform="translate(-83.607 -184.976)" fill="#ffda00"/>
    <path id="Trazado_12678" data-name="Trazado 12678" d="M209.63,186.083c.918-.2,2.959,1.123,3.771,1.648,3.483,2.25,11.41,8.876,7.607,13.456a4.272,4.272,0,0,1-7.492-3.3c.242-2.72,1.027-4.5-.547-7.161-1.1-1.855-1.917-1.738-3.464-2.7-.766-.478-.713-1.752.125-1.937" transform="translate(-178.625 -159.049)" fill="#009a4f"/>
    <path id="Trazado_12679" data-name="Trazado 12679" d="M737.475,48.869c5.318-.777,5.879,6.8,1.121,7.287-4.779.491-5.486-6.65-1.121-7.287" transform="translate(-627.924 -41.726)"/>
    <path id="Trazado_12680" data-name="Trazado 12680" d="M370.832,86.236a9.81,9.81,0,0,0-3.843-7.209,10.523,10.523,0,0,0,2.521-9.5c-1.073-5.943-5.92-7.872-11.42-8.128-4.5-.21-9.162.167-13.677,0V98.75h14.6c7.807-.43,12.341-4.39,11.817-12.513m-19.67-18.2h7.04a5.913,5.913,0,0,1,3.139,1.05c1.491,1.247,1.457,4.491.177,5.873a5.076,5.076,0,0,1-2.85,1.222h-7.505Zm11.226,22.8a6.755,6.755,0,0,1-3.488,1.282h-7.738V82.809h8.32a6.435,6.435,0,0,1,2.79,1.05c1.817,1.47,1.849,5.43.117,6.976" transform="translate(-294.41 -52.425)"/>
  </g>
</svg>
