<svg id="blindatek" xmlns="http://www.w3.org/2000/svg" xmlns:xlink="http://www.w3.org/1999/xlink" width="140" height="28.74" viewBox="0 0 140 28.74">
  <defs>
    <clipPath id="clip-path">
      <rect id="Rectángulo_130" data-name="Rectángulo 130" width="140" height="28.741" fill="none"/>
    </clipPath>
  </defs>
  <g id="Grupo_1729" data-name="Grupo 1729" clip-path="url(#clip-path)">
    <path id="Trazado_12681" data-name="Trazado 12681" d="M1241.15,20.881a38.664,38.664,0,0,1,10.119,1.346V36.488a5.8,5.8,0,0,1-1.23,2.9c-1.677,2.4-4.667,4.622-8.889,6.612-4.222-1.989-7.212-4.214-8.889-6.612a5.784,5.784,0,0,1-1.229-2.912V22.227a38.665,38.665,0,0,1,10.119-1.346m-10.119.053h0" transform="translate(-1129.652 -19.161)" fill="#de1a23"/>
    <path id="Trazado_12682" data-name="Trazado 12682" d="M1275.819,97.378v-1.7h12.859v1.7h-12.859Zm11.214,2.283h-11.214v1.525h11.214Zm-11.214,5.718h12.859v-1.7h-12.859Z" transform="translate(-1170.751 -87.797)" fill="#fff"/>
    <path id="Trazado_12683" data-name="Trazado 12683" d="M0,7.879H9.223c2.429,0,3.273.669,3.273,2.589,0,1.251-.378,1.848-1.295,2.051,1.178.16,1.658.815,1.658,2.269,0,2.007-.9,2.793-3.215,2.793H0Zm8.35,3.986a3.284,3.284,0,0,0,1.484-.175,1,1,0,0,0,.422-.931,1.043,1.043,0,0,0-.465-1,2.478,2.478,0,0,0-1.222-.189H2.2v2.3Zm.48,4.03c1.353,0,1.76-.291,1.76-1.266a1.173,1.173,0,0,0-.451-1.062,3.3,3.3,0,0,0-1.455-.189H2.2v2.517Zm7.638-8.015h2.24v7.884h8.423v1.818H16.468Zm14.419,0h2.24v9.7h-2.24Zm5.954,0h3.477l7.288,8.074-.044-8.074H49.7v9.7H46.209l-7.244-8.03.044,8.03H36.841Zm16.573,0H61.75c1.847,0,3.04.349,3.695,1.062.6.669.829,1.76.829,3.9,0,2.167-.276,3.229-1.018,3.913a4.742,4.742,0,0,1-3.273.829H53.415Zm8.073,7.928a3.525,3.525,0,0,0,1.717-.32c.567-.305.8-1.047.8-2.546,0-2.691-.422-3.229-2.517-3.229H55.655v6.1ZM88.4,9.7H83.086V7.879H95.945V9.7h-5.3v7.884H88.4ZM127.05,7.879h2.24v3.869h-.033l6.7-3.869h3.559l-8.269,4.771L140,17.582h-3.7l-7.081-4.044h.076v4.044h-2.24Zm-49.367,0h-3.04l-5.557,9.7H71.6l1.951-3.491h-.01l2.6-4.64,2.633,4.64h-.026l1.961,3.491h2.444ZM111.5,1.72a38.665,38.665,0,0,1,10.119,1.346V17.327a5.8,5.8,0,0,1-1.23,2.9c-1.677,2.4-4.668,4.622-8.889,6.612-4.222-1.989-7.212-4.214-8.889-6.612a5.784,5.784,0,0,1-1.23-2.912V3.066A38.665,38.665,0,0,1,111.5,1.72m-10.119.053h0M111.5,0A40.421,40.421,0,0,0,99.659,1.772V17.319a7.21,7.21,0,0,0,1.54,3.9c1.875,2.681,5.153,5.126,9.743,7.265l.555.259.555-.259c4.59-2.139,7.868-4.584,9.743-7.265a7.212,7.212,0,0,0,1.54-3.9V1.772A40.421,40.421,0,0,0,111.5,0" fill="#141414"/>
  </g>
</svg>
