<svg xmlns="http://www.w3.org/2000/svg" xmlns:xlink="http://www.w3.org/1999/xlink" width="100.087" height="50" viewBox="0 0 100.087 50">
  <defs>
    <clipPath id="clip-path">
      <rect id="Rectángulo_124" data-name="Rectángulo 124" width="100.087" height="50" transform="translate(0 0)" fill="none"/>
    </clipPath>
  </defs>
  <g id="camara-chileno-alemana" transform="translate(0 0.003)">
    <g id="Grupo_1722" data-name="Grupo 1722" transform="translate(0 -0.003)" clip-path="url(#clip-path)">
      <path id="Trazado_12594" data-name="Trazado 12594" d="M3484.748.007h49.992V50c-16.662-.018-33.33.025-49.992,0a3.986,3.986,0,0,1,.09-1.018,97.15,97.15,0,0,0,2.973-14.531A83.914,83.914,0,0,0,3484.759.494Z" transform="translate(-3434.653 -0.007)" fill="#004c88"/>
      <path id="Trazado_12595" data-name="Trazado 12595" d="M50.095,0a76.126,76.126,0,0,1,2.539,9.959A88.093,88.093,0,0,1,52.855,38.3a85.222,85.222,0,0,1-2.76,11.692,2.431,2.431,0,0,0-.455-.107c-16.546-.027-33.095.029-49.64,0V0H50.095" transform="translate(0 0.003)" fill="#d1dce9"/>
      <path id="Trazado_12596" data-name="Trazado 12596" d="M5926.521,669.316l4.678-5.248a7.735,7.735,0,0,1,1.236-1.13h3.137l-.159.612-4.548,5.1,4.936,7.9c.524.944-1.825.753-2.328.682-.693-.1-.987-.718-1.337-1.234-1.131-1.661-2.027-3.5-3.2-5.134l-2.4,2.643c-.165.723.233,3.015-.222,3.481-.411.422-2.888.531-2.684-.617l.03-12.838c.077-.424.218-.543.642-.592s2.214-.139,2.214.465Z" transform="translate(-5838.469 -653.372)" fill="#fefefe"/>
      <path id="Trazado_12597" data-name="Trazado 12597" d="M4925.524,668.527h5.76v-5.5c0-.467,1.864-.411,2.217-.365a.6.6,0,0,1,.558.471l.009,13.067a.621.621,0,0,1-.317.608,9.456,9.456,0,0,1-2.087.034.994.994,0,0,1-.379-.443v-5.5h-5.76v5.5a1.963,1.963,0,0,1-.25.368,7.026,7.026,0,0,1-2.06.086c-.469-.066-.532-.435-.577-.86l.03-12.737c.142-.424.185-.54.643-.59.437-.047,2.213-.167,2.213.463Z" transform="translate(-4851.873 -653.097)" fill="#fefefe"/>
      <path id="Trazado_12598" data-name="Trazado 12598" d="M3940.136,673.823c-.223.689-.732,3.059-1.247,3.434a4.861,4.861,0,0,1-2.417.056.63.63,0,0,1-.141-.361l4.435-13.043c.094-.256.366-.635.648-.689a16.839,16.839,0,0,1,2.445.019c.414.12.646.982.795,1.365,1.542,3.991,2.664,8.274,4.173,12.291a.475.475,0,0,1-.162.467,10.381,10.381,0,0,1-2,.044c-1.085-.171-1.123-2.842-1.769-3.58Z" transform="translate(-3879.745 -653.651)" fill="#fefefe"/>
      <path id="Trazado_12599" data-name="Trazado 12599" d="M612.453,585.713l-.072.206-19.519,0c-12.069.695-12.209,18.817-.2,19.759l19.666,0,.128.206a49.151,49.151,0,0,1-.007,5.5,1.594,1.594,0,0,1-1.288,1.181l-30.544.011a1.7,1.7,0,0,1-1.391-1.8V581.028a1.7,1.7,0,0,1,1.595-1.7l30.342.011a1.835,1.835,0,0,1,1.271,1.1c.058,1.757,0,3.519.022,5.276" transform="translate(-570.896 -571.003)"/>
      <path id="Trazado_12600" data-name="Trazado 12600" d="M906.393,1022.955a.822.822,0,0,1,.11.348c.023,1.632-.033,3.268-.007,4.9l-8.333.1.206.07.024,9.291h7.875l.124.206c0,1.725.021,3.516,0,5.246l-19.806,0c-12.195-.933-12.241-19.379.206-20.17Z" transform="translate(-864.836 -1008.246)" fill="#fefefe"/>
      <path id="Trazado_12601" data-name="Trazado 12601" d="M2318.363,1395.3h8.229c.005,3.187-.009,6.38,0,9.567h-8.23Z" transform="translate(-2285.035 -1375.245)" fill="#fcc400"/>
      <path id="Trazado_12602" data-name="Trazado 12602" d="M4246.431,899.317h-3.189l1.594-4.938Z" transform="translate(-4182.244 -881.522)" fill="#004c89"/>
      <path id="Trazado_12603" data-name="Trazado 12603" d="M1245.052,1395.34v9.566h-6.12c-5.058,0-6.028-7.686-1.594-9.308.13-.048.71-.258.771-.258Z" transform="translate(-1216.764 -1375.281)" fill="#e20613"/>
    </g>
  </g>
</svg>
