<svg xmlns="http://www.w3.org/2000/svg" xmlns:xlink="http://www.w3.org/1999/xlink" width="140" height="73.469" viewBox="0 0 140 73.469">
  <defs>
    <clipPath id="clip-path">
      <rect id="Rectángulo_123" data-name="Rectángulo 123" width="140" height="73.469" transform="translate(0 0)" fill="none"/>
    </clipPath>
  </defs>
  <g id="cencosud" transform="translate(0 -0.002)">
    <g id="Grupo_1721" data-name="Grupo 1721" transform="translate(0 0.002)" clip-path="url(#clip-path)">
      <path id="Trazado_12583" data-name="Trazado 12583" d="M1540.544.031a37.147,37.147,0,0,1,17.911,5.633c.306.191,1.959,1.391,2.083,1.413.075.013,1.143-.52,1.407-.6,4.228-1.205,8.511,2.893,7.242,7.164a8.824,8.824,0,0,0-.551,1.486,39.16,39.16,0,0,1,4.872,9.086h-4.724a39.059,39.059,0,0,0-3.564-6.226c-.211-.156-1.115.189-1.472.217a5.913,5.913,0,0,1-6.162-4.616,6.621,6.621,0,0,1,.094-3.2,36.739,36.739,0,0,0-6.289-3.471,32.209,32.209,0,0,0-39.71,12.761,45.324,45.324,0,0,0-2.385,4.538h-4.654a37.418,37.418,0,0,1,13.066-17.254A36.823,36.823,0,0,1,1537.6.031c.926-.038,2.014-.039,2.939,0" transform="translate(-1468.922 -0.002)" fill="#007cbf"/>
      <path id="Trazado_12584" data-name="Trazado 12584" d="M.024,1194.485A8.511,8.511,0,0,1,14.232,1189a13.393,13.393,0,0,0,1.544,1.544l-2.7,2.825c-1.679-1.883-3.565-3.33-6.231-2.377-5.048,1.8-3.02,9.576,2.443,8.662,1.683-.282,2.639-1.528,3.788-2.647.295.367,2.7,2.567,2.7,2.76a9.9,9.9,0,0,1-5.391,3.635,8.47,8.47,0,0,1-10.359-7.515,10.17,10.17,0,0,1,0-1.4" transform="translate(0 -1158.594)" fill="#007cbf"/>
      <path id="Trazado_12585" data-name="Trazado 12585" d="M1497.605,2080.271a31.571,31.571,0,0,0,10.756,13.619,32.224,32.224,0,0,0,43.553-5.406,30.269,30.269,0,0,0,4.971-8.212h4.829a36.955,36.955,0,0,1-20.039,21.124,36.558,36.558,0,0,1-41.272-8.784,38.8,38.8,0,0,1-7.557-12.34Z" transform="translate(-1457.408 -2030.888)" fill="#007cbf"/>
      <path id="Trazado_12586" data-name="Trazado 12586" d="M3672.544,1185.044v3.985h-10.533a1.861,1.861,0,0,0-.626.493,1.293,1.293,0,0,0,.974,2.026c4.085.35,10.034-1.5,11.581,3.812.826,2.835-1.436,6.6-4.51,6.6h-10.6v-3.915h10.253a1.822,1.822,0,0,0,.772-.417,1.283,1.283,0,0,0-.84-2.172c-2.471-.217-6.891.551-8.973-.545a5.218,5.218,0,0,1,.779-9.591,7.344,7.344,0,0,1,1.122-.277Z" transform="translate(-3570.408 -1156.913)" fill="#007cbf"/>
      <path id="Trazado_12587" data-name="Trazado 12587" d="M1439.025,1204.9h-3.989v-8.983a4.626,4.626,0,0,0-.982-2.3,4.568,4.568,0,0,0-7.5.615,5.4,5.4,0,0,0-.548,1.55v9.123h-3.919v-9.052c.954-10.217,15.381-10.449,16.858-.341.169,3.123.037,6.264.079,9.393" transform="translate(-1388.33 -1159.848)" fill="#007cbf"/>
      <path id="Trazado_12588" data-name="Trazado 12588" d="M4427.176,1185.044v8.7c0,3.48,4.529,5.609,7.279,3.356a5.31,5.31,0,0,0,1.819-3.356v-8.7h3.85v9.472c0,1.59-1.615,4.273-2.8,5.314a8.441,8.441,0,0,1-14-5.521l0-9.265Z" transform="translate(-4318.32 -1156.913)" fill="#007bbf"/>
      <path id="Trazado_12589" data-name="Trazado 12589" d="M2192.585,1185.281a9.209,9.209,0,0,1,5.926,1.939c.709.569,1.241,1.327,1.925,1.92l-2.7,2.756a22.325,22.325,0,0,1-1.7-1.639,4.544,4.544,0,1,0-.864,7.528c1.031-.5,1.655-1.578,2.568-2.244l2.7,2.756a20.342,20.342,0,0,1-1.855,1.851,8.446,8.446,0,0,1-13.717-8.248,8.566,8.566,0,0,1,7.72-6.62" transform="translate(-2132.805 -1157.129)" fill="#007cbf"/>
      <path id="Trazado_12590" data-name="Trazado 12590" d="M3851.545,386.911a3.2,3.2,0,0,1-5.291-1.343,3.155,3.155,0,1,1,5.291,1.343" transform="translate(-3754.823 -372.506)" fill="#f9a41e"/>
      <path id="Trazado_12591" data-name="Trazado 12591" d="M5197.007,914.12v6.431c-2.6.108-5.3-.38-7.746.687a8.433,8.433,0,1,0,11.42,9.869l.315-1.468V914.12Zm0,15.484c0,1.432-1.687,3.276-3.012,3.7a4.55,4.55,0,0,1-4.932-7.233,4.778,4.778,0,0,1,2.8-1.537h5.144Z" transform="translate(-5060.996 -892.42)" fill="#007cbf"/>
      <path id="Trazado_12592" data-name="Trazado 12592" d="M718.55,1198.338l8.677-8.772a17.4,17.4,0,0,1-1.786-1.677,8.434,8.434,0,1,0-1.159,13.589,15.189,15.189,0,0,0,2.941-2.59l-2.76-2.821c-1.424,1.756-3.563,3.5-5.913,2.271m2.658-8.283-5.528,5.522a4.308,4.308,0,0,1,5.528-5.522" transform="translate(-694.589 -1157.659)" fill="#007cbf"/>
      <path id="Trazado_12593" data-name="Trazado 12593" d="M2902.757,1184.917a8.452,8.452,0,1,0,8.425,11.771,8.459,8.459,0,0,0-8.425-11.771m4.786,10.232c-2.037,4.912-9.779,2.746-8.516-2.984a4.522,4.522,0,1,1,8.516,2.984" transform="translate(-2826.25 -1156.765)" fill="#007bbf"/>
    </g>
  </g>
</svg>
