<svg xmlns="http://www.w3.org/2000/svg" xmlns:xlink="http://www.w3.org/1999/xlink" width="140" height="32.966" viewBox="0 0 140 32.966">
  <defs>
    <clipPath id="clip-path">
      <rect id="Rectángulo_122" data-name="Rectángulo 122" width="140" height="32.966" transform="translate(0 0)" fill="none"/>
    </clipPath>
  </defs>
  <g id="derco" transform="translate(0 0.002)">
    <g id="Grupo_1720" data-name="Grupo 1720" transform="translate(0 -0.002)" clip-path="url(#clip-path)">
      <path id="Trazado_12575" data-name="Trazado 12575" d="M896.194.148l9.246,16.122c-2.015,3.71-4.3,7.286-6.251,11.018L887.509,7.25,891.6.072a24.7,24.7,0,0,1,4.59.076" transform="translate(-868.077 0.002)" fill="#e0102c"/>
      <path id="Trazado_12576" data-name="Trazado 12576" d="M9.433,1.1H21.939c.011,0,.2.149.1.2L10.512,21.151l-.152.1c-2.114-.072-4.248-.109-6.365-.065-.453.009-1.587.326-1.881-.057C1.471,19.817.567,18.63,0,17.288L9.091,1.475Z" transform="translate(0 -1.076)" fill="#e0102c"/>
      <path id="Trazado_12577" data-name="Trazado 12577" d="M161.354,979.569l4.1,7.064-2.122,3.887c-5.988.113-11.989-.091-17.977.012-.546.009-.629.337-1.055-.269-1.784-3.41-3.965-6.619-5.775-10.01a1.972,1.972,0,0,1-.29-.684Z" transform="translate(-135.212 -958.122)" fill="#e0102c"/>
      <path id="Trazado_12578" data-name="Trazado 12578" d="M2887.3,740.907v3.28h-9.84v2.973h9.328v3.383h-9.328v3.178H2887.5V757.1h-15.17V740.958a1.021,1.021,0,0,1,.154-.154h14.555c.034,0,.156.136.256.1" transform="translate(-2809.443 -724.584)" fill="#e0102c"/>
      <path id="Trazado_12579" data-name="Trazado 12579" d="M4565.671,733.613c.04,3.518-2.77,5.228-5.922,5.712-7.134,1.1-13.725-.943-13.147-9.355.3-4.308,3.195-6.638,7.26-7.3,4.2-.679,11.752-.11,11.707,5.608l-5.061-.013c-.147-.051-.325-.812-.471-1.066-1.087-1.9-4.958-1.657-6.512-.459-2.256,1.739-2.281,6.452-.259,8.356,1.814,1.708,6.812,1.666,7.075-1.489Z" transform="translate(-4447.02 -706.631)" fill="#e0102c"/>
      <path id="Trazado_12580" data-name="Trazado 12580" d="M1900.821,739.6c-3.131-.21-7.321-.126-10.464.009-.353.015-.75-.169-1.174,0v16.2c3.339-.11,6.772.147,10.1,0,4.4-.191,8.42-1.721,9.245-6.537.907-5.288-2.423-9.31-7.709-9.665m-6.5,13.008-.015-9.929c.972.032,1.954-.039,2.926,0,3.023.11,5.913.625,6.2,4.255.486,6.121-4.568,5.755-9.112,5.678" transform="translate(-1847.82 -723.286)" fill="#e0102c"/>
      <path id="Trazado_12581" data-name="Trazado 12581" d="M5459.709,722.361c-6.033.3-9.936,3.332-9.4,9.746.561,6.671,7.947,8.09,13.417,7.088,4.093-.749,6.916-3.276,7.178-7.583.425-6.983-5.013-9.56-11.2-9.251m5.97,9.25c-.3,3.734-3.38,5.091-6.792,4.324-4.737-1.065-4.862-9.651.925-10.191,4.018-.375,6.185,1.866,5.867,5.867" transform="translate(-5330.931 -706.521)" fill="#e0102c"/>
      <path id="Trazado_12582" data-name="Trazado 12582" d="M3712.04,745.306a4.741,4.741,0,0,0-2.816-.824l1.708-.6c3.519-1.468,3.368-5.884-.278-7.138-3.554-1.222-9.989-.389-13.888-.457a1.043,1.043,0,0,1-.458-.111v16.3h5.022v-6.15h4.459c.048,0,.678.121.775.147,1.114.3,1.285.974,1.5,1.987.279,1.321.28,2.708.648,4.016h5.433c-.85-1.739-.668-5.925-2.1-7.173m-4.553-2.508a5.941,5.941,0,0,1-1.288.353h-4.869v-3.793l4.135.008a5.481,5.481,0,0,1,2.316.563,1.726,1.726,0,0,1-.294,2.869" transform="translate(-3615.378 -719.961)" fill="#e0102c"/>
    </g>
  </g>
</svg>
