<svg xmlns="http://www.w3.org/2000/svg" xmlns:xlink="http://www.w3.org/1999/xlink" width="125" height="33.724" viewBox="0 0 125 33.724">
  <defs>
    <clipPath id="clip-path">
      <rect id="Rectángulo_121" data-name="Rectángulo 121" width="125" height="33.724" transform="translate(0 0)" fill="none"/>
    </clipPath>
  </defs>
  <g id="dibam" transform="translate(0 0.003)">
    <g id="Grupo_1719" data-name="Grupo 1719" transform="translate(0 -0.003)" clip-path="url(#clip-path)">
      <path id="Trazado_12569" data-name="Trazado 12569" d="M4171.49,542.3c.1-.534-.134-1.455-.011-1.91.088-.329,6.078-1.286,6.688-1.173.967.179.643,1.467.68,2.26.01.207-.118.5.183.455,2.073-3.853,9.743-3.563,12.238-.371a14.12,14.12,0,0,1,.779,1.423c.443.686.469-.222.743-.628,1.854-2.75,4.218-3.435,7.484-3.179,4.1.321,6.9,2.795,6.9,7.079v12.416l2.76.183a6.385,6.385,0,0,1-.185,2.024h-6.438l-.177-14.261c-.335-6.335-9.322-5.876-10.291-.162l.01,11.915c.154.469,2.351.368,2.918.671-.273.315-.093,1.837-.185,1.837h-6.622c-.094-3.458.123-6.942.007-10.4a32.117,32.117,0,0,0-.387-5.131c-1.155-4.654-8.334-4.247-9.725,0l.027,12.272c.321,1.436,2.757.891,3.066,1.255.19.224-.087,1.6-.182,1.983l-10.2.035a4.761,4.761,0,0,1-.005-2.05c.456-.64,2.739.569,3.025-1.757.538-4.37-.363-9.679.031-14.151.04-.188-.133-.634-.285-.634Z" transform="translate(-4084.954 -527.929)"/>
      <path id="Trazado_12570" data-name="Trazado 12570" d="M1189.715,577.04a4.842,4.842,0,0,1,.222,1.434c.3,1.077,2.669.739,2.88,1.075.168.268-.066,1.561.026,2h-10.116v-2.208c.884-.008,2.6.07,2.742-1.023.575-4.577-.4-10.206.029-14.9.13-1.214-2.863-.814-3.112-1.211-.168-.268.066-1.56-.026-2h7.081a1.846,1.846,0,0,1,.276.276Z" transform="translate(-1157.807 -548.595)" fill="#e53228"/>
      <path id="Trazado_12571" data-name="Trazado 12571" d="M1288.944,124.351a2.771,2.771,0,0,1,4.5,2.564,2.714,2.714,0,1,1-5.28-1.232,3.708,3.708,0,0,1,.781-1.331" transform="translate(-1261.394 -121.139)" fill="#e6322c"/>
      <path id="Trazado_12572" data-name="Trazado 12572" d="M1789.261,12.073a9.131,9.131,0,0,0-4.186,1.976V2.369c0-1.444-1.544-1.471-2.62-1.332a44.883,44.883,0,0,0-5.271,1.258,14.94,14.94,0,0,0-.018,1.638h3.495V31.8c0,.911,3.369,2.083,4.193,2.245,6.3,1.236,12.3-.19,14.04-7,1.822-7.13-.4-16.671-9.633-14.967m4.679,17c-1.773,2.713-6.208,2.676-8.834,1.313l.1-13.354c1.41-1.679,5.46-2.026,7.232-1.064,3.665,1.991,3.51,10.027,1.5,13.1" transform="translate(-1740.292 -0.962)"/>
      <path id="Trazado_12573" data-name="Trazado 12573" d="M22.442,1.487A38.36,38.36,0,0,0,16.9.044C15.86-.064,14.691-.1,14.615,1.216l0,11.866L12.35,11.764C1.769,7.844-1.916,18.605.923,27.054c2.146,6.389,9.725,7.706,15.447,5.529.419-.159,2.479-1.248,2.479-1.567V2.966h3.4c.316,0,.39-1.177.191-1.479m-11.961,28.9C4.665,30.32,3.962,25,4.311,20.341c.181-2.419,1.3-5.287,4.005-5.743,1.6-.271,5.754.018,6.222,1.967l.081,12.428c-.165.889-3.32,1.4-4.138,1.394" transform="translate(0 0.004)"/>
      <path id="Trazado_12574" data-name="Trazado 12574" d="M3066.464,552.354c-.237-.317-2.784-.308-2.877-.655-.225-4.112.34-8.6.008-12.667-.374-4.572-3.309-6.414-7.632-6.715-1.977-.137-6.9.157-8.009,2.1-.57,1,.337,3.945.009,5.253l3.5.183V535.81c2.4-.838,7.687-.906,8.233,2.343a19.713,19.713,0,0,1,.019,3.609.416.416,0,0,1-.433.3c-3.005.33-6.391.372-9.334.966-3.176.64-4.277,2.992-3.98,6.092.665,6.925,7.871,7.052,12.546,3.762.246-.173.879-.869.956-.886.511-.115.843,1.8,1.007,2.205h5.886a7.533,7.533,0,0,0,.108-1.849m-6.729-3.025c-2.012,2.187-8.359,4.15-9.62.423-1.472-4.349,2.055-4.345,5.136-4.723,1.481-.181,2.99-.345,4.483-.391Z" transform="translate(-2982.763 -521.251)"/>
    </g>
  </g>
</svg>
