<svg id="figurella" xmlns="http://www.w3.org/2000/svg" xmlns:xlink="http://www.w3.org/1999/xlink" width="140" height="53.767" viewBox="0 0 140 53.767">
  <defs>
    <clipPath id="clip-path">
      <rect id="Rectángulo_120" data-name="Rectángulo 120" width="140" height="53.767" fill="none"/>
    </clipPath>
  </defs>
  <g id="Grupo_1718" data-name="Grupo 1718" clip-path="url(#clip-path)">
    <path id="Trazado_12564" data-name="Trazado 12564" d="M28.422,21.835a8.2,8.2,0,0,0,6.082-3.6,4.424,4.424,0,0,0,.6-1.25c0-.088-.025-.244-.108-.249s-1.025.895-1.24,1.049A9.772,9.772,0,0,1,28.534,19.4l.282-.64L36.956,4.066A47.6,47.6,0,0,0,52.048,1.351,15.438,15.438,0,0,0,54.076.5c.135-.081.484-.345.244-.5a65,65,0,0,1-20.8,2.107C27.9,1.661,22.326.41,16.679.259,12.64.15,8.308.848,5.26,3.7.682,7.974,1.675,15.526,8.141,17.071c3.653.873,10.117-.668,10.914-4.973.857-4.631-5.147-5.468-6.131-1.846a3.21,3.21,0,0,0,2.68,4.084c-2.965,2.621-8.121.654-8.845-3.2C5.719,5.61,11.75,3.534,16.094,2.931c5.372-.745,10.509.159,15.8.8.1.013.128-.039.107.109L23.733,18.7a18.644,18.644,0,0,1-2.4-.258c-5.182-.291-8.882,2.239-12.485,5.615-.112.223,0,.445.261.337,3.039-1.959,6.213-3.954,10.012-3.666l3.211.373-.058.274c-2.362,3.964-4.368,8.151-6.727,12.114-1.386,2.329-3.087,4.434-5.819,5.19-2.459.681-5.678.657-7.109-1.819-.115-.2-.493-.8-.086-.729.794.143.835.473,1.848.23a2.8,2.8,0,0,0,.905-5.2,3.522,3.522,0,0,0-5.271,2.9C-.2,37.586,2.348,40.023,5.54,40.877c6.711,1.8,11.976-2,15.249-7.539l6.3-11.429c.171-.153,1.025-.047,1.33-.074" transform="translate(0 -0.001)" fill="#e875ac"/>
    <path id="Trazado_12565" data-name="Trazado 12565" d="M670.224,214.214c-3.029.178-2.855,4.833.2,4.789,3.165-.046,3.074-4.981-.2-4.789" transform="translate(-630.547 -202.186)" fill="#e875ac"/>
    <path id="Trazado_12566" data-name="Trazado 12566" d="M571.958,124.854c0-.067-.059-.17-.112-.181-.339-.07-1.418,1.406-1.7,1.7-1.148,1.214-3.539,3.507-5.321,3.323-.941-.1-.609-.78-.345-1.379l7.991-14.4c.03-.234-.152-.035-.184-.035H570.3a9.42,9.42,0,0,0-1,.108c-.259.077-1.4,1.109-1.547,1-.745-2.006-3.484-2.021-5.249-1.665-5.143,1.039-9.408,8.406-10.157,13.264-1.451,1.061-3.252,2.628-5,3.125-2.528.717-1.755-1.244-1.179-2.657.9-2.2,2.119-4.565,3.225-6.675a28.553,28.553,0,0,1,1.853-3.393,41.156,41.156,0,0,1,3.687-2.667c3.425-2.651,8.393-7.365,9.572-11.632,1.019-3.687-1.728-4.9-4.854-3.672-3.809,1.5-7.518,8.138-9.494,11.637-2.685,4.757-5.106,9.673-7.375,14.642-1.584,1.5-5.643,4.8-7.869,4.543-1.268-.145-.482-1.844-.2-2.562a108.563,108.563,0,0,1,5.226-10.363c4.768-3.306,10.369-7.565,12.753-13.032,1.584-3.634.126-6.327-4.042-5-3.939,1.252-7.751,8.067-9.726,11.552-2.774,4.9-5.262,9.966-7.6,15.086-2.069,2.16-6.107,4.758-9.2,4.473-1.318-.121-.713-2.185-.406-2.98,3.436-2.085,7.89-4.469,10.128-7.919,2.554-3.937.386-6.829-4.14-5.692-2.63.661-4.443,3-5.867,5.142a27.8,27.8,0,0,0-4.148,9c-1.358.759-6.14,4.29-4.838.113a19.217,19.217,0,0,1,1.467-3.113c2.03-3.755,4.525-7.325,6.795-10.937l.089-.243h-1.589c-.115,0-1.355,1.342-1.669,1.582-1.626,1.244-3.683,1.865-5.528.673.9-1.992,1.809-4.6,1.154-6.778-.673-2.239-3.091-1.928-4.177-.23-1.447,2.262-1.4,6.1,1.021,7.67-1.557,2.586-3.091,5.192-4.815,7.671-1.072,1.542-3.829,5.627-5.784,5.743-.859.051-1.047-.315-.717-1.088l8.066-14.727-3.953.221-.148.073-7.438,13.175c-.731,1.1-3.017,2.624-4.35,2.309-.658-.155-.3-.887-.122-1.313L499.108,114l-.108-.11-3.955.258c-2.718,4.8-5.5,9.566-8.109,14.425a6.118,6.118,0,0,0-.218.89c-.028.254.05,1.054.019,1.122a6.3,6.3,0,0,1-1.051.95,9.667,9.667,0,0,1-3.154,1.353,8.744,8.744,0,0,1-2.189.323l.256-.482,10.382-18.912a10.54,10.54,0,0,1-1.961.07,11.128,11.128,0,0,0-1.164.092c-.3.069-1.343,1.1-1.494,1.091-.847-1.9-3.046-2.062-4.874-1.844-3.376.4-5.6,2.805-7.354,5.5-1.587,2.435-2.956,5.153-2.744,8.154-.985.51-1.911,1.135-2.894,1.65-.776.407-4.333,2.386-3.437.035l8.04-14.569-.107-.108-3.955.258-7.968,14.123c-1.17,2.522.343,4.437,3.055,4.163,1.617-.163,4.581-2.165,5.972-3.116.233-.16,1.476-1.142,1.571-1.165.152-.036.41.588.516.73,1.206,1.621,3.087,1.709,4.909,1.224.3-.081.646-.261.929-.328.113-.027.121,0,.1.1l-1.919,3.549c-4.5.332-10.72,2.336-12.268,7.089-1.762,5.409,4.466,7.842,8.492,5.168,2.882-1.914,4.841-7.194,6.644-10.2.091-.151.257-.494.4-.561a10.068,10.068,0,0,1,1.254-.15,11.71,11.71,0,0,0,6.449-3.3c2.408,2.367,5.607,0,7.61-1.7a2.414,2.414,0,0,0,1.869,2.564c4.11.948,8.179-4.8,10.2-7.712,1.756-2.532,3.372-5.172,4.9-7.85.708.145,1.4.382,2.119.491.172.026.644-.054.609.132a58.842,58.842,0,0,0-5.186,8.852c-.659,1.546-1.619,3.805-.387,5.289.989,1.191,2.651,1.022,3.944.484a35.189,35.189,0,0,0,4.693-2.769c.094,3.294,2.209,3.511,4.928,2.933a18.683,18.683,0,0,0,8.223-4.263c-.159,1.331-.347,3.093.857,4.021,1.683,1.3,4.844-.136,6.444-1.079a26.134,26.134,0,0,0,4.114-3.163c-.278,1.56-.433,3.9,1.384,4.564,2.045.747,4.82-.846,6.471-1.992.814-.565,1.557-1.23,2.34-1.833.075,1.777,1.019,3.806,2.994,3.989a6.184,6.184,0,0,0,4.985-1.994,2.8,2.8,0,0,0,1.833,1.9c3.4.933,7.714-3.813,9.281-6.412a5.358,5.358,0,0,0,.56-1.069M555.4,109.182c1.141-1.985,4.374-7.754,6.316-8.609.776-.342,1.475-.185,1.461.79-.022,1.48-1.609,3.939-2.489,5.127A40.608,40.608,0,0,1,554.262,113l-1.512,1.11c.811-1.672,1.72-3.312,2.647-4.926m-8.958-4.008c.734-1.141,2.91-4.489,4.223-4.717,1.568-.272,1.164,1.292.833,2.237-1.254,3.589-5.405,7.689-8.315,10.082l-1.882,1.4c1.667-3.022,3.272-6.1,5.141-9.007M523.3,123.637c1.092-2.15,3.391-6.588,5.176-8.05.707-.579,2.005-1.189,2.653-.219.758,1.137-.559,3.057-1.29,3.946-1.938,2.355-4.6,3.891-7.09,5.58a5.478,5.478,0,0,1,.552-1.258m-51.474,17.829c-.8,1.356-3.028,3.061-4.457,1.606a2.463,2.463,0,0,1-.518-2.3c.752-3.436,5.436-5,8.462-5.612Zm4.854-12.8c-2.239-.233-1.4-3.324-.924-4.693.961-2.743,4.056-8.449,7.224-8.883.77-.105,1.974.042,2.216.922a2.029,2.029,0,0,1-.313,1.572c-1.328,2.727-3.243,6.089-4.828,8.693-.754,1.238-1.718,2.561-3.375,2.389m84.13-1.133c-.577.966-1.4,2.252-2.635,2.389-2.416.268-2.034-2.7-1.626-4.212.815-3.03,4.57-10.147,8-10.62,1.348-.186,2.344.534,2.029,1.955-2.012,3.437-3.725,7.071-5.767,10.488" transform="translate(-434.816 -93.012)" fill="#e875ac"/>
    <path id="Trazado_12567" data-name="Trazado 12567" d="M2416.811,643.55a2.253,2.253,0,0,0,.422,4.486c2.914-.242,2.567-4.759-.422-4.486m-.163,4.111c-1.91-.264-1.952-3.429.011-3.744,2.811-.451,2.955,4.154-.011,3.744" transform="translate(-2279.245 -607.42)" fill="#e875ac"/>
    <path id="Trazado_12568" data-name="Trazado 12568" d="M2440.216,661.083v-.012a.7.7,0,0,0,.5-.684.667.667,0,0,0-.211-.509,1.1,1.1,0,0,0-.775-.218,3.585,3.585,0,0,0-.664.056v2.643h.346V661.2h.326c.314.012.457.151.537.521a3.429,3.429,0,0,0,.179.64h.358a4.254,4.254,0,0,1-.207-.735.666.666,0,0,0-.393-.54m-.445-.147h-.354v-.978a1.425,1.425,0,0,1,.342-.032c.366,0,.616.155.616.5,0,.306-.235.509-.6.509" transform="translate(-2302.179 -622.637)" fill="#e875ac"/>
  </g>
</svg>
