<svg xmlns="http://www.w3.org/2000/svg" xmlns:xlink="http://www.w3.org/1999/xlink" width="140" height="23.855" viewBox="0 0 140 23.855">
  <defs>
    <clipPath id="clip-path">
      <rect id="Rectángulo_119" data-name="Rectángulo 119" width="140" height="23.855" fill="none"/>
    </clipPath>
  </defs>
  <g id="global-catalog" transform="translate(0 0)">
    <g id="Grupo_1717" data-name="Grupo 1717" transform="translate(0 0)" clip-path="url(#clip-path)">
      <path id="Trazado_12536" data-name="Trazado 12536" d="M124.97,24.33H122.4a3.106,3.106,0,0,0-.982-1.5,3.411,3.411,0,0,0-4.817,1c-.871,1.453-.981,4.663.1,6.027,1.753,2.212,5.637,1.49,5.944-1.482h-2.918v-2.1h5.3v7.117a1.8,1.8,0,0,1-2-1.833s-.577.555-.647.621a5.514,5.514,0,0,1-7.569-.593c-2.234-2.477-2.132-7.3.136-9.734,2.882-3.091,9.484-2.205,10.027,2.481" transform="translate(-83.444 -14.772)" fill="#20201d"/>
      <path id="Trazado_12537" data-name="Trazado 12537" d="M313.124,24.867H310.5a8.833,8.833,0,0,0-.546-1.181,2.883,2.883,0,0,0-3.909-.459c-2.508,1.966-1.757,9.5,2.686,8.017,1.067-.355,1.4-1.263,1.768-2.226h2.567a5.2,5.2,0,0,1-4.465,4.63,5.522,5.522,0,0,1-6.48-4.576c-1-4.9,1.551-9.642,7.118-8.5a4.784,4.784,0,0,1,3.881,4.3" transform="translate(-222.578 -15.039)" fill="#20201d"/>
      <path id="Trazado_12538" data-name="Trazado 12538" d="M381.828,24.471h1.513V26.2H381.91a.537.537,0,0,0-.081.081v5.769c0,.474.589.458.621.458h.892v1.833H381.1c-.073,0-1.688-.073-1.688-1.443l-.011-6.513c.012-.055-.039-.186-.084-.186H378.1V24.471h1.3V21.4a3.6,3.6,0,0,1,2.27,1,1.574,1.574,0,0,1,.162.324Z" transform="translate(-278.743 -15.775)" fill="#20201d"/>
      <path id="Trazado_12539" data-name="Trazado 12539" d="M434.66,21.4c.757.063,2.325.458,2.473,1.334l.011,10.072a1.336,1.336,0,0,0,.245.78c.068.066.286.15.3.2v.609a9.286,9.286,0,0,1-1.852-.282c-.415-.122-1.175-.6-1.175-1.092Z" transform="translate(-320.441 -15.774)" fill="#20201d"/>
      <path id="Trazado_12540" data-name="Trazado 12540" d="M287.491,34.392h-.784c-.45,0-1.959-.163-2.189-1.321V21.4c.794.066,2.318.466,2.473,1.388L287,32.911a1.655,1.655,0,0,0,.141.561c.082.137.3.19.337.31Z" transform="translate(-209.753 -15.775)" fill="#20201d"/>
      <path id="Trazado_12541" data-name="Trazado 12541" d="M494.139,32.682h-.892a2.683,2.683,0,0,0-1.8.9,2.907,2.907,0,0,0-.252.664c-1.121-1.982-4.045-1.871-5.43-.24-2.018,2.377-1.63,7.732,1.986,8.368a3.2,3.2,0,0,0,3.471-1.333c-.038,1.275.143,2.931-1.456,3.265-.765.16-2.151.107-2.273-.893h-2.7c.207,2.849,3.946,3.145,6.107,2.615,1.908-.468,2.637-1.73,2.756-3.613.171-2.7-.127-5.58,0-8.3a1.355,1.355,0,0,1,.17-.532c.094-.133.31-.2.318-.233Zm-2.987,5.889a2,2,0,0,1-2.724,1.668c-1.854-.68-1.771-4.992.348-5.279,2.185-.3,2.692,1.9,2.377,3.611" transform="translate(-357.22 -24.094)" fill="#20201d"/>
      <path id="Trazado_12542" data-name="Trazado 12542" d="M217.829,24.541a3.335,3.335,0,0,0-2.043,1.332V22.665a3.2,3.2,0,0,0-.3-.46,4.245,4.245,0,0,0-2.137-.807V33.179a2.5,2.5,0,0,0,.162.27,3.334,3.334,0,0,0,2.27.944v-1.4a3.146,3.146,0,0,0,1.986,1.281c6.278,1.07,6.406-10.828.056-9.73m2.064,5.618c-.187,1.44-1.142,2.506-2.691,2.039-2.006-.606-2.107-5.285.355-5.555,2.087-.228,2.549,1.874,2.336,3.516" transform="translate(-157.289 -15.775)" fill="#20201d"/>
      <path id="Trazado_12543" data-name="Trazado 12543" d="M353.947,42.281c-.007-.027-.306-.213-.373-.341a1.583,1.583,0,0,1-.114-.48c-.173-1.919.263-4.346-.061-6.194-.445-2.539-4.84-2.731-6.6-1.63a3.3,3.3,0,0,0-1.4,2.622h2.432c.079-1.152.992-1.311,1.975-1.243.718.05,1.4.4,1.135,1.246-.215.7-2.168.709-2.8.822-1.985.354-3.212,1.276-3.015,3.461.189,2.1,2.536,2.793,4.3,2.132a5.176,5.176,0,0,0,1.647-1.133,1.424,1.424,0,0,0,1.014,1.173,9.208,9.208,0,0,0,1.852.229Zm-2.974-2.869A3.915,3.915,0,0,1,350.8,40c-.527,1.336-3.268,1.678-3.237-.044.03-1.66,2.427-1.2,3.407-1.863Z" transform="translate(-254.428 -24.327)" fill="#20201d"/>
      <path id="Trazado_12544" data-name="Trazado 12544" d="M408.222,42.314c-.008-.031-.327-.22-.393-.375a2.391,2.391,0,0,1-.094-.5c-.157-1.829.137-3.874,0-5.714-.132-1.751-1.344-2.39-2.953-2.608-2.384-.322-5,.335-5.046,3.174h2.378c.116-1.159.973-1.313,1.975-1.243.435.03,1.074.168,1.156.68.1.633-.112.893-.7,1.075-1.247.385-2.606.15-3.833.867-2.174,1.271-1.595,4.99,1.1,5.252a4.066,4.066,0,0,0,3.539-1.347,1.412,1.412,0,0,0,1.138,1.211,7.837,7.837,0,0,0,1.727.191ZM405.248,39.5a2.807,2.807,0,0,1-.314.819c-.623.957-2.931,1.342-3.039-.17-.135-1.891,2.258-1.3,3.353-2.024Z" transform="translate(-294.434 -24.36)" fill="#20201d"/>
      <path id="Trazado_12545" data-name="Trazado 12545" d="M258.03,42.312c-.007-.027-.227-.112-.318-.233a.919.919,0,0,1-.169-.478c-.2-2.008.144-4.231-.061-6.193-.244-2.331-3.61-2.608-5.4-2.219a3.127,3.127,0,0,0-2.593,3.1h2.378c.2-1.153.982-1.322,2.029-1.242.693.053,1.388.434,1.135,1.246-.216.7-2.166.709-2.8.821-1.311.234-2.578.718-2.935,2.141-.85,3.39,2.768,4.661,5.211,2.88.087-.063.653-.507.653-.507,0,1.754,2.865,1.348,2.865,1.348Zm-2.975-2.921a4.446,4.446,0,0,1-.206.711c-.523,1.21-3.208,1.646-3.2-.118,0-1.436,1.809-1.295,2.785-1.594.22-.068.415-.179.625-.266Z" transform="translate(-183.695 -24.36)" fill="#20201d"/>
      <path id="Trazado_12546" data-name="Trazado 12546" d="M178.781,32.737c-5.951.12-6.07,8.789-1.278,9.87,3.169.714,5.958-.9,6.206-4.251.239-3.227-1.545-5.686-4.928-5.618m2.328,5.72a2.221,2.221,0,0,1-3.127,2.055c-1.877-.786-1.852-5.38.582-5.673,2.239-.269,2.725,1.833,2.546,3.618" transform="translate(-128.348 -24.134)" fill="#20201d"/>
      <path id="Trazado_12547" data-name="Trazado 12547" d="M450.91,32.737c-5.886.119-6.041,8.641-1.449,9.825,3.112.8,6.109-.728,6.377-4.1.26-3.274-1.47-5.8-4.928-5.726m2.234,6.219a2.135,2.135,0,0,1-4.207-.023c-.37-1.506-.105-3.883,1.809-4.094,2.381-.262,2.829,2.317,2.4,4.117" transform="translate(-328.974 -24.134)" fill="#20201d"/>
      <path id="Trazado_12548" data-name="Trazado 12548" d="M37.9,71.016c-.381.279-.45.6-.71.855-.457.454-.967.038-1.4-.173-.29-.142-.485-.117-.731-.4-.755-.876.258-1.212.4-1.9a1.641,1.641,0,0,0-1.176-1.96c-2.106-.636-3.436,1.989-1.269,2.991.3.14.58.136.822.42.609.714-.343.861-.45,1.334-.163.725.984,1.237,1.556,1.31.2.025.442-.018.649,0a3.277,3.277,0,0,0,.7-.3c.481-.354.258-.791,1.1-.656.771.124.833.45,1.834.24.619-.13,1.771-.725,1.643-1.495-.191-1.154-2.26-.778-2.969-.259M32.9,69.308a.7.7,0,0,1,.472-1.094,1.227,1.227,0,0,1,1.15.338c.7.937-.976,1.673-1.622.756m1.253,3.031c.043-.146.322-.272.463-.3.308-.051,1.019.082,1.125.415.263.822-1.8.625-1.588-.12m4.923-.052c-1.315.208-1.114-.949-.027-1.1,1.285-.184,1.068.94.027,1.1" transform="translate(-23.527 -49.64)" fill="#016ff9"/>
      <path id="Trazado_12549" data-name="Trazado 12549" d="M21.278,4.232c-.546.53-1.253.251-1.9.64a1.787,1.787,0,0,0,.985,3.3c.594-.037.937-.534,1.489-.462a8.3,8.3,0,0,1,1.832.979c.486.378.326.7.452,1.221a3.156,3.156,0,0,1,.233.87,4.991,4.991,0,0,1-.951,2c-.861,1.032-2.418.69-2.8,2.171a1.912,1.912,0,0,0,3.334,1.708c.875-1.112.059-1.841.17-2.957a4.232,4.232,0,0,1,1.079-2c.8-.623,1.864-.239,2.457-1.376a1.916,1.916,0,0,0-2.3-2.724c-.332.108-.475.319-.891.3a8.823,8.823,0,0,1-2.079-1A1.222,1.222,0,0,1,22,6.38c-.053-.157-.311-1.085-.314-1.2-.015-.6.6-1.277,1-1.7.927-.976,1.217-.616,2.152-1.142.486-.274.949-.821.5-1.339A2.007,2.007,0,0,0,23.676.64c-.658.089-1.832.72-1.384,1.515.125.221.3.191.183.577-.028.092-1.071,1.379-1.2,1.5M20.044,7.308c-.889-.14-.84-1.659.009-1.816,1.452-.269,1.39,2.037-.009,1.816m2.217,9.219a1.073,1.073,0,0,1-.046-2.085,1.073,1.073,0,1,1,.046,2.085m3.632-8.179a1.072,1.072,0,0,1,.564,2.023c-1.552.727-2.207-1.861-.564-2.023M23.621,1.124c1.295-.221,1.31.813.253.953-1.181.156-1.109-.806-.253-.953" transform="translate(-13.672 -0.449)" fill="#016ff9"/>
      <path id="Trazado_12550" data-name="Trazado 12550" d="M48.406,1.626c.973.429,1.432,0,2.311.12a4.289,4.289,0,0,1,1.76,1.048,10.693,10.693,0,0,1,.716,1.226,1.4,1.4,0,0,1-.337,1.2c-.709.9-1.9.4-2.366,1.791C49.7,9.4,53.049,11.052,53.872,8.765c.5-1.386-.587-1.967-.329-3.024a3.325,3.325,0,0,1,.451-.9c.33-.24.9.146,1.212-.354.433-.692-.453-1.758-1.051-2.074a4.747,4.747,0,0,0-1.407-.322A5.718,5.718,0,0,1,51.056,1.3C50.118.66,49.909-.166,48.466.03c-1.177.16-1.04,1.164-.06,1.6m4.693,6.8c-.421,1.238-1.989.371-1.863-.888.029-.3.272-.754.579-.824.925-.211,1.555.916,1.284,1.712m.607-5.6c.589-.084,1.372,1.019.881,1.257-.673.326-1.62-1.151-.881-1.257M48.434.644c.033-.094.257-.168.355-.184C49.177.4,50.044.65,49.8,1.148c-.184.382-1.6.16-1.369-.5" transform="translate(-35.112 0)" fill="#016ff9"/>
      <path id="Trazado_12551" data-name="Trazado 12551" d="M3.72,35.778c1.329-.164,1.471,1.273,2.71,1.289,2.485.031,2.414-4.294-.1-3.97-1.206.156-1.319,1.483-2.56,1.6-1.05.1-1.648-.922-2.467-.791A2.054,2.054,0,0,0,.024,35.487c-.127.959.261,2.4,1.477,2.228,1.161-.161,1.179-1.809,2.219-1.937m2.608-1.819c1.409-.258,1.451,2.159.2,2.253-1.208.091-1.3-2.051-.2-2.253M1.9,36.337C1.335,37.651.262,36.308.808,35.245a1.086,1.086,0,0,1,.492-.479c.787-.181.824,1.058.6,1.571" transform="translate(-0.001 -24.387)" fill="#016ff9"/>
      <path id="Trazado_12552" data-name="Trazado 12552" d="M45.712,51.017c-.457,1.837,1.847,2.628,3.123,1.552a1.538,1.538,0,0,0,.083-2.4c-.542-.46-1.576-.361-1.455-1.289.064-.492.45-.7.655-1.072a1.913,1.913,0,1,0-2.655.685c.486.293,1.331.423,1.238,1.186-.04.324-.851.781-.989,1.336m.654-5.228a1.073,1.073,0,0,1,.564,2.023c-1.557.729-2.21-1.861-.564-2.023m.97,4.8c.686-.116,1.567.261,1.179,1.068s-2.077.731-2.033-.245c.016-.363.513-.766.854-.824" transform="translate(-32.847 -33.145)" fill="#016ff9"/>
      <path id="Trazado_12553" data-name="Trazado 12553" d="M71.175,52.188c-.957.154-1.08,1.613-1.621,1.833-.578.235-.9-.419-1.477-.493A1.834,1.834,0,0,0,66.73,56.7c.43.315,1.262.254.753.967-.124.173-.34.318-.479.493-.332.422-.759,1.267-.124,1.624.944.531,2.816-1.073,2.411-2.081-.214-.531-.991-.3-.968-.7.016-.279.57-.682.732-1,.143-.281.307-1.353.743-1.235.2.054.26.544.673.627.8.163,1.5-1.073,1.576-1.746.073-.611-.035-1.6-.873-1.464M68.58,58.119c.433.457-.923,1.607-1.286,1.041-.3-.473.866-1.484,1.286-1.041M67.745,56.1c-1.149.236-.921-1.7.08-1.754.859-.049.772,1.579-.08,1.754m3.091-1.439c-.864.032-.087-2.076.553-1.551.361.3.014,1.53-.553,1.551" transform="translate(-48.741 -38.465)" fill="#016ff9"/>
      <path id="Trazado_12554" data-name="Trazado 12554" d="M34.6,10.859c.164,1.58,2.775,1.919,3.557.528.155-.275.175-.66.482-.813.726-.361.932.321,1.477.6,1.114.579,2.6.055,2.485-1.347a1.9,1.9,0,0,0-2.012-1.519,1.625,1.625,0,0,0-1.2.635c-.231.322-.214.66-.72.737-.686.1-.795-.227-1.311-.443-1.2-.506-2.908.155-2.756,1.617m5.931-1.686c1.073-.18,1.762,1.2.731,1.375-1.147.194-1.771-1.2-.731-1.375M36.76,11.4c-1.389.266-1.869-1.247-.557-1.472,1.368-.235,1.819,1.23.557,1.472" transform="translate(-25.497 -6.125)" fill="#016ff9"/>
      <path id="Trazado_12555" data-name="Trazado 12555" d="M76.176,22.42c.324.353,1.117.6,1.254,1.014.151.454-.164.688-.309,1.065a2.51,2.51,0,0,0,.071,1.869c.258.594.826,1.161,1.47.693a2.381,2.381,0,0,0,.347-2.99c-.245-.344-.85-.561-.93-.96-.086-.425.275-.937.314-1.387.083-.958-.573-2.392-1.688-2.335-1.464.075-1.316,2.175-.529,3.032m2.038,2.032c.735-.133.765,1.828.041,1.828-.7,0-.673-1.714-.041-1.828m-1.648-4.145c.356-.32.86.481.943.783.3,1.093-.519,1.353-.943.4-.117-.262-.228-.98,0-1.184" transform="translate(-55.726 -14.292)" fill="#016ff9"/>
      <path id="Trazado_12556" data-name="Trazado 12556" d="M11,63.918c-.69-.427-1.017-.243-1.715-.338-.819-.111-.537-.981-.747-1.574-.248-.7-1.143-1.594-1.948-1.428-.548.112-.624.857-.579,1.308a2.38,2.38,0,0,0,1.607,1.9c.284.054.622-.023.882.2s.3,1.07.492,1.45c.4.816,1.723,1.561,2.558.953.905-.66.224-1.992-.55-2.47m-3.315-.9c-.69.313-1.47-1.438-.77-1.58.662-.135,1.337,1.323.77,1.58m2.271,2.373c-.209-.213-.583-.889-.123-.986a1.434,1.434,0,0,1,1.308.936c.123.817-.857.385-1.185.05" transform="translate(-4.42 -44.645)" fill="#016ff9"/>
      <path id="Trazado_12557" data-name="Trazado 12557" d="M64.772,39.449c-2.207.318-1.9,4.373.63,4.025,2.144-.295,1.771-4.371-.63-4.025m.131,3.184c-1.03-.25-1.007-2.151-.078-2.322,1.524-.282,1.509,2.669.078,2.322" transform="translate(-46.661 -29.067)" fill="#016ff9"/>
      <path id="Trazado_12558" data-name="Trazado 12558" d="M16.358,9.287c.682-.273,1.719-1.307,1.364-2.09a.841.841,0,0,0-.959-.363,2.635,2.635,0,0,0-1.6,1.1c-.7,1.129,0,1.831,1.194,1.352m.135-1.808c.941-.14.395,1.042-.272,1.24-1.2.357-.58-1.114.272-1.24" transform="translate(-10.975 -5.025)" fill="#016ff9"/>
      <path id="Trazado_12559" data-name="Trazado 12559" d="M6.086,22.065c.382-.674.691-2.314-.544-2.106C4.585,20.121,3.654,22,4.26,22.777c.555.716,1.514-.16,1.827-.712m-.816-1.3c1.034-.238.267,1.693-.407,1.517-.6-.156-.069-1.408.407-1.517" transform="translate(-2.998 -14.701)" fill="#016ff9"/>
      <path id="Trazado_12560" data-name="Trazado 12560" d="M12.669,50.557c-1.469.183-1.056,2.672.41,2.571,1.508-.1,1.131-2.763-.41-2.571m.227,2.013c-.711-.132-.844-1.4-.173-1.478.912-.109,1.076,1.646.173,1.478" transform="translate(-8.664 -37.265)" fill="#016ff9"/>
      <path id="Trazado_12561" data-name="Trazado 12561" d="M526.232,25.183a.989.989,0,1,0,.989.989.989.989,0,0,0-.989-.989m0,1.792a.8.8,0,1,1,.8-.8.8.8,0,0,1-.8.8" transform="translate(-387.221 -18.566)" fill="#232320"/>
      <path id="Trazado_12562" data-name="Trazado 12562" d="M528.182,27.538v0a.267.267,0,0,0,.191-.259.253.253,0,0,0-.08-.193A.415.415,0,0,0,528,27a1.358,1.358,0,0,0-.252.021v1h.131v-.44H528c.119,0,.173.057.2.2a1.309,1.309,0,0,0,.068.243h.136a1.593,1.593,0,0,1-.079-.279.253.253,0,0,0-.149-.2m-.169-.056h-.134v-.371a.555.555,0,0,1,.13-.012c.138,0,.234.059.234.19s-.089.193-.229.193" transform="translate(-389.068 -19.904)" fill="#232320"/>
      <path id="Trazado_12563" data-name="Trazado 12563" d="M165.545,34.392h-.784c-.45,0-1.959-.163-2.189-1.321V21.4c.794.066,2.318.466,2.473,1.388l.011,10.125a1.662,1.662,0,0,0,.141.561c.082.137.3.19.337.31Z" transform="translate(-119.852 -15.775)" fill="#20201d"/>
    </g>
  </g>
</svg>
