<svg xmlns="http://www.w3.org/2000/svg" xmlns:xlink="http://www.w3.org/1999/xlink" width="140" height="56.922" viewBox="0 0 140 56.922">
  <defs>
    <clipPath id="clip-path">
      <rect id="Rectángulo_118" data-name="Rectángulo 118" width="140" height="56.922" transform="translate(0 0)" fill="none"/>
    </clipPath>
  </defs>
  <g id="happy-socks" transform="translate(0 -0.001)">
    <g id="Grupo_1716" data-name="Grupo 1716" transform="translate(0 0.001)" clip-path="url(#clip-path)">
      <path id="Trazado_12535" data-name="Trazado 12535" d="M58.5,28.33a3.183,3.183,0,0,0-2.893-.3,5.241,5.241,0,0,0-2.473,2.66c.117-1.447.257-2.777.42-3.9v-.07a.874.874,0,0,0,.023-.257.42.42,0,0,0-.163-.35.636.636,0,0,0-.7,0,2.763,2.763,0,0,0-1.587,2.17,122.215,122.215,0,0,0-1.167,17.663c0,2.893.093,5.67.3,8.027a3.106,3.106,0,0,0,2.123,2.893.741.741,0,0,0,.7-.07.68.68,0,0,0,.163-.63c-.373-3.57-.583-8.143-.607-13.557.117.093.21.187.327.28a3.663,3.663,0,0,0,3.43.35c1.89-.747,3.36-2.893,4.037-5.857,1-4.223.233-7.77-1.937-9.053m-.56,7.56c-.49,2.543-1.493,4.457-2.707,5.18a1.331,1.331,0,0,1-1.073.187c-.817-.28-1.237-1.633-1.12-3.57.257-3.64,1.75-6.323,3.15-7.373a1.394,1.394,0,0,1,.98-.373c.467.14,1.423,2.52.77,5.95M95.76,42.564c-2.1,3.99-7.443,5.157-11.387,4.947q-5.46-.28-7.91-3.08a6.1,6.1,0,0,1-1.517-4.363c.093-.793.4-1.75,1.027-1.773.187,0,.607.047.747.793.77,3.8,4.9,4.947,8.19,5.25s7.513-.257,8.587-2.73c1.307-3.033-.723-5.063-5.2-8.027L85.82,31.994c-5.763-3.64-12.927-8.167-12.927-15.75A13.024,13.024,0,0,1,76.836,7a14.767,14.767,0,0,1,10.5-4.27c8.587.047,11.643,5.833,11.643,10.78,0,4.293-2.147,7.933-4.877,8.33-.233.047-.817.093-1.05-.3-.14-.21-.187-.513.187-.98a10.851,10.851,0,0,0,2.1-6.37,9.608,9.608,0,0,0-2.683-6.93A7.494,7.494,0,0,0,87.08,5.02a10.645,10.645,0,0,0-7.49,3.313,11.394,11.394,0,0,0-3.2,7.91c.117,5.9,7.233,10.407,12.95,14.023l1.1.7c7.513,4.76,6.883,8.54,5.32,11.6M26.32,46.6v.163a.753.753,0,0,1-.187.49,1,1,0,0,1-.91.187c-1.12-.187-2.52-.98-2.823-3.547a122.985,122.985,0,0,1-.653-14.583,106.026,106.026,0,0,0-12.74,1.213A137.463,137.463,0,0,0,10.033,45.06v.21a.753.753,0,0,1-.187.49.9.9,0,0,1-.793.187c-1.19-.21-2.683-.98-3.01-3.5A90.591,90.591,0,0,1,5.437,31.2a24.038,24.038,0,0,0-4.27,1.167,1.021,1.021,0,0,1-.933-.093A.81.81,0,0,1,0,31.69a1.8,1.8,0,0,1,.047-.35,4.016,4.016,0,0,1,2.427-3.173,21.678,21.678,0,0,1,2.963-.653c.093-8.7.747-17.337,1.68-21.583A3.309,3.309,0,0,1,9.03,3.247a.744.744,0,0,1,.7,0,.743.743,0,0,1,.327.677v.07A155.548,155.548,0,0,0,8.983,24.41v2.613a94.174,94.174,0,0,1,12.833-.583C22,16.407,22.68,6.957,23.5,2.827A3.263,3.263,0,0,1,25.433.074a.644.644,0,0,1,.7.07.749.749,0,0,1,.21.747V.867A234.813,234.813,0,0,0,25.177,26.6a13.927,13.927,0,0,1,1.983.163.858.858,0,0,1,.7.443.653.653,0,0,1-.14.7,2.826,2.826,0,0,1-2.473,1.377A131.021,131.021,0,0,0,26.32,46.6M136.033,35.564c-1.61-3.663-1.96-6.3-.933-7.21h-.023a.853.853,0,0,0,.373-.63.774.774,0,0,0-.233-.583,1.907,1.907,0,0,0-1.353-.677A1.782,1.782,0,0,0,132.58,27c-1.447,1.353-2.59,3.92-3.453,7.793-.047-.023-.07-.07-.117-.093a.621.621,0,0,0-.583.21,2.3,2.3,0,0,0-.49,1.54,4.6,4.6,0,0,0,.14,1.12c.093.3.163.63.233.957-.023.093-.093.327-.093.327-.07.233-.14.443-.187.653a5.531,5.531,0,0,1-1.867,2.147,1.4,1.4,0,0,1-1.1.187c-.7-.21-1.61-1.7-1.983-4.06a7.536,7.536,0,0,0,3.943-5.2,6.062,6.062,0,0,0,.14-1.307,5.555,5.555,0,0,0-1.33-3.733,3.105,3.105,0,0,0-2.263-1.213,3.049,3.049,0,0,0-2.24,1.05A10,10,0,0,0,119.4,30.71a140.555,140.555,0,0,1,1.283-16.263v.023a.589.589,0,0,0-.117-.583.652.652,0,0,0-.607-.163h-.093a2.786,2.786,0,0,0-1.633,2.24,93.039,93.039,0,0,0-1.4,21.513,7.8,7.8,0,0,1-3.43,4.037,1.929,1.929,0,0,1-1.68,0c-.98-.49-1.563-2.543-1.493-5.2.14-3.36,1.4-6.183,2.287-6.907a.622.622,0,0,1,.327-.163c.047,0,.117.07.21.187a6.5,6.5,0,0,1-.14,4.62v.023a.47.47,0,0,0,.07.49c.14.187.35.187.583.187,1.073-.07,2.193-1.353,2.193-3.383a4.3,4.3,0,0,0-2.193-3.687,2.467,2.467,0,0,0-2.473-.093,4.68,4.68,0,0,0-1.82,1.75c-.863,1.12-2.24,2.963-2.333,3.057-.07.093-.49.49-.56.583a6.477,6.477,0,0,0-2.287-3.943,2.236,2.236,0,0,0-1.377-.42,1.428,1.428,0,0,0-1.657-.35c-1.54.84-3.057,3.733-3.407,6.627-.723,6.067,2.333,7.793,3.663,8.26a3.322,3.322,0,0,0,3.243-.49c1.447-1.143,2.24-3.383,2.24-6.277a8.922,8.922,0,0,0-.07-1.353c.3-.35.607-.63.91-1.027a9.386,9.386,0,0,0-.14,1.167c-.56,6.16,2.333,7.91,4.083,8.4a4.61,4.61,0,0,0,3.71-.467,5.668,5.668,0,0,0,1.773-1.8V41.4a3.1,3.1,0,0,0,2.1,2.963h.093a.754.754,0,0,0,.7-.163.641.641,0,0,0,.14-.607c-1.26-8.027,1.657-14.023,3.5-14.863a.513.513,0,0,1,.7.117,3.2,3.2,0,0,1,.233,2.5,7.39,7.39,0,0,1-3.85,5.017h-.023a1.217,1.217,0,0,0-.56,1.213c.42,3.313,2.217,5.74,4.643,6.183a4.081,4.081,0,0,0,3.453-.77,5.267,5.267,0,0,0,1.33-1.7,4.948,4.948,0,0,0,2.963,2.287,3.83,3.83,0,0,0,3.407-1.05c1.517-1.353,1.54-3.71.14-6.953m-33.3-5.227c.49.117,1.073,1.283,1.377,3.127a3.086,3.086,0,0,1-1.237-1.633,4.345,4.345,0,0,1-.21-1.1,1.091,1.091,0,0,1,.07-.4m1.563,5.6c0,2.8-.793,4.737-1.563,5.39a.751.751,0,0,1-.653.21c-.373-.07-1.633-1.447-1.633-4.457a8.633,8.633,0,0,1,.047-1.073,13.364,13.364,0,0,1,.56-2.847,3.771,3.771,0,0,0,3.267,2.707Zm30.263,5.32a.863.863,0,0,1-.747.163c-.98-.14-2.5-1.237-3.523-3.267v-.187c.047-.233.14-.537.14-.537A37.027,37.027,0,0,1,132,31.994a14.93,14.93,0,0,0,1.33,4.573l.14.327c.723,1.563,1.657,3.733,1.1,4.363M47.32,28.33a3.143,3.143,0,0,0-2.87-.3,5.241,5.241,0,0,0-2.473,2.66c.117-1.447.257-2.777.42-3.9v-.07a.876.876,0,0,0,.023-.257.42.42,0,0,0-.163-.35.636.636,0,0,0-.7,0,2.763,2.763,0,0,0-1.587,2.17,90.881,90.881,0,0,0-.98,10.383c-.56,1.563-1.377,2.4-1.657,2.38a.432.432,0,0,1-.163-.187c-.747-1.19-1.05-6.23.14-11.13a.588.588,0,0,0-.14-.607.6.6,0,0,0-.583-.14,2.188,2.188,0,0,0-1.05.607A3.562,3.562,0,0,0,34.3,28.26a2.755,2.755,0,0,0-2.59-.163c-1.843.747-3.36,3.127-4.2,6.51-1.283,5.227.443,7.91,2.5,8.657a3.218,3.218,0,0,0,2.777-.047,4.3,4.3,0,0,0,1.843-2.473,3.657,3.657,0,0,0,2.193,2.31,2.5,2.5,0,0,0,2.007-.07c0,.98-.023,1.983-.023,2.963,0,2.893.093,5.67.3,8.027a3.106,3.106,0,0,0,2.123,2.893.74.74,0,0,0,.7-.07.681.681,0,0,0,.163-.63c-.373-3.57-.583-8.143-.607-13.557.117.093.21.187.327.28a3.657,3.657,0,0,0,3.43.35c1.89-.747,3.36-2.893,4.037-5.857.98-4.223.21-7.77-1.96-9.053M34.207,33.324c-.187,4.247-1.493,7.163-2.637,8.05a.826.826,0,0,1-.607.233c-.537-.117-1.19-1.12-1.19-3.243a12.631,12.631,0,0,1,.21-2.287c.467-2.87,1.867-5.39,2.917-6.09a.54.54,0,0,1,.373-.14c.537.14,1.027,1.377.933,3.477M46.783,35.89c-.467,2.543-1.493,4.457-2.707,5.18A1.331,1.331,0,0,1,43,41.257c-.817-.28-1.237-1.633-1.12-3.57.257-3.64,1.773-6.323,3.15-7.373a1.394,1.394,0,0,1,.98-.373c.443.14,1.377,2.52.77,5.95m23.8,11.363c.443,4.41-1.143,6.65-2.66,7.84a3.622,3.622,0,0,1-3.593.793c-1.47-.513-2.613-2.1-3.08-4.223a5.259,5.259,0,0,1,.14-3.36.692.692,0,0,1,.677-.42c.14,0,.443.117.56.607.63,2.683,1.8,4.6,3.1,5.087a1.326,1.326,0,0,0,1.283-.117c.653-.443.98-1.563.98-3.547,0-.723-.047-1.587-.14-2.567-.14-1.61-.233-3.36-.3-5.3a4.5,4.5,0,0,1-1.237,1.33c-.023.023-.047.023-.07.047a2.418,2.418,0,0,1-3.383-.63c-1.773-2.427-1.587-8.517-.49-13.253.28-1.073.863-1.773,1.61-1.89a.544.544,0,0,1,.467,0,.583.583,0,0,1,.28.747c-.653,3.313-1.05,9.52-.07,11.993.3.793.7,1.26,1,1.19.187-.07,1.167-.467,1.61-4.947l.163-1.727a38.023,38.023,0,0,1,.56-4.6c.327-1.283.863-1.89,1.773-2.077a.8.8,0,0,1,.653.07.64.64,0,0,1,.187.537v.047a90.261,90.261,0,0,0-.023,18.363m67.293-20.067A2.159,2.159,0,1,1,140,24.994v.047a2.088,2.088,0,0,1-2.03,2.147h-.093m0-3.943a1.774,1.774,0,1,0,1.727,1.82v-.07a1.673,1.673,0,0,0-1.563-1.773.456.456,0,0,1-.163.023m.49,2.847-.373-.817h-.443v.817h-.4V23.85h.817a.729.729,0,0,1,.793.653v.047a.661.661,0,0,1-.4.653l.4.887Zm-.4-1.867h-.443v.7h.443c.233,0,.4-.093.4-.35a.359.359,0,0,0-.35-.35Z" transform="translate(0 -0.001)"/>
    </g>
  </g>
</svg>
