<svg id="hummo" xmlns="http://www.w3.org/2000/svg" xmlns:xlink="http://www.w3.org/1999/xlink" width="90.567" height="55" viewBox="0 0 90.567 55">
  <defs>
    <clipPath id="clip-path">
      <rect id="Rectángulo_132" data-name="Rectángulo 132" width="90.568" height="55" fill="none"/>
    </clipPath>
  </defs>
  <g id="Grupo_1735" data-name="Grupo 1735" clip-path="url(#clip-path)">
    <path id="Trazado_12699" data-name="Trazado 12699" d="M13.52,40.5V54.716H9.5V49.174H4.02v5.542H0V40.5H4.02v5.339H9.5V40.5Zm2.72,7.878c0,4.241,2.474,6.617,6.676,6.617s6.68-2.376,6.68-6.617V40.505H25.638V48.26c0,2.436-1.014,3.41-2.679,3.41-1.684,0-2.7-.974-2.7-3.41V40.505H16.24v7.878m32.6,6.333L48.8,40.5H45.491l-4.872,8.2-4.993-8.2H32.317V54.716h3.715V47.388l3.631,5.925h1.788l3.654-6.13.039,7.533Zm19.363,0L68.165,40.5H64.853l-4.87,8.2-4.993-8.2H51.68V54.716H55.4V47.388l3.632,5.925h1.787l3.654-6.13.04,7.533Zm2.111-7.105c0,4.263,3.35,7.388,7.9,7.388s7.9-3.125,7.9-7.388-3.348-7.389-7.9-7.389-7.9,3.126-7.9,7.389m11.734,0a3.843,3.843,0,1,1-7.673,0,3.843,3.843,0,1,1,7.673,0m-37.2-11.753c-.1-.334-.17-.574-.231-.817a6.747,6.747,0,0,1,1.053-6.05c.843-1.1,1.718-2.192,2.646-3.224a15.334,15.334,0,0,0,3.81-6.945,11.242,11.242,0,0,0,.417-3.376A9.657,9.657,0,0,0,50.8,10.932c-.437-.675-.949-1.3-1.434-1.956a13.794,13.794,0,0,1-.01,1.776A16.39,16.39,0,0,1,46.8,17.557c-1.218,1.854-2.618,3.585-3.895,5.4a11.01,11.01,0,0,0-2,4.512,7.972,7.972,0,0,0,1.6,6.28,6.493,6.493,0,0,0,2.344,2.105m-7.4-9.1c.029-.029.058-.055.088-.085-.036-.145-.066-.291-.111-.436a7.137,7.137,0,0,1,.1-4.681,11.487,11.487,0,0,1,2.122-3.178c.855-1.027,1.751-2.018,2.591-3.06A14.472,14.472,0,0,0,45.121,8.7a7.628,7.628,0,0,0-.056-3.59A13.69,13.69,0,0,0,42.305.221,2.072,2.072,0,0,0,42,0a6.23,6.23,0,0,1-.134,3.1,19.053,19.053,0,0,1-3.437,7.026c-1.178,1.484-2.266,3.046-3.3,4.64a8.9,8.9,0,0,0-1.593,4.7,8.585,8.585,0,0,0,3.584,7.145,1.576,1.576,0,0,0,.319.151M88.4,44.4a2.061,2.061,0,0,0,1.546-.633,2.231,2.231,0,0,0,.617-1.6,2.2,2.2,0,0,0-.617-1.6,2.186,2.186,0,0,0-3.091,0,2.2,2.2,0,0,0-.615,1.6,2.23,2.23,0,0,0,.615,1.6A2.065,2.065,0,0,0,88.4,44.4m0-.435a1.637,1.637,0,0,1-1.235-.5,1.989,1.989,0,0,1,0-2.59,1.618,1.618,0,0,1,1.235-.509,1.6,1.6,0,0,1,1.23.509,1.968,1.968,0,0,1,0,2.59,1.615,1.615,0,0,1-1.23.5m-.21-.472V42.42h.186c.217,0,.292.082.292.36v.342a1.063,1.063,0,0,0,.043.373H89.2a.926.926,0,0,1-.057-.367V42.75c0-.31-.1-.5-.323-.571v-.013a.56.56,0,0,0,.323-.578v-.055a.617.617,0,0,0-.7-.7h-.722V43.5Zm0-2.224h.223c.167,0,.255.106.255.317v.082c0,.211-.094.316-.286.316h-.193Z" transform="translate(0 0.001)" fill="#161615"/>
  </g>
</svg>
