<svg id="indumotora" xmlns="http://www.w3.org/2000/svg" xmlns:xlink="http://www.w3.org/1999/xlink" width="140" height="13.479" viewBox="0 0 140 13.479">
  <defs>
    <clipPath id="clip-path">
      <rect id="Rectángulo_116" data-name="Rectángulo 116" width="140" height="13.479" fill="none"/>
    </clipPath>
  </defs>
  <g id="Grupo_1714" data-name="Grupo 1714" clip-path="url(#clip-path)">
    <path id="Trazado_12508" data-name="Trazado 12508" d="M1364.083,52.814c-.874-.738-2.2.017-2.655.881l-.013,5.626a.681.681,0,0,1-.348.636,12.408,12.408,0,0,1-2.183.052c-.487-.054-.587-.379-.624-.819V51.315c.037-.432.159-.744.632-.812a11.724,11.724,0,0,1,2.014.009.664.664,0,0,1,.507.549c.022.177.033.418.033.418a3.545,3.545,0,0,1,5.579.459,4.462,4.462,0,0,1,4.431-1.475c1.927.482,2.468,2.215,2.562,4v4.793c-.024.274-.109.618-.4.715a14.107,14.107,0,0,1-2.257.032c-.368-.058-.47-.42-.5-.748l.005-5.186c-.164-2.069-2.034-1.814-3.087-.457a2.207,2.207,0,0,0-.063.719c.023,1.519,0,4.858,0,4.858-.026.362-.071.746-.5.813a17.107,17.107,0,0,1-2.26-.03c-.1-.047-.349-.322-.333-.454l0-5.052a2.848,2.848,0,0,0-.545-1.652" transform="translate(-1284.287 -47.592)" fill="#333030"/>
    <path id="Trazado_12509" data-name="Trazado 12509" d="M2251.478,50.807a4.2,4.2,0,0,1,.115,1.945c-.179.589-1.626.258-2.1.259a3.085,3.085,0,0,0-2.165,1.187l-.031,5.478a.623.623,0,0,1-.348.57,12.462,12.462,0,0,1-2.184.051c-.449-.05-.585-.337-.625-.753V51.538a.71.71,0,0,1,.632-.746,11.724,11.724,0,0,1,2.014.009c.466.094.48.425.508.805.005.071-.037.22.1.163.047-.02.229-.2.327-.263a5.315,5.315,0,0,1,1.8-.755c.4-.08,1.685-.234,1.95.056" transform="translate(-2121.927 -47.88)" fill="#333030"/>
    <path id="Trazado_12510" data-name="Trazado 12510" d="M2392.552,59.246c-.32.108-.586.317-.9.443-2.435.979-6.916.115-6.157-3.331.631-2.868,4.664-2.4,6.862-2.425a2.21,2.21,0,0,0-.394-1.212,2.5,2.5,0,0,0-2.447-.216c-.5.2-.713.729-1.277.823a7.6,7.6,0,0,1-1.772-.034c-.566-.228-.344-1.172-.111-1.586.845-1.5,3.876-1.569,5.377-1.446,5.128.42,3.448,5.66,3.681,9.185a.6.6,0,0,1-.412.441,11.2,11.2,0,0,1-1.825.015c-.409-.049-.562-.272-.623-.657m-.2-2.066a7.508,7.508,0,0,0,0-1.049.654.654,0,0,0-.1-.1h-2.823c-.022,0-.366.141-.42.17-.941.5-.487,1.667.559,1.79.5.059,2.641-.306,2.783-.813" transform="translate(-2255.498 -47.487)" fill="#333030"/>
    <path id="Trazado_12511" data-name="Trazado 12511" d="M707.913,59.822a.853.853,0,0,1-.4.154,13.04,13.04,0,0,1-2.033-.005c-.365-.058-.469-.361-.5-.682V51.151a.633.633,0,0,1,.565-.682,11.759,11.759,0,0,1,2.015.011c.561.1.5.512.541.969a5.085,5.085,0,0,1,2.238-1.108c2.009-.234,3.9.48,4.456,2.551l.1,6.4a.672.672,0,0,1-.558.688,11.984,11.984,0,0,1-2.119-.053.681.681,0,0,1-.348-.636l0-5.186c-.188-2.389-2.724-1.741-3.8-.378l-.011,5.76a.6.6,0,0,1-.155.337" transform="translate(-666.583 -47.559)" fill="#333030"/>
    <path id="Trazado_12512" data-name="Trazado 12512" d="M1893.857.086a8.929,8.929,0,0,1,2.166-.035c.425.066.459.306.459.536V3.243a.153.153,0,0,0,.161.154,7.519,7.519,0,0,1,2.565.163c.252.2.208,1.486.063,1.837a.423.423,0,0,1-.261.2h-2.388a.139.139,0,0,0-.139.139v3.3c0,1.494,1.007,1.414,1.477,1.415.625,0,1.924-.547,2.061.427.193,1.369-.215,1.574-1.472,1.666-2.667.2-4.938-.149-5.155-3.308V.64a.5.5,0,0,1,.463-.554" transform="translate(-1790.278 0)" fill="#333030"/>
    <path id="Trazado_12513" data-name="Trazado 12513" d="M922.948.453a8.525,8.525,0,0,1,2.1,0c.367.038.462.2.527.556l-.045,11.369a.587.587,0,0,1-.3.354,11.543,11.543,0,0,1-2.049.048c-.4-.077-.457-.721-.527-.719a5,5,0,0,1-5.213.289c-1.892-1.13-2.316-3.583-1.955-5.615.53-2.988,3.171-4.023,5.956-3.5.3.057,1.048.316,1.048.316V.748c0-.108.322-.279.459-.3m-.468,5.19c-1.377-.415-3.261-.78-3.751.989-.28,1.011-.332,3.189.653,3.844.958.636,2.2.082,3.075-.447Z" transform="translate(-865.516 -0.367)" fill="#333030"/>
    <path id="Trazado_12514" data-name="Trazado 12514" d="M1677.609,50.467c4.151-.386,6.786,1.517,6.231,5.9a4.368,4.368,0,0,1-4.279,3.857c-3.023.243-5.8-.717-6.14-4.1-.293-2.959,1.058-5.361,4.187-5.652m.654,2.03c-1.246.158-1.661,1.1-1.755,2.247-.107,1.3.053,3.163,1.637,3.412,2.469.389,2.824-1.723,2.621-3.668a2.041,2.041,0,0,0-2.5-1.992" transform="translate(-1582.25 -47.673)" fill="#333030"/>
    <path id="Trazado_12515" data-name="Trazado 12515" d="M604.9.522l.028,0a6.989,6.989,0,0,1,1.824,0,.724.724,0,0,1,.715.64.473.473,0,0,1,.009.094l-.016,10.879c0,.067.016.7-.484.7-.247,0-2.042.048-2.261-.016a.757.757,0,0,1-.5-.547.5.5,0,0,1-.023-.143c-.06-3.589-.06-7.316,0-10.906a.517.517,0,0,1,.01-.093.551.551,0,0,1,.286-.478.593.593,0,0,1,.413-.13" transform="translate(-571.241 -0.435)" fill="#333030"/>
    <path id="Trazado_12516" data-name="Trazado 12516" d="M2029.658,50.437c3.586-.334,6.265.953,6.278,4.866.011,3.312-1.985,4.909-5.193,4.927-3.781.021-5.578-2.033-5.272-5.778a4.351,4.351,0,0,1,4.187-4.015m.654,2.03c-1.206.153-1.659,1.061-1.755,2.181-.114,1.323.019,3.223,1.637,3.478,2.43.383,2.789-1.608,2.621-3.536a2.05,2.05,0,0,0-2.5-2.123" transform="translate(-1915.131 -47.642)" fill="#333030"/>
    <path id="Trazado_12517" data-name="Trazado 12517" d="M134.981,49.851s2.075-3.152,12.973-6.215a9.56,9.56,0,0,0,4.792-3.416l2.971,1.742a3.179,3.179,0,0,1-.225.417c-4.1,5.013-11.455,4.959-16.661,8.471-.321.217-.97.658-.97.658Z" transform="translate(-127.63 -38.03)" fill="#333030"/>
    <path id="Trazado_12518" data-name="Trazado 12518" d="M67.684,11.315a38.324,38.324,0,0,1,7.078-4.8c3.318-1.443,6.516-1.817,9.6-3.917.206-.14.955-.8,1.078-.831l2.88,1.661a1.445,1.445,0,0,1-.169.266c-2.9,3.582-9.179,3.637-14.29,6.709a24.125,24.125,0,0,0-3.353,2.492Z" transform="translate(-63.998 -1.667)" fill="#333030"/>
    <path id="Trazado_12519" data-name="Trazado 12519" d="M279.611,81.187l2.891,1.728s-.758.9-.869,1.02c-3.537,3.92-8.31,6.322-13.711,5.631-.332-.042-2.8-.746-2.8-.746s5.472-2.038,8.227-2.993a15.033,15.033,0,0,0,6.259-4.64" transform="translate(-250.686 -76.765)" fill="#333030"/>
    <path id="Trazado_12520" data-name="Trazado 12520" d="M17.129,18.6s-5.415,1.615-6.974,2.378a24.266,24.266,0,0,0-7.248,4.9L0,24.262s7.138-7.823,15.62-6.288c.321.058,1.53.49,1.509.623" transform="translate(0 -16.807)" fill="#333030"/>
    <path id="Trazado_12521" data-name="Trazado 12521" d="M1148.476,52.931a.853.853,0,0,1,.4-.154,13.034,13.034,0,0,1,2.033.005c.365.057.469.361.5.682V61.6a.633.633,0,0,1-.565.682,11.759,11.759,0,0,1-2.015-.011c-.561-.1-.5-.512-.541-.969a5.086,5.086,0,0,1-2.238,1.108c-2.009.234-3.9-.48-4.456-2.551l-.036-6.4a.672.672,0,0,1,.558-.688,11.247,11.247,0,0,1,2.053.053.681.681,0,0,1,.348.636l0,5.186c.188,2.389,2.724,1.741,3.8.378l.01-5.76a.605.605,0,0,1,.155-.337" transform="translate(-1079.39 -49.868)" fill="#333030"/>
  </g>
</svg>
