<svg xmlns="http://www.w3.org/2000/svg" width="101.214" height="40" viewBox="0 0 101.214 40">
  <path id="ipal" d="M0,0H5.269v29.43H0ZM83.986,26.344V0H78.717v29.43h4.789v.011h17.637V26.344ZM38.684,8.906c0,8.782-10.2,8.953-10.2,8.953H19.021V29.426H13.751V0H27.717s10.967.129,10.967,8.91m-5.355.021c0-5.5-7.54-5.719-7.54-5.719H19.021v11.5h7.368s6.94-.279,6.94-5.783M70.213,6.079V29.426H65.758V25.485l-6.337,3.786a2.019,2.019,0,0,1-.568.233,27.616,27.616,0,0,1-9.5.608c-4.755-.685-8.482-2.27-8.482-8.4s9-9.168,13.494-9.168H65.715V6.85s-.93-3.127-3.286-3.127H46.793S45.881,3.552,44,0H63.969s6.244,1.542,6.244,6.083m-4.5,8.868s-9.9.086-11.738.2-7.754,1.168-7.754,6.951,9.51,4.884,11.567,4.712,7.925-4.2,7.925-4.2ZM.6,34.8H3.884v-.518H0v5.663H4V39.43H.6ZM.534,37.326H3.528v-.51H.534Zm13.544,2.621V35.182h-.154L16.3,39.227h.283l2.363-4.045h-.138v4.765h.574V34.284h-.494L16.327,38.7h.259L14,34.284H13.5v5.663Zm15.841,0V37.876l-.267.283H31.44a2.981,2.981,0,0,0,1.238-.235,1.807,1.807,0,0,0,.8-.667,1.861,1.861,0,0,0,.279-1.032,1.892,1.892,0,0,0-.279-1.048,1.782,1.782,0,0,0-.8-.663,3.028,3.028,0,0,0-1.238-.231H29.32v5.663Zm0-5.429-.267.283h1.772a1.954,1.954,0,0,1,1.29.372,1.3,1.3,0,0,1,.441,1.052,1.279,1.279,0,0,1-.441,1.04,1.968,1.968,0,0,1-1.29.368H29.652l.267.291Zm13.819,5.429V37.876l-.267.275h1.788a3.028,3.028,0,0,0,1.238-.231,1.782,1.782,0,0,0,.8-.663,1.861,1.861,0,0,0,.279-1.032,1.892,1.892,0,0,0-.279-1.048,1.783,1.783,0,0,0-.8-.663,3.028,3.028,0,0,0-1.238-.231h-2.12v5.663Zm0-5.429-.267.283h1.772a1.954,1.954,0,0,1,1.29.372,1.465,1.465,0,0,1,0,2.1,1.953,1.953,0,0,1-1.29.372H43.471l.267.283Zm3.924,5.429L46.2,37.892H45.55l1.456,2.055ZM57.678,34.8h3.285v-.518H57.079v5.663h4V39.43H57.678Zm-.065,2.524h2.994v-.51H57.613Zm15.724,2.456a1.579,1.579,0,0,0,.692-.566,1.386,1.386,0,0,0,.227-.765,1.243,1.243,0,0,0-.19-.72,1.4,1.4,0,0,0-.5-.441,3.484,3.484,0,0,0-.68-.271q-.368-.105-.74-.194a6.243,6.243,0,0,1-.684-.2,1.268,1.268,0,0,1-.5-.316.747.747,0,0,1-.19-.534.9.9,0,0,1,.158-.522,1.067,1.067,0,0,1,.489-.368,2.214,2.214,0,0,1,.841-.138,2.95,2.95,0,0,1,.789.113,2.675,2.675,0,0,1,.773.356l.2-.477a2.725,2.725,0,0,0-.809-.368,3.444,3.444,0,0,0-.947-.133,2.813,2.813,0,0,0-1.181.214,1.554,1.554,0,0,0-.684.566,1.417,1.417,0,0,0-.223.773,1.277,1.277,0,0,0,.19.732,1.414,1.414,0,0,0,.5.449,3.14,3.14,0,0,0,.684.271q.372.1.744.19a5.533,5.533,0,0,1,.68.206,1.313,1.313,0,0,1,.5.32.748.748,0,0,1,.19.534.858.858,0,0,1-.158.5,1.053,1.053,0,0,1-.494.36,2.385,2.385,0,0,1-.87.134,2.887,2.887,0,0,1-1.064-.2,2.389,2.389,0,0,1-.805-.489l-.235.461a2.312,2.312,0,0,0,.894.53,3.574,3.574,0,0,0,1.21.206,2.863,2.863,0,0,0,1.193-.214m10.028.166,2.379-5.316H85.5l2.379,5.316h.631l-2.589-5.663h-.591l-2.589,5.663Zm4.045-1.513-.178-.485H83.94l-.178.485ZM100.3,39.782a1.579,1.579,0,0,0,.692-.566,1.386,1.386,0,0,0,.227-.765,1.243,1.243,0,0,0-.19-.72,1.4,1.4,0,0,0-.5-.441,3.483,3.483,0,0,0-.68-.271q-.368-.105-.74-.194a6.247,6.247,0,0,1-.684-.2,1.268,1.268,0,0,1-.5-.316.747.747,0,0,1-.19-.534.9.9,0,0,1,.158-.522,1.067,1.067,0,0,1,.489-.368,2.214,2.214,0,0,1,.841-.138,2.949,2.949,0,0,1,.789.113,2.675,2.675,0,0,1,.773.356l.2-.477a2.725,2.725,0,0,0-.809-.368,3.444,3.444,0,0,0-.947-.133,2.813,2.813,0,0,0-1.181.214,1.554,1.554,0,0,0-.684.566,1.417,1.417,0,0,0-.223.773,1.276,1.276,0,0,0,.19.732,1.415,1.415,0,0,0,.5.449,3.14,3.14,0,0,0,.684.271q.372.1.744.19a5.53,5.53,0,0,1,.68.206,1.313,1.313,0,0,1,.5.32.748.748,0,0,1,.19.534.858.858,0,0,1-.158.5,1.054,1.054,0,0,1-.494.36,2.385,2.385,0,0,1-.87.134,2.887,2.887,0,0,1-1.064-.2,2.388,2.388,0,0,1-.805-.489L97,39.26a2.312,2.312,0,0,0,.894.53A3.574,3.574,0,0,0,99.1,40a2.863,2.863,0,0,0,1.193-.214" transform="translate(0 0.004)" fill="#2b2828"/>
</svg>
