<svg id="ips" xmlns="http://www.w3.org/2000/svg" xmlns:xlink="http://www.w3.org/1999/xlink" width="140" height="26.028" viewBox="0 0 140 26.028">
  <defs>
    <clipPath id="clip-path">
      <rect id="Rect치ngulo_115" data-name="Rect치ngulo 115" width="140" height="26.028" fill="none"/>
    </clipPath>
  </defs>
  <g id="Grupo_1713" data-name="Grupo 1713" clip-path="url(#clip-path)">
    <path id="Trazado_12486" data-name="Trazado 12486" d="M580.169,6.719l-1.622,3.9s-1.324-.593-1.71-.712c-2.081-.64-7.516-1.54-7.747,1.733-.182,2.582,4.386,3.536,6.216,4.364,3.835,1.736,6.294,4.478,4.988,8.979-1.392,4.8-6.817,6.147-11.241,5.331a12.286,12.286,0,0,1-5.46-2.462l1.729-3.809,1.519.963c2.224,1.456,7.449,2.509,8.484-.826,1.188-3.827-4.427-4.656-6.831-5.8-7.672-3.64-4.8-13.231,3.193-13.284,0,0,5.564,0,8.481,1.618" transform="translate(-534.433 -4.837)" fill="#0f69b3"/>
    <path id="Trazado_12487" data-name="Trazado 12487" d="M0,10.465H4.969V35.308H.134Z" transform="translate(0 -9.924)" fill="#0f69b3"/>
    <path id="Trazado_12488" data-name="Trazado 12488" d="M199.636,26.714v8.594h-4.969V10.465h8.93a12.967,12.967,0,0,1,4.5,1.408c5.427,3.135,4.41,11.157-.986,13.79-2.314,1.129-4.956,1.091-7.476,1.051m0-3.894h3.156a9.335,9.335,0,0,0,1.636-.513c2.66-1.3,2.891-6.173-.134-7.3a9.505,9.505,0,0,0-1.5-.378h-3.156Z" transform="translate(-184.595 -9.924)" fill="#0f69b3"/>
    <path id="Trazado_12489" data-name="Trazado 12489" d="M1347.161,430.482a3.388,3.388,0,0,1,.147-1.109c.5-1.637,2.486-1.892,3.934-1.581a2.5,2.5,0,0,1,1.854,2.143v1.643c-1.956,0-3.915,0-5.871,0a2.7,2.7,0,0,1-.065-1.1" transform="translate(-1277.419 -405.55)" fill="#e53139"/>
    <path id="Trazado_12490" data-name="Trazado 12490" d="M1266.4,455.452a4.362,4.362,0,0,1,.065,1.1c-1.5,0-3.012,0-4.516,0v-1.063c0-.731,1.035-1.394,1.707-1.452,1.182-.1,2.447.083,2.744,1.42" transform="translate(-1196.66 -430.52)" fill="#1666ae"/>
    <path id="Trazado_12491" data-name="Trazado 12491" d="M1374.543,354.583c2.417-.414,2.711,3.175.558,3.392a1.723,1.723,0,0,1-.558-3.392" transform="translate(-1302.174 -336.206)" fill="#e53139"/>
    <path id="Trazado_12492" data-name="Trazado 12492" d="M1281.639,397.334a1.326,1.326,0,0,1,.364,2.62,1.326,1.326,0,1,1-.364-2.62" transform="translate(-1214.235 -376.767)" fill="#1666ae"/>
    <path id="Trazado_12493" data-name="Trazado 12493" d="M1360.615,24.773V1.319A1.444,1.444,0,0,0,1359.354,0c-4.161,0-8.323,0-12.483,0l-.129.08V19.394l.129.062c.994-2.833,3.469-3.183,6.16-2.962a4.267,4.267,0,0,1,3.907,3.894,42.74,42.74,0,0,1,0,4.837,5.758,5.758,0,0,1-.132.8h2.742c.386,0,1.137-.813,1.067-1.254m-6.735-9.656c-2.786,2.838-6.974-1.717-3.978-4.327,2.842-2.475,6.6,1.653,3.978,4.327" transform="translate(-1277.065 0)" fill="#e53139"/>
    <path id="Trazado_12494" data-name="Trazado 12494" d="M1132.8.018c-3.429,0-6.86,0-10.289,0a1.6,1.6,0,0,0-1.52,1.51l0,23.194a1.556,1.556,0,0,0,.771,1.1,5.85,5.85,0,0,0,.552.222h2.871V21.7a4.137,4.137,0,0,1,.711-1.673c1.1-1.414,2.946-1.469,4.61-1.321a3.514,3.514,0,0,1,2.194,1.093c.142-.075.069-.241.1-.321Zm-7.16,8.568-.1-2.319s-1.9-1.287-1.839-1.287l2.1-.775.646-2.188,1.388,1.769,2.257-.1-1.216,1.915.764,2.143-2.161-.618Zm4.024,9.462c-3.2.29-3.577-4.472-.621-4.871,3.312-.447,3.765,4.586.621,4.871" transform="translate(-1062.993 -0.017)" fill="#1666ae"/>
    <path id="Trazado_12495" data-name="Trazado 12495" d="M1920.327,15.139a18.387,18.387,0,0,0,.168-3.97h-2.115V22.235s2.115.009,2.115,0V16.28c0-.318,1.753-.735,2.33-.131a2.873,2.873,0,0,1,.377.722v5.368c0,.009,2.2.009,2.2,0V16.618a4.525,4.525,0,0,0-.555-1.557c-.88-1.226-3.6-1.138-4.52.079" transform="translate(-1819.128 -10.591)" fill="#0063ae"/>
    <path id="Trazado_12496" data-name="Trazado 12496" d="M1736.277,14.727l.727-1.775c-1.779-1.033-4.834-1.31-6.519,0-1.731,1.349-2.013,4-1.725,6.027.472,3.34,2.815,4.734,6.084,4.07a6,6,0,0,0,2.158-.977l-.556-1.688c-1.257.667-2.888,1.413-4.255.576-1.552-.95-1.561-4.449-.749-5.87.949-1.659,3.466-1.279,4.835-.366" transform="translate(-1639.226 -11.446)" fill="#0063ae"/>
    <path id="Trazado_12497" data-name="Trazado 12497" d="M2177.21,20.251V11.17h-2.115V20.5a3.843,3.843,0,0,0,.4,1.119c.614.884,2.041.747,2.982.612V20.716s-1.269.113-1.269-.465" transform="translate(-2062.562 -10.592)" fill="#0063ae"/>
    <path id="Trazado_12498" data-name="Trazado 12498" d="M2080.964,72.938l.894.163v6.293a.856.856,0,0,0,.127.127h1.988V71.581h-2.918Z" transform="translate(-1973.301 -67.878)" fill="#0063ae"/>
    <path id="Trazado_12499" data-name="Trazado 12499" d="M2096.608,11.17v1.943h2.2c.009,0,0-1.943,0-1.943Z" transform="translate(-1988.135 -10.592)" fill="#0063ae"/>
    <path id="Trazado_12500" data-name="Trazado 12500" d="M2266.87,72.687a3.3,3.3,0,0,0-2.6-3.315c-3.02-.408-4.613,1.515-4.418,4.412.256,3.817,3.927,4.542,6.827,2.878l-.446-1.4c-1.568.818-4.192,1.141-4.267-1.27h4.907Zm-4.907.042c.011-2.433,2.927-2.528,2.876,0Z" transform="translate(-2142.916 -65.731)" fill="#0063ae"/>
    <path id="Trazado_12501" data-name="Trazado 12501" d="M2270.544,335.646a3.684,3.684,0,0,0-3.749.828c-.05-.782-.167-1.054-1.017-.93v7.947l1.258,0,.09-6.309a4.666,4.666,0,0,1,.54-.391c.956-.547,2.364-.6,2.835.583a6.607,6.607,0,0,1,.187.659v5.453h1.27V337.7a2.607,2.607,0,0,0-1.415-2.054" transform="translate(-2148.553 -318.069)" fill="#0063ae"/>
    <path id="Trazado_12502" data-name="Trazado 12502" d="M1910.236,313.757a1.672,1.672,0,0,1-.38-.466v-5.453h2.286l-.006-.93h-2.28v-1.479l-.095-.2-1.175.372v1.31H1907.4v.93h1.185v5.368a5.529,5.529,0,0,0,.212.719c.491,1.137,1.855,1.21,2.9.869.35-.114.513-.205.573-.323l-.131-.884s-1.176.654-1.9.17" transform="translate(-1808.716 -289.434)" fill="#0063ae"/>
    <path id="Trazado_12503" data-name="Trazado 12503" d="M2030.376,337.746h-1.99c-.025.955-.006.9.852,1.064l.007,6.745,1.258.012v-7.693a.845.845,0,0,0-.127-.127" transform="translate(-1923.438 -320.272)" fill="#0063ae"/>
    <rect id="Rect치ngulo_114" data-name="Rect치ngulo 114" width="1.228" height="1.353" transform="translate(105.711 14.431)" fill="#0063ae"/>
    <path id="Trazado_12504" data-name="Trazado 12504" d="M1733.811,282.079l-3.084,10.7,1.226.043.729-2.7,4.4.038.668,2.741h1.355l-2.718-10.813Zm-.886,6.938,1.564-5.838h.927l1.4,5.838Z" transform="translate(-1641.184 -267.485)" fill="#0063ae"/>
    <path id="Trazado_12505" data-name="Trazado 12505" d="M2422.567,280.92c-4.062-2.313-6.377,2.145-4.951,5.663a2.929,2.929,0,0,0,4.994.847c0-.015.293.891.293.891l.935-.02V277.285h-1.27Zm-.044,5.663c-1.805,1.765-3.774,1.052-4.009-1.489-.27-2.909,1.019-4.849,4.039-3.315Z" transform="translate(-2292.134 -262.939)" fill="#0063ae"/>
    <path id="Trazado_12506" data-name="Trazado 12506" d="M2586.068,340.04v-1.395a3.244,3.244,0,0,0-2.592-2.992c-2.954-.347-4.141,1.971-3.926,4.6.3,3.654,3.589,4.291,6.427,2.741l-.249-.922s-.948.445-1.139.51c-2.124.729-3.893-.166-3.771-2.539Zm-1.185-.845h-4.064c-.144-3.472,4.2-3.545,4.064,0" transform="translate(-2446.068 -318.254)" fill="#0063ae"/>
    <path id="Trazado_12507" data-name="Trazado 12507" d="M2103.6,337.446c-1,3.326.768,6.571,4.573,5.665.22-.052,1.6-.644,1.6-.644l-.24-.883s-.392.166-.539.232c-2.254,1.005-4.391.5-4.375-2.3h5.249v-1.564c0-.073-.245-.838-.3-.971a3.165,3.165,0,0,0-5.969.463m5.081,1.227h-4.064c-.095-3.452,4.254-3.566,4.064,0" transform="translate(-1994.503 -317.732)" fill="#0063ae"/>
  </g>
</svg>
