<svg id="latam" xmlns="http://www.w3.org/2000/svg" xmlns:xlink="http://www.w3.org/1999/xlink" width="140" height="32.542" viewBox="0 0 140 32.542">
  <defs>
    <clipPath id="clip-path">
      <rect id="Rectángulo_117" data-name="Rectángulo 117" width="140" height="32.542" fill="none"/>
    </clipPath>
  </defs>
  <g id="Grupo_1715" data-name="Grupo 1715" clip-path="url(#clip-path)">
    <path id="Trazado_12522" data-name="Trazado 12522" d="M2132.9,170.023l4.214-16.287h4.659a3,3,0,0,1,1.79.368,2.437,2.437,0,0,1,.78,1.226l2.531,7.882,3.3-9.475h4.509a3.339,3.339,0,0,1,1.7.455,2.342,2.342,0,0,1,.756,1.138l3.7,14.693h-4.378l-3.3-12.524-3.466,9.547h-4.641a1.819,1.819,0,0,1-1.094-.307c-.535-.361-.552-.692-.552-.692l-2.825-8.549-3.241,12.524Z" transform="translate(-2020.843 -145.648)" fill="#2a0088" fill-rule="evenodd"/>
    <path id="Trazado_12523" data-name="Trazado 12523" d="M1306.662,153.908v3.249l7.819.525V170.2H1319V157.682l7.819-.525v-3.249Z" transform="translate(-1238.012 -145.822)" fill="#2a0088" fill-rule="evenodd"/>
    <path id="Trazado_12524" data-name="Trazado 12524" d="M912.475,153.9l-8.143,16.287h5.006l1.423-2.995h9.08l1.39,2.995h4.978l-7.726-15.219a2,2,0,0,0-.69-.811,2.077,2.077,0,0,0-.9-.257h-4.418Zm2.765,3.517,2.993,6.465H912.2l3.039-6.465Z" transform="translate(-856.82 -145.817)" fill="#2a0088" fill-rule="evenodd"/>
    <path id="Trazado_12525" data-name="Trazado 12525" d="M577,153.905v16.287H590.75l1.874-3.748H581.713V153.905Z" transform="translate(-546.687 -145.819)" fill="#2a0088" fill-rule="evenodd"/>
    <path id="Trazado_12526" data-name="Trazado 12526" d="M1685.446,153.9,1677.3,170.19h5.006l1.422-2.995h9.08l1.39,2.995h4.978l-7.726-15.219a2,2,0,0,0-.69-.811,2.077,2.077,0,0,0-.9-.257h-4.418Zm2.765,3.517,2.993,6.465h-6.032l3.039-6.465Z" transform="translate(-1589.179 -145.817)" fill="#2a0088" fill-rule="evenodd"/>
    <path id="Trazado_12527" data-name="Trazado 12527" d="M2.332,191.685l3.614-1.032a.725.725,0,0,0-.168-.36,1.158,1.158,0,0,0-.363-.192L.392,188.276a.394.394,0,0,0-.276.011A.278.278,0,0,0,0,188.52v2.336a1.465,1.465,0,0,0,.311.725c.324.5,1.091.374,1.091.374Z" transform="translate(-0.004 -178.365)" fill="#ed1651" fill-rule="evenodd"/>
    <path id="Trazado_12528" data-name="Trazado 12528" d="M103.408,7.684,106.769,5.8s.051-.325-.079-.444a.713.713,0,0,0-.284-.155L91.888.02a.394.394,0,0,0-.276.011A.278.278,0,0,0,91.5.264V2.278a1.945,1.945,0,0,0,.322.968,1.558,1.558,0,0,0,.85.631Z" transform="translate(-86.692 0)" fill="#ed1651" fill-rule="evenodd"/>
    <path id="Trazado_12529" data-name="Trazado 12529" d="M16.715,86.107l3.362-1.742s.072-.441-.058-.559a1.03,1.03,0,0,0-.3-.181L.388,76.605a.394.394,0,0,0-.276.011A.277.277,0,0,0,0,76.848v2.014a1.946,1.946,0,0,0,.322.968,1.558,1.558,0,0,0,.85.631Z" transform="translate(0 -72.56)" fill="#ed1651" fill-rule="evenodd"/>
    <path id="Trazado_12530" data-name="Trazado 12530" d="M19.715,99.008a.732.732,0,0,1,.363.192.554.554,0,0,1,.168.36v2.667a2,2,0,0,1-.157.692.741.741,0,0,1-.368.405l-.455.165-14.509,5.27a.609.609,0,0,1-.321,0L.392,107.29s-.1-.023-.243-.246A1.675,1.675,0,0,1,0,106.3a.645.645,0,0,0,.169.375c.144.121.527-.012.527-.012l18.568-6.744s.737-.3.737-.606c0-.211-.287-.3-.287-.3Z" transform="translate(0 -93.806)" fill="#2a0088" fill-rule="evenodd"/>
    <path id="Trazado_12531" data-name="Trazado 12531" d="M105.464,210.588a.732.732,0,0,1,.363.192.554.554,0,0,1,.168.36v2.667a2,2,0,0,1-.157.692.741.741,0,0,1-.368.405l-.455.165L90.5,220.339v-3.573l14.509-5.27s.737-.3.737-.606C105.751,210.679,105.464,210.588,105.464,210.588Z" transform="translate(-85.75 -199.524)" fill="#2a0088" fill-rule="evenodd"/>
    <path id="Trazado_12532" data-name="Trazado 12532" d="M98.259,388.506a.751.751,0,0,1,.139.444v1.994a2,2,0,0,1-.157.692.741.741,0,0,1-.368.405l-.455.165L90.5,394.719v-3.573l6.915-2.512S98.12,388.368,98.259,388.506Z" transform="translate(-85.747 -368.057)" fill="#2a0088" fill-rule="evenodd"/>
    <path id="Trazado_12533" data-name="Trazado 12533" d="M93.8,530.426a.751.751,0,0,1,.139.444v1.994a2,2,0,0,1-.157.692.741.741,0,0,1-.368.405l-.455.165-2.454.936V531.49l2.454-.936S93.659,530.288,93.8,530.426Z" transform="translate(-85.747 -502.521)" fill="#2a0088" fill-rule="evenodd"/>
  </g>
</svg>
