<svg id="marubeni" xmlns="http://www.w3.org/2000/svg" xmlns:xlink="http://www.w3.org/1999/xlink" width="140" height="14.372" viewBox="0 0 140 14.372">
  <defs>
    <clipPath id="clip-path">
      <rect id="Rectángulo_112" data-name="Rectángulo 112" width="140" height="14.372" fill="none"/>
    </clipPath>
  </defs>
  <g id="Grupo_1711" data-name="Grupo 1711" clip-path="url(#clip-path)">
    <path id="Trazado_12469" data-name="Trazado 12469" d="M25.873,15.017c-.2-2.919.181-6.153-.063-9.04A2.9,2.9,0,0,0,22.876,3.2a35.38,35.38,0,0,0-4.459,0A2.832,2.832,0,0,0,16.2,4.555l-2.529,5.21-.122.07L11.024,4.48A3.252,3.252,0,0,0,8.458,3.2c-2.624-.179-5.449.141-8.094,0-.786.057-.079.72.1,1.117.678,1.549.4,3.9.428,5.605.037,2.294.131,4.606.111,6.908a.484.484,0,0,0,.194.355H9.418a.434.434,0,0,0,.016-.257c-.05-.122-.247-.253-.336-.383a3.277,3.277,0,0,1-.5-1.416V11.1l2.437,5c.491,1.17,1.744,1.278,2.873,1.194a2.048,2.048,0,0,0,1.948-1.13c.724-1.337,1.291-2.85,2-4.208l.377-.693v5.675c0,.066.192.288.3.249h7.82c.471-.119.033-.406-.076-.588a3.947,3.947,0,0,1-.394-1.582" transform="translate(0 -2.957)" fill="#e50013"/>
    <path id="Trazado_12470" data-name="Trazado 12470" d="M1384.445,8.042c-.368-.033-.429-.173-.464-.524-.082-.814.069-1.739-.013-2.565-.038-.179-.2-.244-.359-.3l-7.279.015a.218.218,0,0,0-.1.122c-.059.2.427.96.526,1.265a7.2,7.2,0,0,1,.29,1.575c.213,3.357-.156,6.93,0,10.31.036.429.116.642.577.686a28.185,28.185,0,0,0,4.83-.073,1.9,1.9,0,0,0,1.639-1.575l1.063.667c4.791,2.575,10.263.432,9.439-5.622-.709-5.215-6.564-3.657-10.148-3.981m2.646,6.908c-.653,1.325-3.111,1-3.111-.413V11.027c0-.015.064-.054.083-.082h1.761a1.777,1.777,0,0,1,.879.331c.843.669.825,2.79.389,3.674" transform="translate(-1300.489 -4.396)" fill="#e50013"/>
    <path id="Trazado_12471" data-name="Trazado 12471" d="M1061.427,65.452h-7.237c-.159.316.1.438.213.692.735,1.657.153,4.41.323,6.23a2.336,2.336,0,0,1-2.27,1.929.8.8,0,0,1-.895-.722c-.1-1.819.091-3.715-.014-5.524-.088-1.518-.507-2.469-2.174-2.6-1.715-.14-3.606.1-5.34,0-.608.2-.007.587.164.828.732,1.032.333,4.29.414,5.674a3.979,3.979,0,0,0,3.773,4.082l13.03-.01.234-.26c.03-3.353.063-6.729-.017-10.078a1.025,1.025,0,0,0-.206-.233" transform="translate(-986.329 -61.809)" fill="#e50013"/>
    <path id="Trazado_12472" data-name="Trazado 12472" d="M501.867,74.4c-.182-2.459.2-5.176,0-7.623a1.391,1.391,0,0,0-.126-.505.765.765,0,0,0-.4-.126H489.234c-3.609.429-5.008,3.117-4.348,6.53.695,3.592,3.518,4.388,6.829,4.167a5.085,5.085,0,0,0,3.245-1.537,1.949,1.949,0,0,0,1.657,1.419c1.75.182,3.774-.124,5.554.009.747-.063.112-.694-.031-1.07a5.129,5.129,0,0,1-.273-1.263m-6.987-1.971c-.151,1.673-2.888,1.73-3.083-.442-.081-.906.026-2.266.99-2.686a7.086,7.086,0,0,1,1.75-.288.316.316,0,0,1,.34.235c-.068,1.026.094,2.171,0,3.181" transform="translate(-458.053 -62.506)" fill="#e50013"/>
    <path id="Trazado_12473" data-name="Trazado 12473" d="M831.5,65.137c-2.667-.2-5.565.148-8.257,0a.361.361,0,0,0-.413.411c.185,3.141-.237,6.546,0,9.655a.725.725,0,0,0,.135.469h7.219c.21-.162-.18-.791-.249-1.023a16.587,16.587,0,0,1-.166-4.71,7.987,7.987,0,0,1,.082-1.947c.131-.255.693.087.832.236a3.221,3.221,0,0,1,.212,2.339c-.074.31-.458,1-.469,1.183a.222.222,0,0,0,.149.233l4.6-1.429c.341-.086.35-.541.369-.838a3.988,3.988,0,0,0-4.045-4.577" transform="translate(-777.476 -61.493)" fill="#e50013"/>
    <path id="Trazado_12474" data-name="Trazado 12474" d="M1743.81,64.976c-3.51-.217-7.248.161-10.782.009a3.181,3.181,0,0,0-2.75,2.579,22.957,22.957,0,0,0-.011,5.094,3.356,3.356,0,0,0,3.192,2.905c3.316-.167,6.839.215,10.13,0,1.522-.1,3.191-.7,3.523-2.357.062-.308.206-1.037-.142-1.181L1740.894,72c-.328.052-.732.782-1.092,1a2.28,2.28,0,0,1-1.706.142,1.86,1.86,0,0,1-.974-1.277V69.694c.718.441,1.4,1.338,2.284,1.425l7.43,0c.319-.02.442-.3.469-.574a13.153,13.153,0,0,0-.183-3.606c-.446-1.4-1.969-1.882-3.312-1.964m-3.468,3.952c-.165.627-1.368.437-1.872.381a3.115,3.115,0,0,1-1.269-.326c-.126-.136-.161-1.076.069-1.143.838.088,3.489-.5,3.072,1.087" transform="translate(-1634.92 -61.335)" fill="#e50013"/>
    <path id="Trazado_12475" data-name="Trazado 12475" d="M2084.5,75.818a2.547,2.547,0,0,1-.434-1.158c-.331-3.29,1.155-8.075-3.774-8.522h-12.717c-.361-.019-.441.278-.468.576l.055,9.6a.358.358,0,0,0,.219.385l7.213,0c.253-.149-.222-.668-.318-.891-.671-1.551-.111-4.332-.264-6.049a2.412,2.412,0,0,1,2.641-1.858.565.565,0,0,1,.233.123,2.2,2.2,0,0,1,.24.94c.125,1.789-.147,3.76,0,5.539a2.23,2.23,0,0,0,2.284,2.221c1.715.14,3.606-.105,5.341,0,.763-.076-.089-.695-.251-.908" transform="translate(-1953.354 -62.497)" fill="#e50013"/>
    <path id="Trazado_12476" data-name="Trazado 12476" d="M2398.165,75.6a3.951,3.951,0,0,1-.234-1.028c-.19-2.516.234-5.357,0-7.843-.031-.335-.155-.569-.522-.576l-7.148.011c-.3.1.23.6.329.752a4.1,4.1,0,0,1,.573,2.116c.123,2.431-.094,4.965,0,7.407-.005.146.1.223.22.274h7.215c.2-.14-.341-.877-.429-1.114" transform="translate(-2258.639 -62.512)" fill="#e50013"/>
    <path id="Trazado_12477" data-name="Trazado 12477" d="M2407.633,2.821a9.9,9.9,0,0,0,4.873-.136,1.26,1.26,0,0,0,.653-1.423C2412.984,0,2410.79,0,2409.835,0c-1.1,0-3.346.009-3.308,1.578a1.321,1.321,0,0,0,1.106,1.244" transform="translate(-2274.092 0)" fill="#e50013"/>
  </g>
</svg>
