<svg id="metrogas" xmlns="http://www.w3.org/2000/svg" xmlns:xlink="http://www.w3.org/1999/xlink" width="140" height="36.773" viewBox="0 0 140 36.773">
  <defs>
    <clipPath id="clip-path">
      <rect id="Rectángulo_111" data-name="Rectángulo 111" width="140" height="36.773" fill="none"/>
    </clipPath>
  </defs>
  <g id="Grupo_1710" data-name="Grupo 1710" clip-path="url(#clip-path)">
    <path id="Trazado_12459" data-name="Trazado 12459" d="M646.269,252.712v3.853h4.173c.357,0,.415.568.434.832a4.281,4.281,0,0,1-.289,2.246,1.3,1.3,0,0,1-.605.316h-3.713v5.09a4.7,4.7,0,0,0,.119.629c.353,1.277,2.462.882,3.417.661.272-.063,1.058-.394,1.258-.274a4.239,4.239,0,0,1,.6,1.359c.229,1.012-.024,1.337-.923,1.747-3.137,1.432-8.1.985-8.158-3.372V253.2a.515.515,0,0,1,.319-.486Z" transform="translate(-605.571 -238.159)" fill="#004882"/>
    <path id="Trazado_12460" data-name="Trazado 12460" d="M16.464,329.7v-8.2A2.159,2.159,0,0,0,14.7,319.76a2.216,2.216,0,0,0-2.73,2.033c-.187,2.365.145,4.973,0,7.364a.681.681,0,0,1-.489.6H8.318a.577.577,0,0,1-.086-.086v-8.167a2.067,2.067,0,0,0-1.656-1.739c-1.573-.213-2.771.5-2.894,2.14-.177,2.355.136,4.929,0,7.308a.651.651,0,0,1-.433.545H0v-8.6A6.157,6.157,0,0,1,.782,318.9c1.883-3.047,7.11-3.351,9.378-.581,2.111-2.545,7.093-2.6,9.056.155,1.835,2.574.639,7.528.992,10.574.029.185-.186.659-.377.659Z" transform="translate(0 -298.185)" fill="#004882"/>
    <path id="Trazado_12461" data-name="Trazado 12461" d="M387.3,323.791c.639,2.522,3.94,2.511,6,2.11.473-.092,1.177-.409,1.58-.438.279-.02.353.029.468.268a6.824,6.824,0,0,1,.42,1.827c0,.988-1.422,1.269-2.191,1.439-5.5,1.21-10.653-1.1-10.189-7.362.6-8.068,13.961-7.908,13.181.861a2.183,2.183,0,0,1-.371,1.068,1.186,1.186,0,0,1-.406.227Zm5.757-2.588a2.736,2.736,0,0,0-2.444-2.475c-1.75-.134-3.126.665-3.37,2.475Z" transform="translate(-361.281 -297.563)" fill="#004882"/>
    <path id="Trazado_12462" data-name="Trazado 12462" d="M1260.643,327.682c-2.113,2.154-6.136,1.778-8.089-.4-1.908-2.13-2.093-6.048-.729-8.494,2.485-4.457,10.765-4.321,12.242.959.579,2.071.381,6.306.26,8.541-.1,1.833-.319,3.331-1.816,4.57-1.89,1.565-5.683,1.521-7.982,1.076-1.477-.286-1.667-.766-1.543-2.253.039-.468.13-1.044.687-1.1a18.364,18.364,0,0,1,2.219.319c1.163.107,3.555.189,4.313-.866a3.379,3.379,0,0,0,.435-1.233Zm-3.467-8.668c-3.215.384-3.3,6.168-.288,6.812,2.335.5,3.6-.751,3.754-3,.166-2.407-.83-4.123-3.466-3.808" transform="translate(-1178.901 -297.428)" fill="#004882"/>
    <path id="Trazado_12463" data-name="Trazado 12463" d="M987.069,315.863a6.8,6.8,0,0,1,6.746,8.988c-1.944,6.56-12.521,6.02-13.57-.88-.69-4.536,2.229-8.059,6.824-8.108m0,3.165c-2.392.072-3.358,2.177-3.091,4.32a3.17,3.17,0,0,0,6.318.057c.292-2.216-.7-4.453-3.227-4.377" transform="translate(-923.7 -297.673)" fill="#004882"/>
    <path id="Trazado_12464" data-name="Trazado 12464" d="M822.793,329.189a.306.306,0,0,1-.147-.256c.152-2.9-.193-5.986,0-8.862.227-3.378,3-4.457,6.017-4.167,1.049.1,2.195.264,2.277,1.521a4.521,4.521,0,0,1-.3,1.8c-.195.185-1.1-.078-1.4-.1-1.043-.076-2.376,0-2.75,1.162a4.373,4.373,0,0,0-.157.706v8.2Z" transform="translate(-775.216 -297.67)" fill="#004882"/>
    <path id="Trazado_12465" data-name="Trazado 12465" d="M2059.846,0l0,9.291a14.109,14.109,0,0,1-5.788,10.48c-.62-.564-1.158-1.216-1.818-1.734a9.039,9.039,0,0,0-11.623.453c-1.073.96-2.19,2.444-3.28,3.279-.058.044-.073.112-.173.086l0-7.967A14.431,14.431,0,0,1,2050.547,0Z" transform="translate(-1919.848)" fill="#a7aa15"/>
    <path id="Trazado_12466" data-name="Trazado 12466" d="M2058.945,296.216a7.978,7.978,0,0,1,3.291.705c2.205,1,3.617,3.172,5.376,4.752l.056.118-.056.118c-1.079.992-2.059,2.15-3.139,3.133a7.9,7.9,0,0,1-8.044,1.88c-2.616-.859-4.227-3.2-6.178-4.984l-.086-.147.086-.147c2.67-2.574,4.577-5.418,8.695-5.429" transform="translate(-1932.101 -279.157)" fill="#004882"/>
    <path id="Trazado_12467" data-name="Trazado 12467" d="M1520.99,322.035v-.949a3.774,3.774,0,0,0-.149-.426,1.659,1.659,0,0,0-1.269-.687,14.1,14.1,0,0,0-3.726,0,8.32,8.32,0,0,1-2.111.254c-.451-.14-.279-1.234-.4-1.613.068-.6.093-1.081.665-1.411,1.062-.611,4.446-.637,5.7-.516,3.482.338,4.879,1.781,5.037,5.262a54.281,54.281,0,0,1,0,6.037c-.128,1.523-1.564,1.665-2.818,1.9-3.143.589-9.5.909-9.79-3.564-.34-5.163,5.32-4.7,8.868-4.287m0,2.473H1517.1a5.06,5.06,0,0,0-.587.161,1.2,1.2,0,0,0-.115,2.093c.828.519,2.89.438,3.842.251.161-.032.745-.17.745-.348Z" transform="translate(-1425.029 -298.395)" fill="#004882"/>
    <path id="Trazado_12468" data-name="Trazado 12468" d="M1769.124,317.5c1.125-.088,4.294,0,4.987,1.022.31.457.266,2.32-.211,2.542a8.458,8.458,0,0,1-2.22-.343c-.706-.108-3.166-.39-3.44.5s.594,1.081,1.24,1.24c2.272.559,5.386.579,5.641,3.681.392,4.773-4.629,5.266-8.184,4.611-1.029-.19-2.624-.544-2.752-1.794-.045-.441.084-1.908.616-2.028a9.907,9.907,0,0,1,2.491.649,7.042,7.042,0,0,0,3.327.1c.893-.287,1.111-1.16.167-1.579-2.132-.945-5.617-.347-6.229-3.554-.6-3.16,1.685-4.821,4.567-5.046" transform="translate(-1662.583 -299.192)" fill="#004882"/>
  </g>
</svg>
