<svg id="ontherun" xmlns="http://www.w3.org/2000/svg" xmlns:xlink="http://www.w3.org/1999/xlink" width="140" height="46.179" viewBox="0 0 140 46.179">
  <defs>
    <clipPath id="clip-path">
      <rect id="Rectángulo_110" data-name="Rectángulo 110" width="140" height="46.179" fill="none"/>
    </clipPath>
  </defs>
  <g id="Grupo_1709" data-name="Grupo 1709" clip-path="url(#clip-path)">
    <path id="Trazado_12451" data-name="Trazado 12451" d="M8.874,12.376S2.068,19.918.351,29.3s3.372,13.367,4.261,13.49,8.063.123,12.171-3,8.707-10.73,9.749-15.881.429-9.013-.858-10.117-4.66-2.085-9.2.123S7.832,21.941,7.464,26.6c-.061,1.349,0,2.207.981,1.9a17.4,17.4,0,0,0,2.575-1.226,2.534,2.534,0,0,0,1.349-1.656,28.962,28.962,0,0,1,2.821-7.051c1.226-1.839,2.207-2.882,3.863-2.882s2.575,3.679,1.84,8.707S14.025,40.888,9.916,40.765s-5.089-7.481-4.66-11.343a28.755,28.755,0,0,1,4.783-11.957,30.028,30.028,0,0,1,4.66-5.089s.736-.981.429-1.226a6.971,6.971,0,0,0-2.269,0s-2.895-.1-3.986,1.226" transform="translate(0 -10.472)" fill="#466eb4"/>
    <path id="Trazado_12452" data-name="Trazado 12452" d="M433.626,296.788s2.591-5.627,3.258-7.367,1.037-3.85,1.74-4.257a31.658,31.658,0,0,1,3.813-1.259s1.222-.259,1.037.74a28.412,28.412,0,0,1-1.925,4.22s.37.444.926-.222,1.851-2.737,3.221-2.942,3.554-.39,3,.906a41.756,41.756,0,0,0-2.11,6.923c-.185,1.518-.259,2.3.259,2.443a2.947,2.947,0,0,0,2.591-1.185c.963-1.074,1.777-2.39,2.665-2.491s3.036.084,2.147,1.158-6.923,4.776-8.663,5.442a2.837,2.837,0,0,1-3.406-.518c-.7-.7-.074-6.368-.074-6.368s.259-.851-.037-.851-3.147,5.109-3.147,5.109-2.11,2.888-4.405,2.7c-1.315-.222-.888-2.184-.888-2.184" transform="translate(-411.207 -269.24)" fill="#466eb4"/>
    <path id="Trazado_12453" data-name="Trazado 12453" d="M888.1,36.915a14.481,14.481,0,0,1-2.45,0s-2.906,6.106-7.009,5.821c-2.735-1.425-1.083-4.331-1.083-4.331s3.077-.114,5.755-3.932,1.994-5.926.684-6.439-9.459.342-10.941,10.827a5.719,5.719,0,0,1-2.336,1.368c-.912.057.969-7.693.969-7.693s1.083-2.792.057-2.963a22.594,22.594,0,0,0-4.1.285L864,34.075l2.108-6.439a1.407,1.407,0,0,1,.969-1.083c.8-.171,4.331-.684,4.331-.684s1.14-.285,1.14-.912.057-1.2-.8-1.14-4.217.684-4.217.684,3.3-7.123,3.761-7.921.912-1.709.285-1.937-3.932.741-3.932.741-.57.228-.912,1.368-3.818,9.06-3.818,9.06l-2.507.513s-.513-.171-.285-.57,1.254-2.279,1.254-2.279.836-1.975-.855-1.71c0,0-3.875.456-4.16,1.2s.285,1.14-.342,2.678-1.026,2.336-1.026,2.336-5.3.912-5.983,2.051-.171,1.823.57,1.823,2.963-1.2,3.533-1.14.171.8.171.8l-4.594,10.542s-.819,2.849-.363,3.248,1.937.057,3.191-.684a6.4,6.4,0,0,0,2.837-3.3c.354-1.254,3.773-11.567,3.773-11.567s.228-.855.741-.912,1.88-.341,1.88-.341.8-.456.513.683-4.5,11.852-4.5,11.852-.627,2.763.057,2.806a5.458,5.458,0,0,0,3.248-1.211c.969-.855,4.958-7.579,4.958-7.579l.912-.969s-1.14,7.693,0,8.775,2.735,1.539,7.294-1.311c0,0,.342,2.678,3.818,2.906a10.486,10.486,0,0,0,8.775-3.077,40.68,40.68,0,0,0,2.963-2.963s.4-1.614-.684-1.491M880.865,31s1.14-.513.456,2.45c-.285,1.083-1.709,2.678-2.678,2.45a12.7,12.7,0,0,1,2.222-4.9" transform="translate(-804.461 -13.856)" fill="#466eb4"/>
    <path id="Trazado_12454" data-name="Trazado 12454" d="M1526.494,9.726a1.659,1.659,0,0,1-.914-2.193c.548-1.645,4.448-6.885,17.608-7.494s15.6,6.093,15.171,8.591-2.681,6.885-13.4,9.5c0,0-.3-.02-.122,1.452s2.559,9.088,3.838,11.038,2.193,3.229,1.4,3.716a10.5,10.5,0,0,1-1.95.853s-.487.548-1.4-.366-6.7-12.763-6.7-12.763a17.808,17.808,0,0,0-1.645,4.051c-.366,1.767-.3,2.742-.914,2.864s-3.29,1.036-3.29,1.036-2.132.853-1.889-.609,3.777-9.992,5.483-13.83l3.168-7.128s.287-1.767,1-2.011a30.691,30.691,0,0,1,3.451-.548.9.9,0,0,1,.731,1.4c-.609,1.219-3.777,7.25-3.777,7.25s-.548,1.581.122,1.644a13.775,13.775,0,0,0,6.336-2.558c2.132-1.706,8.164-5.575,2.742-10.3-8.347-3.29-16.511,1.736-17.912,3.5-.666.822-.792.975-2.437,1.523s-3.473,1.4-4.691,1.371" transform="translate(-1446.812 0)" fill="#466eb4"/>
    <path id="Trazado_12455" data-name="Trazado 12455" d="M1996.993,300.734s-1.206,2.8-1.844,4.7-1.631,5.231-1.383,5.9,2.234.5,3.014,0,5.744-5.354,5.744-5.354-1.241,4.5-1.241,4.893-.213,1.064.355,1.241a6.843,6.843,0,0,0,3.865-1.418c.638-.745,4.149-10.647,4.149-10.647s.993-1.941.355-2.26-4.326.532-4.787,1.418a25.952,25.952,0,0,1-1.95,3.794,19.8,19.8,0,0,1-3.227,3.439c-.248,0,.142-2.269.567-3.51s1.631-3.652,1.631-3.652.532-1.52-.567-1.558-4.326,1.061-4.574,1.841a1.984,1.984,0,0,0-.106,1.17" transform="translate(-1890.941 -282.373)" fill="#466eb4"/>
    <path id="Trazado_12456" data-name="Trazado 12456" d="M2263.734,292.015l-2.518,7.411s-1.915,4.373-1.525,5.591c.213.366,3.51-.52,4.219-1.442s2.3-4.4,3.83-6.063,2.057-2.766,2.34-2.695-.39,2.163-.39,2.163-1.525,5.532-.851,6.95,1.915,2.069,4.326,1.087,9.184-5.236,9.928-7.435c.248-.674-.5-.709-.709-.674s-2.376-.284-3.049.39-4.5,5.673-5.78,4.893,3.05-8.936,3.05-8.936a1.353,1.353,0,0,0-.142-1.95c-1.028-.993-4.4-.851-4.893-.319s-4.184,5.035-4.61,4.929,1.56-4.326,1.56-4.326.532-.851-.248-1.206-4.326-.319-4.539,1.631" transform="translate(-2143.144 -275.25)" fill="#466eb4"/>
    <path id="Trazado_12457" data-name="Trazado 12457" d="M330.59,661.069s4.755,3.407,16.607,2.768,33.366-4.26,33.366-4.26,5.4-.639,6.035.923.071,5.041,1.846,5.467,29.739-3.124,36.418-3.763,14.064-.426,15.91.213,1.775,1.42,1.917,2.84.284,2.982-.355,2.982-5.123-1.846-17.472-1.065-30.477,4.97-34.513,4.4-4.817-2.059-4.959-3.408.18-3.479-1.827-3.479-20.681,2.627-26.432,3.55-29.724,4.475-26.542-7.17" transform="translate(-313.272 -625.45)" fill="#f40f16"/>
  </g>
</svg>
