<svg xmlns="http://www.w3.org/2000/svg" width="140" height="65.194" viewBox="0 0 140 65.194">
  <path id="poder-judicial" d="M85.707,10.719v1.717h-3.3l-.083.083V14.6h-.72V30.5c.054-.018.12.055.139.055h1.08v2.881H54.239V30.553h1.247l.083-.083V14.6h-.776V12.437h-3.13l-.083-.083V10.8l.083-.083Zm-9.972,1.717H61.441v2.078c-.075.161-.515.043-.554.083l0,15.765.054.167.411.033.092.075v1.136H75.679V30.553h.554V14.6c-.167-.015-.381.062-.5-.083Zm-19.668.055h-.443v1.662h.443Zm1.053,0h-.388v1.662h.388Zm1.219,0H57.9v1.662h.443Zm1.163,0h-.443v1.662H59.5Zm1.219,0h-.388v1.662h.388Zm16.177,0H76.51v1.662H76.9Zm1.163,0h-.388v1.662h.388Zm1.219,0h-.443v1.662h.443Zm1.163,0H80v1.662h.443Zm1.219,0h-.388v1.662h.388ZM59.17,16.2c.335-.053.131-.772,0-.971a1.128,1.128,0,0,0-1.884.069c-.041.174.066.167.137.293.332-.311.462-.844,1.045-.655a6.605,6.605,0,0,1,.7.695c.025.114-.025.539,0,.569m18.836-.858c-.05.231.036.608,0,.859.115-.051.038-.294.059-.412a2.572,2.572,0,0,1,.65-.8,1.092,1.092,0,0,1,.582-.048c.172.051.158.223.227.3.1.111.279.2.312.352l.11-.027c.078-.43-.092-.344-.257-.492-.227-.2-.159-.291-.544-.313a1.1,1.1,0,0,0-.863.248,1.283,1.283,0,0,0-.275.336M59.059,17.423V15.844a3.609,3.609,0,0,0-.552-.611c-.112-.1-.283-.1-.28-.247l-.668.747,0,.195h.166c-.15-.16.4-.662.472-.65.2.2.658.336.695.619.032.241-.053.606,0,.823.01.045.1.015.114.117.016.123-.031.726,0,.752h.221v-.165Zm20.205-2.311c-.036-.037-.2-.06-.259-.127-.1.312-.548.324-.611.664.294.092.556-.427.736-.381.154.039.164.233.227.306.105.121.266.173.283.353l.138-.165c-.141.017-.13-.135-.2-.219s-.293-.4-.319-.43m-21.019.46c-.031-.022.012-.112-.072-.089.041.209-.225.288-.266.427-.061.207.022.541-.015.767.231.323.495.489.827.156.032-.8.137-.82-.474-1.261M79.36,15.9a.881.881,0,0,0-.356-.42c-.023.233-.405.3-.471.444-.138.305-.016,1.254.485,1.1.018-.006.3-.185.316-.2a1.508,1.508,0,0,0,.116-.819c-.011-.093-.078-.08-.09-.1m-1.022-.143c-.128-.007-.1-.02-.111.082-.017.141-.057.439-.057.558,0,.39.212.816-.109,1.16l.278.028Zm-19.5,1.33a1.781,1.781,0,0,1-.83.111c.087.272-.264.286-.277.5.227-.111.408.148.478.161.035.007.61-.227.627-.312.028-.14-.012-.312,0-.458m20.438.116c-.266-.037-.552.079-.77-.116l-.111.5c.022.024.486.138.568.17.042.017.045.1.072.108.132.034.242-.249.468-.167.031-.141-.119-.123-.165-.208a2.08,2.08,0,0,1-.062-.284M57.507,17.7c-.362-.064-.47.243-.628.481-.054.082-.225.09-.148.35l.223.029-.067.352-.156.118c.576.042.286-.583.34-.791.025-.094.523-.466.435-.538m23.015.645a6.22,6.22,0,0,1-.409-.62l-.279-.025c-.087.264.271.369.321.537s-.031.431.011.585a2.051,2.051,0,0,0,.2.208c.062.022.188,0,.137-.084-.063-.105-.262-.077-.166-.416h.277c.051-.168-.069-.152-.088-.185m.075-.577c-.035-.044-.27-.108-.319-.041.181.269.564.616.5.939-.034.158-.172.258-.107.489.02.073.454.365.5.317a1.627,1.627,0,0,0-.06-.4,7.569,7.569,0,0,0-.434-1.028c-.039-.081-.03-.223-.073-.276M59.89,17.755H58.837c-.006,0,.02.076-.04.11l-.57.223c-.048.135.085.091.108.151.055.144.026.448.108.546.049.059.159.064.223.112.187.142.12.214.478.191.393-.025.323-.247.418-.516.019-.054.2-.138.106-.376h.223Zm18.925.19a2.814,2.814,0,0,0-1.382-.192l-.092.5.332-.056c-.064.488.105.983.682.874.178-.034.148-.165.242-.2.123-.044.246.014.348-.161l.061-.65c-.1,0-.169-.107-.192-.118m-20.754-.023c-.44-.173-.537.123-.821.368l-.019.731-.644.447-.609.239c-.265.848.22,1.092.744.413.049-.063.032-.159.073-.223s.109-.033.112-.038c.013-.02-.193-.169-.083-.387.085-.17.287-.071.4-.125a2.279,2.279,0,0,0,.165-.165c.034-.074,0-.152.016-.224.013-.048.1-.037.109-.077.072-.265-.313-.217-.2-.5.087-.227.72-.082.758-.457m22.416,1.352c-.055-.041-.137-.046-.2-.1-.441-.381-.192-.45-.276-.889a.567.567,0,0,0-.719-.36c-.049.357.542.2.649.456.115.282-.186.314-.064.7.149.474.412.188.571.288.148.166-.016.46.014.567.009.033.409.367.475.443.03.034.008.122.024.136a.454.454,0,0,0,.358-.043l.016-.744-.083-.083c-.225.073-.29-.1-.339-.115-.324-.128-.2-.09-.423-.258m-22.24-.362c-.051-.052.064-.521-.12-.632-.09-.119-.552.139-.557.169-.048.268.3.224.327.255s.1.479.132.534c.043.077,1.171.988,1.343,1.12.264.2.367.484.8.268a10.37,10.37,0,0,0,.01-2.1l-.33,0a1.875,1.875,0,0,0-.112.789c.01.039.086.029.106.079.042.1-.063.289.169.293-.176.279-.311.029-.374,0a7.375,7.375,0,0,1-1.256-.758c-.043-.028-.12-.014-.133-.028m19.27.616c.054-.094-.04-.82,0-1H77.23l-.055-.277c-.026.172.035.412,0,.571-.011.045-.1.015-.114.117a9.921,9.921,0,0,0,.006,1.544,1.864,1.864,0,0,0,.166.175c.379.192.774-.418,1.014-.615.211-.173.372-.277.612-.5.129-.118.434-.2.477-.437.018-.1-.027-.3.008-.352s.4.01.329-.365c-.812-.537-.462.439-.557.524-.016.014-.172-.015-.239,0-.045.011-.043.087-.08.108-.346.2-.642.453-.963.63a.736.736,0,0,1-.492.147.244.244,0,0,1,.166-.277m-21.035-.957c-.04-.092.027-.215-.073-.206.036.223-.446.984-.194,1.107l.362-.255a3.039,3.039,0,0,0,.005-.5c-.033-.167-.093-.13-.1-.149m1.367.791-.166-.609c.059.274-.194.311-.112.609Zm21.828,0c0-.138.005-.278,0-.417,0-.066.041-.206-.055-.193a.586.586,0,0,0-.116.576Zm-21.487.432.074.011c.189-.072-.011-.3-.166-.331a4.862,4.862,0,0,0-1.134.055v.165c.127.016.285-.025.405,0,.043.01.035.123.187.152.392.077.38-.136.544-.156Zm22.152-.264c-.422-.033-1.237-.267-1.384.275l.3-.113c.091.2.36.162.556.173l.06-.174.469,0Zm-22.172.347a.307.307,0,0,0-.154-.016l0,.275a.94.94,0,0,1,.263.039c.088.037.032.143.121.129.046-.111-.159-.385-.233-.427m21.175-.016c-.231.041-.463.18-.387.443l.058-.162.33,0Zm-21.5.166h-.278l-.055,9.64h.221Zm21.662,0v9.5c0,.076.243.178.332.139.04-3.218-.091-6.423-.055-9.64Zm-1.089.315c-.036-.065.019-.164-.074-.148l-.277.5.443-.166c.05-.167-.072-.147-.092-.184m-20.325.431c-.028-.034-.034-.136-.082-.053-.07.727.094,1.625,0,2.33-.013.106-.106.053-.12.159-.228,1.8.067,4.353.007,6.267a.845.845,0,0,1-.059.272c1.392.394.693-1.485.832-2.241l-.111.082-.055.472,0-4.574c-.258-.392-.048-1.071-.112-1.551-.024-.181-.16-.234-.2-.409-.076-.324.148-.444-.107-.754m19.087-.081c-.13-.008-.1-.018-.111.082-.053.408-.022.937-.055,1.358.1.018.034-.1.073-.147s.224-.16.257-.23c.086-.18.016-.265.147-.478.068-.111-.034-.184.244-.142l-.054-.309-.471.035Zm2.161,0-.171.033c-.108.261-.007.546-.066.811-.04.182-.255.323-.266.4l.009,4.992c-.253.219-.039.307-.007.5s-.016.433,0,.635h-.166c-.057-.055.034-1.347,0-1.583-.013-.106-.106-.053-.119-.159-.068-.535.029-1.266.007-1.834-.024-.613-.191-1.148-.223-1.716-.006-.113.052-1.547-.139-1.467-.073.162-.414.44-.467.542-.041.078-.027.218-.073.275s-.567.274-.593.387c-.069.307.1.271.112.371a6.316,6.316,0,0,1,0,.949c-.013.1-.1.073-.114.117-.037.161-.048.506.127.583l-.017,5.64.214-.012a1.28,1.28,0,0,1,.173-.348c.086-.061.279.008.278-.167l0-4.935a5.729,5.729,0,0,1-.118-1.938c.008-.1-.011-.181.087-.246.134-.026.079.108.082.193a8.458,8.458,0,0,0,0,1.043c.011.045.1.015.114.117a12.894,12.894,0,0,0,.157,1.9,1.693,1.693,0,0,1,.061.511c.17.067.126-.384.115-.475-.013-.106-.117-.058-.119-.159.064-.612-.072-1.348,0-1.944.01-.081.042-.172.111-.082l.051,2.081c.2.185.1.446.116.716.076,1.008.058,2.021.054,3.036.134.036.268.3.321.314.144.052.485.089.559-.09.091-.221-.268-.18.012-.431a41.656,41.656,0,0,0-.118-4.765ZM57.4,20.8h-.166c.1.213-.116.361-.118.414a2.453,2.453,0,0,0,.159.517c.032.088-.03.148.125.122Zm2.77,0a.884.884,0,0,1-.609,0l0,.3.273.1c.033.128-.026.275.016.4.025.074.127.073.161.129.064.1.109.4.329.4-.017-.143.029-.325,0-.459-.009-.041-.091-.045-.1-.082a2.417,2.417,0,0,1-.06-.788m19.945,0h-.277v1.053c.15.028.128-.11.186-.2.018-.029.091-.013.091-.018Zm.74.2c-.035-.067.017-.162-.074-.146-.041.054.017.794.165.609-.01-.1.014-.212,0-.311-.017-.17-.077-.115-.1-.151m-23.787-.036c-.154-.027-.093.033-.125.121a3.562,3.562,0,0,1-.654,1.288c.128,1.486-.192,3.146,0,4.605.025.189.237.765.28.948a4.493,4.493,0,0,1-.016,1.415c-.056.173-.254.271-.26.293-.051.2.743.237.779-.054a7.325,7.325,0,0,0,0-1.113c-.073-.523-.174-1.14-.279-1.614-.031-.138-.177-1.355-.164-1.427.017-.094.1-.2.128-.314.106-.4.116-.788.2-1.175.01-.044.1-.014.114-.117a17.631,17.631,0,0,0,.054-1.89,5.642,5.642,0,0,1-.058-.967m23.287.206c-.039-.092.026-.215-.073-.206-.031.2.042.5,0,.682-.011.045-.1.015-.114.117a11.187,11.187,0,0,0,0,1.614c.013.1.1.073.114.117.1.414.067.932.191,1.406a2.056,2.056,0,0,1,.14,1.129c-.012.083-.095.144-.106.227-.1.789-.119,1.532-.22,2.328-.013.106-.106.053-.119.159-.021.163-.005.989.15,1.032l.685,0c.057-.049-.326-.442-.336-.523a6.673,6.673,0,0,1,0-1c.024-.187.24-.769.28-.948a26.368,26.368,0,0,0,0-4.924c0-.04-.353-.554-.413-.7a3.621,3.621,0,0,1-.087-.41c-.035-.1-.091-.085-.1-.1m-21.193.2A.308.308,0,0,0,59,21.356c-.049.047.031,1.155,0,1.361-.013.1-.1.073-.114.117-.081.364.028.852-.17,1.206L58.671,26.9c.1.013.052-.126.055-.193.008-.2-.024-.42,0-.607.04-.28.144-.616.163-.945a13.207,13.207,0,0,1,0-1.328.252.252,0,0,1,.164-.2l-.051,2.358c-.108.086-.237.43,0,.412a1.718,1.718,0,0,1,.061-.456c.138-.519.054-1.022.162-1.5.01-.044.1-.015.114-.117.035-.264-.063-1.736,0-1.8l.156.092-.1,7.027.052.115c.3-.007.378.112.4.407l.217,0c0-1.3,0-2.606,0-3.908,0-1.105.105-2.155.106-3.269,0-.108.049-.206.044-.318-.014-.314-.446-.387-.6-.621-.079-.123-.071-.244-.13-.343-.012-.02-.3-.323-.325-.335M50.527,8.891c.124-.482-.317-.737-.326-1.158C53.406,6.428,56.58,5.044,59.77,3.7,62.7,2.468,65.7,1.2,68.671,0c.914.37,1.842.716,2.754,1.088.21.086.473.2.708.3C77.16,3.447,82.157,5.59,87.2,7.623c.072.225-.111.4-.157.579a2.711,2.711,0,0,1-.2.8H85.374v.776H51.94l-.083-.083v-.8ZM55.4,8.115H81.441l-.21-.15L68.671,2.63,56.481,7.616Zm-8.144,30.72.083.083h42.6l.083-.083v-1.5l-.083-.083H47.258ZM87.9,34.376H49.336l-.083.083V36.2H88.034V34.431c-.054.018-.12-.055-.139-.055M21.905,48.095c2.876,3.39.6,7.991-3.4,9.026-3.961,1.025-9.035-1.263-8.583-5.924.54-5.563,8.61-7.077,11.981-3.1m-1.769.66a4.573,4.573,0,0,0-8.046,3.862c.731,3.755,5.827,4.774,8.13,1.825a4.9,4.9,0,0,0-.085-5.687m72.916-1.393a5.064,5.064,0,0,1,.91,7.6c-2.5,2.776-6.76,2.034-10.141,2.1-.12-.113-.014-.064.016-.1a1.739,1.739,0,0,0,.526-.8c-.01-2.765.245-5.769.071-8.522a1.69,1.69,0,0,0-.667-1.437c.065-.094.15-.078.246-.086a40.067,40.067,0,0,1,4.876.061,7.355,7.355,0,0,1,4.163,1.183m-1.494.829a6.587,6.587,0,0,0-4.218-.851,5.5,5.5,0,0,0-.89.218l.03,8.175A6.486,6.486,0,0,0,91.51,55a4.266,4.266,0,0,0,.05-6.811m-56.854.123a5.222,5.222,0,0,1-.743,7.254,7.979,7.979,0,0,1-5.012,1.525,33.334,33.334,0,0,1-3.994,0c-.084-.009-.138-.005-.19-.086a1.616,1.616,0,0,0,.54-.844c-.009-2.766.244-5.768.071-8.522a2.443,2.443,0,0,0-.264-1.063c-.039-.07-.4-.416-.347-.458,1.5.042,3.016-.056,4.517,0,2.139.077,3.979.52,5.423,2.2M32,48.025a6.324,6.324,0,0,0-3.774-.685,8.278,8.278,0,0,1-.915.166l.054,8.227c1.7.287,3.429.349,4.846-.751A4.315,4.315,0,0,0,32,48.025m38.607-1.9c-.009,0-.1.085-.083.11a1.877,1.877,0,0,1,.664,1.581c.121,2-.151,4.159.008,6.142.287,3.588,4.375,4.043,7.095,2.843.243-.107.653-.42.849-.481.1-.032.074.019.082.081.03.223-.081.525.083.693h2.465l-.583-1c-.144-2.945-.118-5.932-.014-8.88.066-.139.087-.33.145-.462.1-.217.378-.4.451-.631H78.5c0,.17.237.3.31.41a2.493,2.493,0,0,1,.3.893c-.169,2.14.234,4.647-.014,6.744-.3,2.516-5.2,2.673-5.787.5a11.248,11.248,0,0,1-.185-1.643,49.552,49.552,0,0,1,0-4.991,3.884,3.884,0,0,1,.355-1.5c.082-.122.339-.206.312-.408ZM50.111,57.09c.01,0,.1-.088.083-.109a1.494,1.494,0,0,1-.664-1.193l0-8.416c1.318-.4,3.383-.162,3.589,1.506.2,1.624-1.836,2.293-3.088,2.507a1.441,1.441,0,0,0,.147.262C51,52.73,51.933,53.808,52.8,54.861c1.293,1.574,1.637,2.423,4.02,2.177.084-.009.137-.006.19-.086a13.7,13.7,0,0,1-1.381-1.291L52.42,51.743c.007-.1.612-.28.749-.349,1.323-.674,2.342-1.787,1.738-3.364-.548-1.43-2.312-1.85-3.684-1.912-1.4-.062-2.84.052-4.241,0,.081.223.281.348.4.572a2.057,2.057,0,0,1,.215.783c.2,2.678-.155,5.607,0,8.312a1.494,1.494,0,0,1-.664,1.193c-.013.019.064.1.083.109Zm75.734-10.969c.119.021.2.237.259.351,1.426,2.9,2.4,6.061,3.847,8.951a4.769,4.769,0,0,0,1.2,1.512c.048.049.121.046.093.156h-3.407c-.01,0-.1-.088-.083-.109a.811.811,0,0,0,.5-.857l-1.307-3.082-4.618-.024a26.767,26.767,0,0,0-1.372,3.117c-.1.43.348.625.486.956h-2.825c-.033-.129.029-.092.07-.127,1.078-.909,1.64-2.791,2.23-4.083.771-1.69,1.773-3.576,2.41-5.291a1.9,1.9,0,0,0,.169-1c-.019-.139-.331-.315-.337-.468Zm-2.936,5.762h3.518l-1.772-4.155-1.8,4.042ZM112.244,46.37a.37.37,0,0,0-.24-.148c-2.723-.851-6.32-.3-8.265,1.893a5.292,5.292,0,0,0,1.913,8.5,9.35,9.35,0,0,0,6.427.334.612.612,0,0,0,.3-.2l.863-1.879c-.58.248-1.159.568-1.762.758-2.994.944-6.517,0-6.921-3.515-.472-4.1,3.335-5.535,6.755-4.428.149.048.832.413.932.315Zm-74.57-.249c-.025.185.159.226.235.345a2.281,2.281,0,0,1,.377,1.287c.141,2.575-.111,5.28,0,7.869a1.68,1.68,0,0,1-.664,1.359c-.015.021.073.109.083.109h7.147a1.336,1.336,0,0,0,.251-.469c.226-.531.4-1.1.608-1.635-.526.18-1.012.489-1.551.637a10.075,10.075,0,0,1-3.934.027V51.772H42.41l.748.332V50.553H40.222v-3.1c1.328-.183,2.757-.39,3.934.388V46.121ZM3.214,57.09l-.482-.709a5.18,5.18,0,0,1-.183-.981V47.45c1.281-.27,3.492-.271,3.953,1.283.582,1.962-1.47,2.973-3.066,3.206-.074.1.7.162.8.168,1.736.1,4.037-.532,4.338-2.536.364-2.418-2.019-3.348-4-3.449-1.483-.075-3.025.055-4.514,0l.493.764a83.942,83.942,0,0,1,.024,9.309c-.149.286-.244.651-.572.786-.012.023.064.105.083.11ZM131.69,46.121c-.049.187.1.175.166.265a2.031,2.031,0,0,1,.445,1.2c.19,2.612-.147,5.454,0,8.09a2.172,2.172,0,0,1-.447,1.147.94.94,0,0,1-.217.157c-.014.026.074.11.082.11h7.368l.138-.1L140,54.985c-.421.136-.806.381-1.228.516a9.948,9.948,0,0,1-4.475.146l0-8.113a2.009,2.009,0,0,1,.252-.856c.127-.213.336-.333.412-.557Zm-66.592,0,.412.557a1.925,1.925,0,0,1,.255.853c-.181,3.289.234,6.824,0,10.085a3.578,3.578,0,0,1-.853,2.112c-.36.4-.892.631-1.251,1.018a6.414,6.414,0,0,0,3.317-1.2,2.805,2.805,0,0,0,.785-2.205c.15-3.245-.117-6.607,0-9.864a2.329,2.329,0,0,1,.665-1.357Zm32.161,0c-.01,0-.1.088-.083.11a1.5,1.5,0,0,1,.664,1.137c-.141,2.714.19,5.621,0,8.312a2.26,2.26,0,0,1-.215.838l-.453.572H100.5c-.013-.182-.233-.278-.332-.416a2.56,2.56,0,0,1-.332-1c.135-2.606-.181-5.395,0-7.98a2.606,2.606,0,0,1,.29-1.1c.116-.2.308-.283.378-.481Zm17.535,0c-.018.207.236.3.33.431a2.986,2.986,0,0,1,.334,1.093c-.129,2.554.174,5.28,0,7.814a2.843,2.843,0,0,1-.3,1.169c-.079.117-.357.274-.368.463h3.241c.01,0,.1-.088.083-.109-.682-.392-.621-1.023-.665-1.69a69.981,69.981,0,0,1-.057-7.039,4.023,4.023,0,0,1,.258-1.57c.046-.083.461-.517.409-.56ZM35.6,61.3c1.048.112,1.319,1.094.472,1.69a1.022,1.022,0,0,1-.026,1.97c-.067.025-.581.163-.612.163H34.017V61.439c0-.013-.055-.047-.056-.082.057.018.12-.056.139-.056.462,0,1.054-.047,1.5,0m-1.08.443v1.163c.489-.03,1.461.086,1.492-.586.037-.784-.994-.594-1.492-.578m.055,2.936h.97a1,1,0,0,0,.662-.391.673.673,0,0,0-.555-.935,2.064,2.064,0,0,0-1.132.024v1.163c0,.018.073.084.055.139M1.912,61.3c.774.082,1.207.537.938,1.326a1.2,1.2,0,0,1-.633.585c.652.359.807,1.2,1.105,1.829-.01.125-.487.083-.6.076-.09-.306-.516-1.6-.865-1.6H.887V65.04L.8,65.115c-.117.008-.472.063-.514-.081l0-3.676c.054.014.118-.057.139-.057.463,0,1.052-.047,1.5,0m0,.443c-.285-.063-.77.046-1.08,0v1.33h.8a.861.861,0,0,0,.737-.538.719.719,0,0,0-.459-.791M82.8,61.3a4.115,4.115,0,0,1,.594.126c1.823.552,1.375,3.319-.432,3.693a10.63,10.63,0,0,1-1.52,0V61.3c.439.029.924-.04,1.357,0m.111.443c-.243-.06-.7.044-.97,0V64.68a1.855,1.855,0,0,0,1.642-.352,1.6,1.6,0,0,0-.072-2.241,3.6,3.6,0,0,0-.6-.344m30.91-.391a7.733,7.733,0,0,0-.026,1.142c0,.147.06.28.06.438,0,.73-.109,1.459-.058,2.191h.554V63.3h1.69l.083.083v1.745h.554V61.3c-.182.021-.422-.069-.554.083v1.524h-1.773V61.3Zm-46.3.015,1.5,3.673c-.011.128-.534.082-.655.075l-.43-1.2-1.729,0c-.031.07-.062.142-.09.214-.062.162-.234.883-.278.942-.074.1-.454.062-.586.028-.076-.044,0-.2.022-.259.289-.814.763-1.683,1.116-2.486.086-.2.3-.891.388-1a1.024,1.024,0,0,1,.738.013m.233,2.149a10.776,10.776,0,0,0-.567-1.566.266.266,0,0,0-.153-.151l-.665,1.717ZM24.928,61.325c-.147.1,0,.717,0,.891.035,1.176-.268,2.844,1.356,2.965a1.807,1.807,0,0,0,1.416-.416,2.383,2.383,0,0,0,.441-1.11V61.3h-.554v2.632c0,.025-.173.423-.2.467a1.1,1.1,0,0,1-1.716-.048,5.026,5.026,0,0,1-.191-.474V61.3ZM8.754,61.3v3.823h2.41c.107-.078.15-.411.014-.459l-1.87.016V63.545c0-.028-.087-.116-.055-.194h1.413a.306.306,0,0,0,0-.443H9.253V61.744h1.773l.059-.35c-.007-.033-.116-.089-.142-.093-.632-.1-1.527.077-2.188,0m84.035.092-.074-.092H90.61c-.02,0-.09.056-.129.065.043.993.08,2.011.049,3.012-.007.233-.167.546.025.746h2.327c.145-.118.068-.331.083-.5-.06-.021-.121.055-.138.055H91.081l-.055-1.33h1.44v-.443h-1.44V61.744H92.8ZM137.4,61.3v3.823h2.41c.126-.093.081-.263.085-.406l-.11-.066-1.831.029-.055-1.33h1.44v-.443h-1.44V61.744h1.773l.059-.35c-.007-.033-.116-.089-.142-.093-.632-.1-1.527.077-2.188,0m-118.808,0a1.029,1.029,0,0,1,.967,1.3c-.146.812-1.41,1.047-2.1.973v1.551c-.116-.019-.57.062-.6-.081l.1-1.5c.059-.667-.138-1.4-.06-2.055.009-.081.007-.142.086-.191.506.046,1.114-.063,1.607,0m-1.136,1.884h.8c.021,0,.35-.13.4-.155a.665.665,0,0,0,.24-1.038,3.7,3.7,0,0,0-.318-.246,3.647,3.647,0,0,0-1.088.006l-.083.083Zm90.392-1.832a2.087,2.087,0,0,0-2.694,1.636c-.13,1.894,1.219,2.4,2.875,2.127.055-.112.121-.388.01-.466-.831.16-1.652.161-2.131-.637a1.643,1.643,0,0,1,.219-1.935,1.684,1.684,0,0,1,1.689-.222ZM57.3,62.28a1.916,1.916,0,0,0,1.086,2.827,3.151,3.151,0,0,0,1.611-.047L60,64.625a2.246,2.246,0,0,1-1.767-.147,1.589,1.589,0,0,1-.489-1.971c.344-.8,1.214-.869,1.979-.707l.111-.443a2.2,2.2,0,0,0-2.538.924m72.4,2.843h2.3l.074-.092.009-.352h-1.884l.056-3.38H129.7ZM43.158,61.439c0-.012.1-.1-.034-.132-.71-.188-.474.247-.462.628.025.8.024,1.693,0,2.5-.007.232-.153.511.025.69h2.3l.055-.443H43.158Zm7.272-.058v3.661c.025.142.479.061.6.081V61.3c-.116.019-.57-.062-.6.081m72.653-.073-.091.131c-.013.706.064,1.4.058,2.108a6.75,6.75,0,0,0-.034,1.524l.53.052V61.3ZM78.948,16.758h.221l-.048-.381c.19-.035.17-.171.158-.339-.408.04-.342.414-.332.72m-20.886-.721,0,.33.163.031-.162.031-.006.236.279.093c.066-.162.027-.624-.121-.708-.047-.027-.1-.008-.155-.012" transform="translate(0 0.004)" fill="#003f69"/>
</svg>
