<svg id="schumacher" xmlns="http://www.w3.org/2000/svg" xmlns:xlink="http://www.w3.org/1999/xlink" width="140" height="15.389" viewBox="0 0 140 15.389">
  <defs>
    <clipPath id="clip-path">
      <rect id="Rectángulo_109" data-name="Rectángulo 109" width="140" height="15.389" fill="none"/>
    </clipPath>
  </defs>
  <g id="Grupo_1708" data-name="Grupo 1708" clip-path="url(#clip-path)">
    <path id="Trazado_12441" data-name="Trazado 12441" d="M8.912,3.9l1.7-1.7A6.8,6.8,0,0,0,6.059.653C3.166.692.86,1.865.625,4.327s.625,4.691,3.792,5,3.987.547,3.948,2.306-2.15,2.033-3.244,1.994A11.29,11.29,0,0,1,1.8,12.341L0,14.178a7.407,7.407,0,0,0,5.551,1.8c3.4-.313,5.473-1.759,5.512-4.1S9.89,7.845,8.326,7.533s-2.345-.391-2.345-.391-3.01-.078-2.775-2.58C3.6,2.06,8.092,3.076,8.912,3.9" transform="translate(0 -0.619)" fill="#222"/>
    <path id="Trazado_12442" data-name="Trazado 12442" d="M266.569,4.718V11.4s.391,4.605,4.847,4.605,5.9-3,5.9-4.566h-2.7a2.817,2.817,0,0,1-2.854,2.267,2.457,2.457,0,0,1-2.5-2.463V5.461s.2-2.619,2.678-2.619a2.683,2.683,0,0,1,2.678,2.5h2.7A5.18,5.18,0,0,0,271.944.652c-4.984,0-5.375,4.066-5.375,4.066" transform="translate(-252.849 -0.618)" fill="#222"/>
    <path id="Trazado_12443" data-name="Trazado 12443" d="M1696.247,4.718V11.4s.391,4.605,4.847,4.605,5.9-3,5.9-4.566h-2.7a2.817,2.817,0,0,1-2.854,2.267,2.457,2.457,0,0,1-2.5-2.463V5.461s.2-2.619,2.678-2.619a2.683,2.683,0,0,1,2.678,2.5h2.7a5.18,5.18,0,0,0-5.375-4.691c-4.984,0-5.375,4.066-5.375,4.066" transform="translate(-1608.94 -0.618)" fill="#222"/>
    <path id="Trazado_12444" data-name="Trazado 12444" d="M542.467.652v6.37h-5.492V.652h-2.7V16.008h2.7V9.5h5.492v6.505h2.7V.652Z" transform="translate(-506.778 -0.618)" fill="#222"/>
    <path id="Trazado_12445" data-name="Trazado 12445" d="M1969.485.652v6.37h-5.492V.652h-2.7V16.008h2.7V9.5h5.492v6.505h2.7V.652Z" transform="translate(-1860.347 -0.618)" fill="#222"/>
    <path id="Trazado_12446" data-name="Trazado 12446" d="M814.9.652V11.481s.156,4.527,5.551,4.527a5.119,5.119,0,0,0,5.512-4.918V.652H823.34V10.894a2.769,2.769,0,0,1-2.844,2.844,2.669,2.669,0,0,1-2.942-2.492V.652Z" transform="translate(-772.954 -0.618)" fill="#222"/>
    <path id="Trazado_12447" data-name="Trazado 12447" d="M1098.934.652V16.008h2.7V7.022h.313l2.775,5.514h2.033l2.736-5.514h.274v8.986h2.854V.652h-2.6l-4.236,8.273-4.28-8.273Z" transform="translate(-1042.371 -0.618)" fill="#222"/>
    <path id="Trazado_12448" data-name="Trazado 12448" d="M1403.856,16.008h2.873l3.723-10.938h.264l3.665,10.938h2.814L1411.654.652H1409.6Z" transform="translate(-1331.598 -0.618)" fill="#d21215"/>
    <path id="Trazado_12449" data-name="Trazado 12449" d="M2256.062,3.044V.652h-9.779V16.007h9.779V13.615h-6.994V9.35h6V6.957h-6V3.044Z" transform="translate(-2130.665 -0.618)" fill="#222"/>
    <path id="Trazado_12450" data-name="Trazado 12450" d="M2503.808,0h4.993c3.057,0,5.531,1.641,5.531,4.525a4.128,4.128,0,0,1-2.759,4.227l3.362,6.638h-3.042l-3.2-6.55c-.309,0-.653.011-.985.011h-1.443v6.539h-2.462Zm5.21,6.9c1.821-.056,2.555-.921,2.555-2.329,0-1.5-.849-2.17-2.75-2.17h-2.531V6.9Z" transform="translate(-2374.935)" fill="#222"/>
  </g>
</svg>
