<svg xmlns="http://www.w3.org/2000/svg" xmlns:xlink="http://www.w3.org/1999/xlink" width="65" height="56.353" viewBox="0 0 65 56.353">
  <defs>
    <clipPath id="clip-path">
      <rect id="Rectángulo_108" data-name="Rectángulo 108" width="65" height="56.353" fill="none"/>
    </clipPath>
  </defs>
  <g id="sika" transform="translate(0 0.003)">
    <path id="Trazado_12433" data-name="Trazado 12433" d="M32.5,0,0,56.35H65Z" transform="translate(0 0)" fill="#d7282f"/>
    <g id="Grupo_1707" data-name="Grupo 1707" transform="translate(0 -0.003)">
      <g id="Grupo_1706" data-name="Grupo 1706" clip-path="url(#clip-path)">
        <path id="Trazado_12434" data-name="Trazado 12434" d="M595.194,412.733a17.241,17.241,0,0,1,2.5-.015.5.5,0,0,1,.362.589l-3.927,21.619c-.03.876,1.484.321,1.926.11a5.628,5.628,0,0,0,2.216-2.118c.269-.418.361-1.048.9-1.225a8.772,8.772,0,0,1,1.992-.064c1.013.091.528,1.22.249,1.833a8.483,8.483,0,0,1-1.984,2.429c-.237.218-1.461,1.088-1.46,1.3,0,.354,2.09,2.356,2.361,2.843a1.133,1.133,0,0,0,1.6-.379c.132-.329.072-.961.222-1.433.9-2.831,5.269-2.554,7.594-2.175.581-.035.615-1.3.5-1.676-.09-.3-.913-.429-1.2-.452-1.49-.117-3.178.142-4.655.007a.752.752,0,0,1-.628-.321,5.96,5.96,0,0,1,.239-1.415c.165-.48.479-.522.941-.556a42.237,42.237,0,0,1,5.281.083c2.356.161,2.925,1.689,2.718,3.821a42.346,42.346,0,0,0-.715,4.259c.052.836,1.414.161,1.569.963a6.287,6.287,0,0,1-.3,1.719c-.607,1.274-2.178.227-2.994.071-.852-.162-2.234.5-3.2.585a5.738,5.738,0,0,1-2.919-.37c-.372-.179-.712-.582-1.165-.57-.437.011-1.566.691-2.169.833-2.952.695-3.441-2.254-5.119-3.866-.6-.58-2.013-1.232-2.486-.195-.4.882-.361,2.524-.69,3.487a.733.733,0,0,1-.647.535,15.111,15.111,0,0,1-2.409-.037.455.455,0,0,1-.293-.532c1.92-9.331,3.181-18.815,5.129-28.137.1-.463.139-1.428.662-1.545" transform="translate(-560.628 -392.54)" fill="#f6b326"/>
        <path id="Trazado_12435" data-name="Trazado 12435" d="M211.261,411.788c.354-.073,2.034.052,2.188.376a.962.962,0,0,1,.031.5,17.426,17.426,0,0,1-.518,2.241c-.367,1-1.875.083-2.666.015a2.357,2.357,0,0,0-2.732,1.52c-1.546,6.932-2.293,14.212-3.868,21.115-.794,3.481-2.672,5.3-6.4,5.027a24.867,24.867,0,0,0-2.5-.454c-.57.147-.473.36-1.35.288-.541-.044-1.408-.075-1.392-.734a19.283,19.283,0,0,1,.419-2.741c.339-1.327,1.959-.14,2.795.155,3.023,1.068,4.632.326,5.275-2.8,1.367-6.646,2.229-13.422,3.672-20.051.514-2.36,1.886-4.131,4.508-4.241.543-.023,1.428.246,1.887.155.2-.039.378-.318.65-.374" transform="translate(-182.683 -391.673)" fill="#f6b326"/>
        <path id="Trazado_12436" data-name="Trazado 12436" d="M471.965,800.38a12.714,12.714,0,0,1,2.327,0,.46.46,0,0,1,.447.56l-1.907,10.317a.874.874,0,0,1-.574.45,15.827,15.827,0,0,1-2.357,0c-.378-.071-.4-.495-.347-.816.591-2.9,1.011-5.833,1.59-8.733.121-.606.124-1.639.82-1.78" transform="translate(-446.617 -761.27)" fill="#f6b326"/>
        <path id="Trazado_12437" data-name="Trazado 12437" d="M526.105,663.368a9.339,9.339,0,0,1,1.551-.023c.2.017.709.072.789.235a9.075,9.075,0,0,1-.3,2.3,1.034,1.034,0,0,1-.375.492,16.468,16.468,0,0,1-2.754,0,.44.44,0,0,1-.233-.458,15.243,15.243,0,0,1,.41-2.121c.172-.393.534-.392.909-.43" transform="translate(-499.175 -630.951)" fill="#f6b326"/>
        <path id="Trazado_12438" data-name="Trazado 12438" d="M902.674,931.516c1.016-.109,3.39-.118,3.163,1.429-.126.858-1.6,1.307-2.33,1.375-2.973.273-4.055-2.457-.833-2.8" transform="translate(-856.757 -886.017)" fill="#d7282f"/>
        <path id="Trazado_12439" data-name="Trazado 12439" d="M1188.631,677.993c-3.437.47-3.374,5.739-.079,6.186,5.006.679,4.872-6.842.079-6.186m1.728,5.432a2.631,2.631,0,0,1-3.35-3.824,2.882,2.882,0,0,1,1.542-1.058,2.624,2.624,0,0,1,1.808,4.882" transform="translate(-1128.185 -644.867)" fill="#d72930"/>
        <path id="Trazado_12440" data-name="Trazado 12440" d="M1224.472,707.341v-.016a.958.958,0,0,0,.758-.908.841.841,0,0,0-.316-.676,1.8,1.8,0,0,0-1.163-.29,6.068,6.068,0,0,0-1,.074v3.512h.519v-1.542h.489c.471.016.686.2.8.692a4.154,4.154,0,0,0,.269.85h.536a5.176,5.176,0,0,1-.31-.977.907.907,0,0,0-.591-.718m-.667-.2h-.531v-1.3a2.4,2.4,0,0,1,.513-.042c.549.005.925.206.925.665,0,.407-.352.676-.906.676" transform="translate(-1163.082 -671.023)" fill="#d72930"/>
      </g>
    </g>
  </g>
</svg>
