<svg xmlns="http://www.w3.org/2000/svg" xmlns:xlink="http://www.w3.org/1999/xlink" width="140" height="65.62" viewBox="0 0 140 65.62">
  <defs>
    <clipPath id="clip-path">
      <rect id="Rectángulo_106" data-name="Rectángulo 106" width="140" height="65.619" transform="translate(0 0)" fill="none"/>
    </clipPath>
  </defs>
  <g id="swarmob" transform="translate(0 0.001)">
    <g id="Grupo_1702" data-name="Grupo 1702" transform="translate(0 -0.001)" clip-path="url(#clip-path)">
      <path id="Trazado_12414" data-name="Trazado 12414" d="M1029.564,325.47c1.279-.116-.182,2.053-.358,2.488a14.424,14.424,0,0,0,2.089,14.784c.982,1.211,2.437,1.711,1.786,3.636-.595,1.759-2.5,1.388-3.709.461-4.632-3.565-5.806-10.975-3.679-16.209.409-1.006,2.826-5.065,3.871-5.16" transform="translate(-969.24 -307.859)" fill="#ff9601"/>
      <path id="Trazado_12415" data-name="Trazado 12415" d="M1290.021,426.7a2.028,2.028,0,0,1,2.545,1.563c.3,1.9-2.212,4.6-3.578,5.761a14.389,14.389,0,0,1-15.914,1.7c-.71-.375-2.867-1.431-1.316-2.026a14.408,14.408,0,0,0,15.968-4.442c.659-.78,1.24-2.311,2.3-2.552" transform="translate(-1202.442 -403.559)" fill="#ff9601"/>
      <path id="Trazado_12416" data-name="Trazado 12416" d="M934.013,198.743c.587-.045,3.91-.2,3.3.955-.21.4-2.019.567-2.6.749a14.39,14.39,0,0,0-9.48,9.745c-.471,1.793-.094,5.309-2.931,4.848-2.961-.482-1.252-5.971-.49-7.767a14.3,14.3,0,0,1,12.2-8.53" transform="translate(-870.826 -187.961)" fill="#ff9601"/>
      <path id="Trazado_12417" data-name="Trazado 12417" d="M1138.3,485.377c.08.068.6,1.546.824,1.932a14.466,14.466,0,0,0,11.807,7.417c1.988.085,5.684-1.159,5.276,2.254-.165,1.377-1.635,1.74-2.807,1.872a14.352,14.352,0,0,1-14.945-8.367c-.323-.746-1.647-4.6-.985-5.054a1.372,1.372,0,0,1,.83-.055" transform="translate(-1075.765 -459.079)" fill="#ff9601"/>
      <path id="Trazado_12418" data-name="Trazado 12418" d="M1270.5,19.233a1.322,1.322,0,0,1-.706,0c-.5-.166-.225-2.436-.278-3.066A14.34,14.34,0,0,0,1262.5,5.294c-1.713-.982-4.866-1.239-4.507-3.663.442-2.977,4.553-1.136,6.12-.291a14.274,14.274,0,0,1,7.224,14.971,21.076,21.076,0,0,1-.837,2.922" transform="translate(-1189.911 0.002)" fill="#ff9601"/>
      <path id="Trazado_12419" data-name="Trazado 12419" d="M1432.246,125.689c1.735-.11,2.319,1.446,2.77,2.835a14.337,14.337,0,0,1-4.183,15.22c-.964.832-4.36,3.12-5.575,2.732-1.1-.35,1.251-1.773,1.563-2.063a14.277,14.277,0,0,0,4.295-14.163,14.034,14.034,0,0,1-.775-2.711,2.143,2.143,0,0,1,1.9-1.85" transform="translate(-1347.884 -118.884)" fill="#ff9601"/>
      <path id="Trazado_12420" data-name="Trazado 12420" d="M994.964,80.986a14.545,14.545,0,0,1,11.821,4.628c.464.518,2.147,2.515,1.679,3.187s-1.457-.679-1.877-.983a14.146,14.146,0,0,0-14.211-1.9c-1.57.644-4.049,3.008-5.378.757-1.1-1.858.656-3.047,2.1-3.871a15.069,15.069,0,0,1,5.869-1.821" transform="translate(-933.281 -76.556)" fill="#ff9601"/>
      <path id="Trazado_12421" data-name="Trazado 12421" d="M1227.809,305.677a4.158,4.158,0,1,1-4.158-4.158,4.158,4.158,0,0,1,4.158,4.158" transform="translate(-1153.523 -285.208)" fill="#0047ad"/>
      <path id="Trazado_12422" data-name="Trazado 12422" d="M1192.827,1015.2c.769-1.3,4.646-2.212,4.51-.1-.1,1.5-1.565.828-2.279.775-3.4-.25-1.953,6-2.268,7.728-.193,1.062-2.3,1.08-2.3-.31,0-1.324,0-7.025,0-8.338,0-1.436,2.5-1.191,2.332.24" transform="translate(-1126.094 -958.999)" fill="#0047ad"/>
      <path id="Trazado_12423" data-name="Trazado 12423" d="M809.178,1013.9c0-1.394-2.3-1.37-2.3.045a7.639,7.639,0,0,0-2.128-.963c-8.354-1.329-6.863,13.15.573,10.355a9.985,9.985,0,0,0,1.555-.866c0,1.215,2.349,1.648,2.349-.444Zm-4.888,7.58c-3.906.207-4.005-6.441-.171-6.441,3.735,0,3.584,6.26.171,6.441" transform="translate(-755.859 -958.077)" fill="#0047ad"/>
      <path id="Trazado_12424" data-name="Trazado 12424" d="M1532.273,1014.972s.84-.755,1.11-.977c1.705-1.4,4.643-1.306,5.487.982.4,1.08.412,6.3.259,7.6a1.132,1.132,0,0,1-2.144.466,32.114,32.114,0,0,1-.159-5.169c-.037-1.792-.457-2.717-2.454-2.561-3.171.248-.527,6.942-2.1,8.091-.572.417-1.62.289-1.762-.4a46.641,46.641,0,0,1-.117-5.9c-.118-.85-.416-1.686-1.37-1.805a2.195,2.195,0,0,0-2.772,2.09s-.08,4.357-.08,5.6c0,1.04-2.263,1.184-2.263-.407,0-1.738,0-6.343,0-8.04,0-1.865,2.354-1.608,2.431.091.947-1.576,3.881-2.1,5.255-.907a4.643,4.643,0,0,1,.683,1.242" transform="translate(-1441.467 -958.269)" fill="#0047ad"/>
      <path id="Trazado_12425" data-name="Trazado 12425" d="M2011.2,1014.688a5.359,5.359,0,1,0,5.359,5.359,5.359,5.359,0,0,0-5.359-5.359m.721,8.461c-4.5.834-4.7-5.715-1.259-6.273,4.041-.655,4.543,5.663,1.259,6.273" transform="translate(-1897.33 -959.797)" fill="#0047ad"/>
      <path id="Trazado_12426" data-name="Trazado 12426" d="M7.681,1016.2c-.859.858-2.191-.9-3.392-.971-1.762-.1-2.33,1.5-.669,2.187,1.444.6,4.111.749,4.425,2.763.441,2.823-1.844,4.122-4.4,3.9-1.356-.12-4.1-1.15-3.58-2.871.45-1.492,2.429.468,2.934.676,1.15.473,3.928.342,2.891-1.345-.747-1.214-5.007-.629-5.485-3.583-.567-3.5,4.313-4.488,6.636-2.791.57.417,1.261,1.418.639,2.039" transform="translate(-0.001 -958.536)" fill="#0047ad"/>
      <path id="Trazado_12427" data-name="Trazado 12427" d="M344.815,1020.938s1.166-3.988,2.107-4.493c2.322-1.249,3.239,4.326,3.239,4.326s1.628-4.745,2.094-5.681c.511-1.026,2.591-.23,2.015,1.345-.52,1.42-2.155,6.209-2.856,7.677-.3.62-.475,1.005-1.319,1.005-1.332,0-2.589-5.353-2.589-5.353-.387,1.04-1.051,4.4-2.027,5.1-.777.557-1.411.241-1.815-.518-.7-1.321-2.914-7.783-2.914-7.783-.594-1.679,1.45-2.568,1.972-1.473,0,0,1.518,4.5,2.094,5.849" transform="translate(-322.214 -959.72)" fill="#0047ad"/>
      <path id="Trazado_12428" data-name="Trazado 12428" d="M2410.485,943.418a4.3,4.3,0,0,0-6.6-.332v-4.43a1.172,1.172,0,0,0-2.336.171l-.013,12.542a1.219,1.219,0,0,0,2.432-.092c3.152,2.608,7.312.564,7.615-3.421a5.725,5.725,0,0,0-1.092-4.439m-4.611,6.784c-2.755-.65-2.741-5.684-.033-6.242,4.966-1.023,4.5,7.3.033,6.242" transform="translate(-2271.618 -886.883)" fill="#0047ad"/>
    </g>
  </g>
</svg>
