<svg id="thorben" xmlns="http://www.w3.org/2000/svg" xmlns:xlink="http://www.w3.org/1999/xlink" width="140" height="31.838" viewBox="0 0 140 31.838">
  <defs>
    <clipPath id="clip-path">
      <rect id="Rect치ngulo_105" data-name="Rect치ngulo 105" width="140" height="31.838" fill="none"/>
    </clipPath>
  </defs>
  <g id="Grupo_1700" data-name="Grupo 1700" clip-path="url(#clip-path)">
    <path id="Trazado_12404" data-name="Trazado 12404" d="M.027,139.242a4.586,4.586,0,0,1,.234-1.053H17.231c.438.591.583,3.745-.293,3.745H11.145v18.549c0,.35-.812.7-1.122.749a13.66,13.66,0,0,1-2.533-.021c-.172-.033-1.026-.352-1.026-.494V142.109c0-.128-.286-.168-.4-.182-1.275-.15-2.891.078-4.224.011a5.882,5.882,0,0,0-1.5-.114,2.538,2.538,0,0,1-.305-1.061,10.646,10.646,0,0,1,0-1.521" transform="translate(0 -130.816)"/>
    <path id="Trazado_12405" data-name="Trazado 12405" d="M385.031,134.281v8.6c0,.066.2.18.293.175,2.836-.16,5.677.32,8.485,0v-8.6a1.56,1.56,0,0,1,.435-.385,16.092,16.092,0,0,1,1.847-.258c.4,0,2.045.261,2.222.586l.037,22.153a1.333,1.333,0,0,1-1.083.555c-.51.049-3.458.105-3.458-.533v-9.362a1.171,1.171,0,0,0-.176-.176h-8.309a1.046,1.046,0,0,0-.232.236l-.118,9.361c-.286.6-2.655.535-3.278.468a1.648,1.648,0,0,1-1.168-.587l-.033-21.919c.032-.28.288-.427.535-.51a6.114,6.114,0,0,1,4,.2" transform="translate(-360.193 -126.674)"/>
    <rect id="Rect치ngulo_104" data-name="Rect치ngulo 104" width="23.64" height="31.838" transform="translate(39.934)" fill="#ce152d"/>
    <path id="Trazado_12406" data-name="Trazado 12406" d="M858.781,23.479c2.215-.291,3.192.249,2.949,2.6-.17,1.647-1.591,1.738-2.983,1.582-1.519-.171-1.606-1.476-1.463-2.751.106-.94.585-1.31,1.5-1.429" transform="translate(-811.499 -22.158)" fill="#fefdfd"/>
    <path id="Trazado_12407" data-name="Trazado 12407" d="M1001.337,23.517c1.276-.185,2.746-.068,2.941,1.446.239,1.86-.3,2.827-2.249,2.809-1.993-.018-2.4-.961-2.185-2.823a1.481,1.481,0,0,1,1.494-1.432" transform="translate(-946.451 -22.2)" fill="#fdfdfd"/>
    <path id="Trazado_12408" data-name="Trazado 12408" d="M778.961,137.649c5.631-.463,10.307,1.4,11.575,7.314,1.484,6.919-.78,15.087-8.92,15.7-6.469.491-10.982-1.836-11.863-8.614-.886-6.812,1.491-13.771,9.208-14.4" transform="translate(-728.517 -130.241)" fill="#fefefe"/>
    <path id="Trazado_12409" data-name="Trazado 12409" d="M864.8,203.814c4.781-.47,6.4,2.693,6.583,6.924.183,4.165-.8,8.957-5.915,8.967-4.227.009-5.592-2.99-5.8-6.734-.21-3.819.469-8.7,5.13-9.157" transform="translate(-813.775 -192.896)" fill="#ce152d"/>
    <path id="Trazado_12410" data-name="Trazado 12410" d="M2270.507,145.442s.007,1.445.007,1.926c0,4.216,0,10.048,0,14.991a.762.762,0,0,1-.61.677,12.574,12.574,0,0,1-2.842.071.96.96,0,0,1-.764-.64l-.007-20.715c0-.746.093-1.331.682-1.448a33.256,33.256,0,0,1,4.3-.131c1.741.148,2.287,1.933,3.04,3.279,2.309,4.129,6.785,12.993,6.785,12.993l-.03-15.72c.144-.74,2.088-.709,2.721-.664s1.263.068,1.517.706l.069,20.421c-.088,2.191-2.215,2.191-3.924,2.041a3.057,3.057,0,0,1-2.4-1.23c-2.911-5.482-6.054-10.866-8.548-16.557" transform="translate(-2145.377 -132.568)"/>
    <path id="Trazado_12411" data-name="Trazado 12411" d="M1972.244,159.718c.52.165.481,2.267.415,2.755a1.018,1.018,0,0,1-.674.848l-11.445.025c-1.172-.186-1.385-.568-1.468-1.692,0-.952,0-13.4,0-19.787,0-.537-.167-1.581,1.111-1.581h8.085c1.378,0,2.637.079,3.954.118.675,0,.649,3.512-.216,3.512-2.781.08-5.688.12-8.365.12v5.5l7.253.061a.746.746,0,0,1,.351.468c.09.48.16,3.1-.524,3.1h-7.083c-.012,0-.012,6.554,0,6.554Z" transform="translate(-1854.543 -132.801)"/>
    <path id="Trazado_12412" data-name="Trazado 12412" d="M1608.214,148.825c-.266-.107-.838-.33-.838-.33,3.244-1.3,3.891-5.859,1.7-8.369-1.194-1.365-3.5-1.993-5.262-2.111a56.957,56.957,0,0,0-7.615,0c-.8.089-1.044.6-1.114,1.344v20.255a1.269,1.269,0,0,0,1.233,1.341,57.338,57.338,0,0,0,7.606,0,10.226,10.226,0,0,0,5.142-1.585c3.795-2.564,3.6-8.758-.849-10.547m-8.447-7.41h2.633a5.628,5.628,0,0,1,1.895.446,3.2,3.2,0,0,1,1.269,3.654c-.712,2.411-3.867,1.938-5.8,1.986Zm5.264,15.738a8.228,8.228,0,0,1-1.46.3h-3.8v-6.554h4.155a3.549,3.549,0,0,1,1.708.505c1.967,1.253,1.69,4.952-.6,5.753" transform="translate(-1509.978 -130.531)"/>
    <path id="Trazado_12413" data-name="Trazado 12413" d="M1241.16,158.03c-.886-2.426-2.5-6.443-4.416-8.106-.165-.144-.629-.5-.629-.5s.359-.122.6-.217c4.172-1.626,4.66-7.3,1.6-10.451-2.409-2.482-8.982-1.517-12.864-1.517a1.16,1.16,0,0,0-.848.8.439.439,0,0,0-.031.166l.017,21.536c.194.646,2.71.616,3.313.55.431-.047,1.245-.287,1.345-.761V150.69h1.931c2.836,0,4.285,6.671,5.359,8.685a1.464,1.464,0,0,0,1.085.9,15.981,15.981,0,0,0,3.412-.084c.94-.31.377-1.472.124-2.165m-6.772-11.5a6.11,6.11,0,0,1-2.272.771h-2.87c-.012,0,0-6.554,0-6.554h3.569a6.625,6.625,0,0,1,1.307.448c1.9.967,1.947,4.1.262,5.335" transform="translate(-1159.237 -129.742)"/>
  </g>
</svg>
