<?xml version="1.0" encoding="utf-8"?>
<!-- Generator: Adobe Illustrator 28.2.0, SVG Export Plug-In . SVG Version: 6.00 Build 0)  -->
<svg version="1.1" id="Capa_2_00000035518001002711865990000017246499884584349587_"
	 xmlns="http://www.w3.org/2000/svg" xmlns:xlink="http://www.w3.org/1999/xlink" x="0px" y="0px" viewBox="0 0 330.1 32.5"
	 style="enable-background:new 0 0 330.1 32.5;" xml:space="preserve">
<g id="Capa_1-2">
	<g>
		<path d="M25.7,24.2H23c0,3.6-0.3,4.9-1.7,4.9c-1.2,0-1.4-1-1.4-1.7v-9.2c0-3.8-0.4-4.9-2.3-6.2c-1.4-0.9-4.3-1.5-7.4-1.5
			c-5.5,0-9.1,2.1-9.1,5.3c0,1.9,1.6,3.3,3.8,3.3c2,0,3.3-1.1,3.3-2.6s-0.9-2.2-3.1-2.3l-0.5,0l0.4-0.3c1.4-1,2.6-1.3,4.7-1.3
			c3.4,0,5.3,1.3,5.3,3.6c0,2.1-1.1,3-4.5,3.7c-3.3,0.7-5.3,1.2-7.1,2c-2.3,1-3.6,2.8-3.6,5c0,3.3,2.8,5.5,7,5.5
			c3.5,0,5.5-0.8,7.9-3.3l0.2-0.2l0.1,0.2c0.9,2.3,2.2,3.2,4.9,3.2s4.2-0.9,5-2.7C25.5,28.6,25.6,27.6,25.7,24.2L25.7,24.2z
			 M15,23.5c0,2-0.5,3.2-1.7,4.2c-1.1,0.9-2.6,1.4-4.2,1.4c-2.2,0-3.5-1-3.5-2.7c0-1.6,1.4-2.9,3.8-3.7l2.8-0.9
			c0.4-0.1,1.4-0.5,2.6-1l0.2-0.1L15,23.5L15,23.5z"/>
		<path d="M62.8,18.9c2.2,0,3.8-1.5,3.8-3.6c0-2.7-2.3-4.6-5.6-4.6c-2.6,0-4.2,1-6.1,3.7l-0.3,0.4v-3.5h-9.8v2.7h1.4
			c2.5,0.1,2.9,0.5,2.9,2.8v9.6c0,2.3-0.4,2.7-2.9,2.8h-1.4v2.7h15V29h-2.3c-2.5-0.1-2.9-0.5-2.9-2.8v-5.6c0-4.6,2.5-8,5.8-8
			c0.5,0,1.2,0.2,2.1,0.4l0.5,0.2l-0.5,0.1c-2,0.6-2.8,1.4-2.8,2.9C59.6,17.9,60.8,18.9,62.8,18.9L62.8,18.9z"/>
		<path d="M102.1,22.2h-2.8c-0.1,3.5-0.1,4.4-0.4,5.1c-0.3,0.9-1,1.3-2.1,1.3c-1.5,0-2-0.6-2-2.7V14h6.6v-2.7h-6.3V3.1h-2.8
			c-0.6,5.6-2,7.4-6.6,8.3V14h4v11.4c0,2.6,0.3,3.8,1.1,5c0.9,1.4,2.5,2.1,4.7,2.1c3.2,0,5.2-1.3,6.1-3.9
			C102.1,27.2,102.2,26.2,102.1,22.2L102.1,22.2z"/>
		<g>
			<path d="M122,29v2.7h14.4V29H135c-2.7-0.1-3.2-0.5-3.2-2.8v-15H122v2.7h1.6c2.6,0.1,2.9,0.5,2.9,2.8v9.6c0,2.3-0.4,2.6-2.9,2.8
				H122L122,29z"/>
			<path d="M129.1,1.9l-3.4,6h1.4l4.6-3.3c1.4-1,2-1.8,2-2.7c0-1.1-0.8-1.9-2-1.9C130.6,0,129.9,0.5,129.1,1.9L129.1,1.9L129.1,1.9z
				"/>
		</g>
		<path d="M172.2,9.3c1.9,0,3.1-1.2,3.1-3.1c0-2.7-2.8-4.4-6.8-4.4c-5.5,0-8.2,2.9-8.2,8.7v0.9h-4.3v2.7h4.3v12.2
			c0,2.3-0.4,2.7-3.1,2.8h-1.3v2.7h14.8V29h-2c-2.5-0.1-3-0.5-3-2.8V14.1h5v-2.7h-5V8.2c0-3.3,0.9-4.5,3.4-4.5
			c0.9,0,1.4,0.2,2.2,0.7l0.3,0.2l-0.3,0.1c-1.3,0.4-2,1.1-2,2.3C169.3,8.3,170.5,9.3,172.2,9.3L172.2,9.3z"/>
		<g>
			<path d="M198.8,8.4c1.7,0,3.1-1.4,3.1-3.1s-1.4-3.1-3.1-3.1s-3.1,1.4-3.1,3C195.6,6.9,197,8.4,198.8,8.4L198.8,8.4z"/>
			<path d="M191.9,31.7h14.4V29h-1.4c-2.7-0.1-3.2-0.5-3.2-2.8v-15h-9.8v2.7h1.6c2.6,0.1,2.9,0.5,2.9,2.8v9.6c0,2.3-0.4,2.6-2.9,2.8
				h-1.6L191.9,31.7L191.9,31.7z"/>
		</g>
		<path d="M237.3,10.5c-7.4,0-12.5,4.4-12.5,11.1s4.5,10.9,11.6,10.9c3.5,0,6.1-1,7.8-2.8c1.4-1.5,1.9-3,2.2-6.2H243
			c-0.8,3.9-2.5,5.4-6,5.4c-4.3,0-6.5-2.5-6.5-7.4c0-5.3,2.6-8.4,7.1-8.4c1.8,0,2.8,0.3,4.8,1.6l0.3,0.2l-0.4,0.1
			c-1.8,0.3-2.7,1.1-2.7,2.6c0,1.6,1.4,2.8,3.3,2.8c2.2,0,3.6-1.5,3.6-3.6C246.6,13.1,242.7,10.5,237.3,10.5L237.3,10.5z"/>
		<path d="M288.9,24.6h-3.8c-0.5,1.9-1,2.8-1.9,3.5c-1,0.8-2.5,1.1-4.2,1.1c-2.1,0-3.6-0.6-4.6-2c-1-1.2-1.4-2.5-1.6-5.3v-0.2H289
			c-0.2-4.3-0.9-6.3-2.6-8.2c-1.9-2.1-4.5-3.1-8.1-3.1c-7.1,0-11.9,4.4-11.9,11s4.7,11,11.7,11c2.9,0,5.4-0.7,7.3-2
			C287.4,29.1,288.2,27.7,288.9,24.6L288.9,24.6z M273,18.8c0.4-2.2,0.9-3.2,1.9-4.2c0.9-1,2.1-1.4,3.5-1.4c2.9,0,4.1,1.5,4.6,5.7
			l0,0.2h-10L273,18.8L273,18.8z"/>
		<path d="M322.1,19.2l-4.3-0.9c-2.5-0.5-3.4-1.1-3.4-2.4c0-1.5,1.5-2.5,4-2.5c1.7,0,3.8,0.6,5,1.4c1.2,0.8,1.8,1.7,2.6,3.6h3V11
			h-2.5l-1,1.6l-0.1-0.1c-2.5-1.5-4.3-2.1-6.8-2.1c-5.2,0-8.7,2.6-8.7,6.4c0,3.1,2.4,5.2,7.3,6.3l3.6,0.8c3.2,0.7,4.7,1.3,4.7,2.9
			c0,1.7-1.7,2.8-4.4,2.8c-1.6,0-3-0.3-4.2-0.9c-2.1-1-3-2.2-3.9-4.9h-3.3v8.2h2.9l0.9-1.9l0.1,0.1c3.3,1.9,4.7,2.3,7.6,2.3
			c5.6,0,9.1-2.5,9.1-6.6C330.1,22.4,327.7,20.4,322.1,19.2L322.1,19.2z"/>
	</g>
</g>
</svg>
